STARTFONT 2.1
FONT -HP-Mincho-Bold-R-Normal--22-159-100-100-C-220-JISX0208.1990-0
SIZE 15 100 100
FONTBOUNDINGBOX 22 22 0 -2

STARTPROPERTIES 23
FONTNAME_REGISTRY ""
FOUNDRY "HP"
FAMILY_NAME "Mincho"
WEIGHT_NAME "Bold"
SLANT "R"
SETWIDTH_NAME "Normal"
ADD_STYLE_NAME ""
PIXEL_SIZE 22
POINT_SIZE 159
RESOLUTION_X 100
RESOLUTION_Y 100
SPACING "C"
AVERAGE_WIDTH 220
CHARSET_REGISTRY "JISX0208.1990"
CHARSET_ENCODING "0"
COPYRIGHT "Copyright (c) 1994 Hewlett-Packard Company. Copyright 1994 by Bridge Inc."
_HP_ASXVERSION "@(#) ASX 3.00 $Revision: 13.9 $ minB22k"
WEIGHT 10
X_HEIGHT 20
QUAD_WIDTH 22
DEFAULT_CHAR 8751
FONT_DESCENT 2
FONT_ASCENT 20
ENDPROPERTIES

CHARS 6963

STARTCHAR jisx0208_2121
ENCODING 8481
SWIDTH 960 0
DWIDTH 22 0
BBX 22 22 0 -2
BITMAP
000000
000000
000000
000000
000000
000000
000000
000000
000000
000000
000000
000000
000000
000000
000000
000000
000000
000000
000000
000000
000000
000000
ENDCHAR

STARTCHAR jisx0208_2122
ENCODING 8482
SWIDTH 960 0
DWIDTH 22 0
BBX 22 22 0 -2
BITMAP
000000
000000
000000
000000
000000
000000
000000
000000
000000
000000
000000
000000
000000
000000
000000
000000
700000
780000
3C0000
1E0000
1E0000
0E0000
ENDCHAR

STARTCHAR jisx0208_2123
ENCODING 8483
SWIDTH 960 0
DWIDTH 22 0
BBX 22 22 0 -2
BITMAP
000000
000000
000000
000000
000000
000000
000000
000000
000000
000000
000000
000000
000000
000000
000000
3E0000
7F0000
770000
630000
770000
7F0000
3E0000
ENDCHAR

STARTCHAR jisx0208_2124
ENCODING 8484
SWIDTH 960 0
DWIDTH 22 0
BBX 22 22 0 -2
BITMAP
000000
000000
000000
000000
000000
000000
000000
000000
000000
000000
000000
000000
000000
000000
000000
300000
780000
780000
780000
380000
700000
600000
ENDCHAR

STARTCHAR jisx0208_2125
ENCODING 8485
SWIDTH 960 0
DWIDTH 22 0
BBX 22 22 0 -2
BITMAP
000000
000000
000000
000000
000000
000000
000000
000000
000000
000000
000000
000000
000000
000000
000000
000000
380000
7C0000
7C0000
380000
000000
000000
ENDCHAR

STARTCHAR jisx0208_2126
ENCODING 8486
SWIDTH 960 0
DWIDTH 22 0
BBX 22 22 0 -2
BITMAP
000000
000000
000000
000000
000000
000000
000000
000000
003800
007C00
007C00
007C00
003800
000000
000000
000000
000000
000000
000000
000000
000000
000000
ENDCHAR

STARTCHAR jisx0208_2127
ENCODING 8487
SWIDTH 960 0
DWIDTH 22 0
BBX 22 22 0 -2
BITMAP
000000
000000
000000
000000
003800
007C00
007C00
003800
000000
000000
000000
000000
000000
003800
007C00
007C00
003800
000000
000000
000000
000000
000000
ENDCHAR

STARTCHAR jisx0208_2128
ENCODING 8488
SWIDTH 960 0
DWIDTH 22 0
BBX 22 22 0 -2
BITMAP
000000
000000
000000
000000
003800
007C00
007C00
003800
000000
000000
000000
000000
000000
003800
007C00
007C00
003C00
001800
007000
006000
000000
000000
ENDCHAR

STARTCHAR jisx0208_2129
ENCODING 8489
SWIDTH 960 0
DWIDTH 22 0
BBX 22 22 0 -2
BITMAP
000000
01FE00
03FF00
078780
070380
078380
078380
078780
030F00
001E00
003C00
003800
003000
003000
003000
000000
003800
007C00
007C00
003800
000000
000000
ENDCHAR

STARTCHAR jisx0208_212A
ENCODING 8490
SWIDTH 960 0
DWIDTH 22 0
BBX 22 22 0 -2
BITMAP
000000
003000
007800
007800
007800
007800
007800
007800
007800
007800
003000
003000
003000
003000
003000
000000
003800
007C00
007C00
003800
000000
000000
ENDCHAR

STARTCHAR jisx0208_212B
ENCODING 8491
SWIDTH 960 0
DWIDTH 22 0
BBX 22 22 0 -2
BITMAP
FC0000
DC0000
6C0000
300000
000000
000000
000000
000000
000000
000000
000000
000000
000000
000000
000000
000000
000000
000000
000000
000000
000000
000000
ENDCHAR

STARTCHAR jisx0208_212C
ENCODING 8492
SWIDTH 960 0
DWIDTH 22 0
BBX 22 22 0 -2
BITMAP
780000
FC0000
CC0000
CC0000
FC0000
780000
000000
000000
000000
000000
000000
000000
000000
000000
000000
000000
000000
000000
000000
000000
000000
000000
ENDCHAR

STARTCHAR jisx0208_212D
ENCODING 8493
SWIDTH 960 0
DWIDTH 22 0
BBX 22 22 0 -2
BITMAP
007F00
01FF00
01F000
000000
000000
000000
000000
000000
000000
000000
000000
000000
000000
000000
000000
000000
000000
000000
000000
000000
000000
000000
ENDCHAR

STARTCHAR jisx0208_212E
ENCODING 8494
SWIDTH 960 0
DWIDTH 22 0
BBX 22 22 0 -2
BITMAP
01FC00
01FF00
001F00
000000
000000
000000
000000
000000
000000
000000
000000
000000
000000
000000
000000
000000
000000
000000
000000
000000
000000
000000
ENDCHAR

STARTCHAR jisx0208_212F
ENCODING 8495
SWIDTH 960 0
DWIDTH 22 0
BBX 22 22 0 -2
BITMAP
03EF80
03EF80
01C700
000000
000000
000000
000000
000000
000000
000000
000000
000000
000000
000000
000000
000000
000000
000000
000000
000000
000000
000000
ENDCHAR

STARTCHAR jisx0208_2130
ENCODING 8496
SWIDTH 960 0
DWIDTH 22 0
BBX 22 22 0 -2
BITMAP
007C00
01FF00
03EF80
038380
000000
000000
000000
000000
000000
000000
000000
000000
000000
000000
000000
000000
000000
000000
000000
000000
000000
000000
ENDCHAR

STARTCHAR jisx0208_2131
ENCODING 8497
SWIDTH 960 0
DWIDTH 22 0
BBX 22 22 0 -2
BITMAP
FFFFFC
000000
000000
000000
000000
000000
000000
000000
000000
000000
000000
000000
000000
000000
000000
000000
000000
000000
000000
000000
000000
000000
ENDCHAR

STARTCHAR jisx0208_2132
ENCODING 8498
SWIDTH 960 0
DWIDTH 22 0
BBX 22 22 0 -2
BITMAP
000000
000000
000000
000000
000000
000000
000000
000000
000000
000000
000000
000000
000000
000000
000000
000000
000000
000000
000000
000000
FFFFFC
FFFFFC
ENDCHAR

STARTCHAR jisx0208_2133
ENCODING 8499
SWIDTH 960 0
DWIDTH 22 0
BBX 22 22 0 -2
BITMAP
000000
000000
000000
000000
000000
038000
03E000
01F800
007C00
003E00
001F00
000F00
000780
000780
000380
000380
000000
000000
000000
000000
000000
000000
ENDCHAR

STARTCHAR jisx0208_2134
ENCODING 8500
SWIDTH 960 0
DWIDTH 22 0
BBX 22 22 0 -2
BITMAP
000000
000700
000780
001B80
001D80
038E00
03E600
01F800
007C00
003E00
001F00
000F00
000780
000780
000380
000380
000000
000000
000000
000000
000000
000000
ENDCHAR

STARTCHAR jisx0208_2135
ENCODING 8501
SWIDTH 960 0
DWIDTH 22 0
BBX 22 22 0 -2
BITMAP
000000
000000
000000
000000
070000
07C000
03F000
00F800
007C00
003E00
001E00
000F00
000F00
007700
007F00
000700
000000
000000
000000
000000
000000
000000
ENDCHAR

STARTCHAR jisx0208_2136
ENCODING 8502
SWIDTH 960 0
DWIDTH 22 0
BBX 22 22 0 -2
BITMAP
000000
000380
0003C0
000DC0
070EC0
07C700
03F300
00F800
007C00
003E00
001E00
000F00
000F00
007700
007F00
000700
000000
000000
000000
000000
000000
000000
ENDCHAR

STARTCHAR jisx0208_2137
ENCODING 8503
SWIDTH 960 0
DWIDTH 22 0
BBX 22 22 0 -2
BITMAP
000000
000000
000000
000000
00C600
00F780
00F780
00E700
01EF00
01CE00
01CE00
03DE00
039C00
039C00
073800
073800
063000
000000
000000
000000
000000
000000
ENDCHAR

STARTCHAR jisx0208_2138
ENCODING 8504
SWIDTH 960 0
DWIDTH 22 0
BBX 22 22 0 -2
BITMAP
007C00
00F800
00FC00
01EE00
03EF00
07C780
0F83E0
1F01F8
7C00FC
F8007C
E0019C
0FFFE0
0FFFE0
003800
003800
003800
003800
003800
003838
7FFFFC
7FFFFC
000000
ENDCHAR

STARTCHAR jisx0208_2139
ENCODING 8505
SWIDTH 960 0
DWIDTH 22 0
BBX 22 22 0 -2
BITMAP
00C000
00F000
00F000
00E000
01E0E0
01DFF0
03FFF0
0380E0
0781C0
0703C0
0E0380
1E0780
3DC700
39EE00
00FE00
003C00
001F00
000F00
000700
000700
000000
000000
ENDCHAR

STARTCHAR jisx0208_213A
ENCODING 8506
SWIDTH 960 0
DWIDTH 22 0
BBX 22 22 0 -2
BITMAP
000000
000070
000078
00003C
0000FC
0001F0
0003C0
03F780
07FF00
0F3E00
0E1F80
1C77C0
1CF3E0
19E1E0
39C0E0
3B8000
3F8000
370000
3E0000
3E0000
1C0000
000000
ENDCHAR

STARTCHAR jisx0208_213B
ENCODING 8507
SWIDTH 960 0
DWIDTH 22 0
BBX 22 22 0 -2
BITMAP
01FF00
07FFC0
0F83E0
1E00F0
3C0078
380038
70001C
70001C
60000C
60000C
60000C
60000C
60000C
70001C
70001C
380038
3C0078
1E00F0
0F83E0
07FFC0
01FF00
000000
ENDCHAR

STARTCHAR jisx0208_213C
ENCODING 8508
SWIDTH 960 0
DWIDTH 22 0
BBX 22 22 0 -2
BITMAP
000000
000000
000000
000000
000000
000000
000000
000000
6000F8
7FFFFC
7FFFFC
3E001C
000000
000000
000000
000000
000000
000000
000000
000000
000000
000000
ENDCHAR

STARTCHAR jisx0208_213D
ENCODING 8509
SWIDTH 960 0
DWIDTH 22 0
BBX 22 22 0 -2
BITMAP
000000
000000
000000
000000
000000
000000
000000
000000
000000
FFFFFC
FFFFFC
FFFFFC
000000
000000
000000
000000
000000
000000
000000
000000
000000
000000
ENDCHAR

STARTCHAR jisx0208_213E
ENCODING 8510
SWIDTH 960 0
DWIDTH 22 0
BBX 22 22 0 -2
BITMAP
000000
000000
000000
000000
000000
000000
000000
000000
000000
00FE00
00FE00
00FE00
000000
000000
000000
000000
000000
000000
000000
000000
000000
000000
ENDCHAR

STARTCHAR jisx0208_213F
ENCODING 8511
SWIDTH 960 0
DWIDTH 22 0
BBX 22 22 0 -2
BITMAP
00001C
00003C
000078
0000F0
0001E0
0003C0
000780
000F00
001E00
003C00
007800
00F000
01E000
03C000
078000
0F0000
1E0000
3C0000
780000
F00000
E00000
C00000
ENDCHAR

STARTCHAR jisx0208_2140
ENCODING 8512
SWIDTH 960 0
DWIDTH 22 0
BBX 22 22 0 -2
BITMAP
F00000
780000
3C0000
1E0000
0F0000
078000
03C000
01E000
00F000
007800
003C00
001E00
000F00
000780
0003C0
0001E0
0000F0
000078
00003C
00001C
00000C
000004
ENDCHAR

STARTCHAR jisx0208_2141
ENCODING 8513
SWIDTH 960 0
DWIDTH 22 0
BBX 22 22 0 -2
BITMAP
000000
000000
000000
000000
000000
000000
000000
07C000
1FF00C
3FF81C
7C7C7C
703FF8
601FF0
0007C0
000000
000000
000000
000000
000000
000000
000000
000000
ENDCHAR

STARTCHAR jisx0208_2142
ENCODING 8514
SWIDTH 960 0
DWIDTH 22 0
BBX 22 22 0 -2
BITMAP
038380
038380
038380
038380
038380
038380
038380
038380
038380
038380
038380
038380
038380
038380
038380
038380
038380
038380
038380
038380
038380
038380
ENDCHAR

STARTCHAR jisx0208_2143
ENCODING 8515
SWIDTH 960 0
DWIDTH 22 0
BBX 22 22 0 -2
BITMAP
003800
003800
003800
003800
003800
003800
003800
003800
003800
003800
003800
003800
003800
003800
003800
003800
003800
003800
003800
003800
003800
003800
ENDCHAR

STARTCHAR jisx0208_2144
ENCODING 8516
SWIDTH 960 0
DWIDTH 22 0
BBX 22 22 0 -2
BITMAP
000000
000000
000000
000000
000000
000000
000000
000000
1C3870
3E7CF8
3E7CF8
1C3870
000000
000000
000000
000000
000000
000000
000000
000000
000000
000000
ENDCHAR

STARTCHAR jisx0208_2145
ENCODING 8517
SWIDTH 960 0
DWIDTH 22 0
BBX 22 22 0 -2
BITMAP
000000
000000
000000
000000
000000
000000
000000
000000
0E00E0
1F01F0
1F01F0
0E00E0
000000
000000
000000
000000
000000
000000
000000
000000
000000
000000
ENDCHAR

STARTCHAR jisx0208_2146
ENCODING 8518
SWIDTH 960 0
DWIDTH 22 0
BBX 22 22 0 -2
BITMAP
00001C
000038
00003C
00003C
00003C
000018
000000
000000
000000
000000
000000
000000
000000
000000
000000
000000
000000
000000
000000
000000
000000
000000
ENDCHAR

STARTCHAR jisx0208_2147
ENCODING 8519
SWIDTH 960 0
DWIDTH 22 0
BBX 22 22 0 -2
BITMAP
780000
780000
780000
380000
700000
600000
000000
000000
000000
000000
000000
000000
000000
000000
000000
000000
000000
000000
000000
000000
000000
000000
ENDCHAR

STARTCHAR jisx0208_2148
ENCODING 8520
SWIDTH 960 0
DWIDTH 22 0
BBX 22 22 0 -2
BITMAP
0001DC
0003B8
0003BC
0003BC
0003BC
000198
000000
000000
000000
000000
000000
000000
000000
000000
000000
000000
000000
000000
000000
000000
000000
000000
ENDCHAR

STARTCHAR jisx0208_2149
ENCODING 8521
SWIDTH 960 0
DWIDTH 22 0
BBX 22 22 0 -2
BITMAP
778000
778000
7F8000
3B8000
770000
660000
000000
000000
000000
000000
000000
000000
000000
000000
000000
000000
000000
000000
000000
000000
000000
000000
ENDCHAR

STARTCHAR jisx0208_214A
ENCODING 8522
SWIDTH 960 0
DWIDTH 22 0
BBX 22 22 0 -2
BITMAP
00003C
000078
000070
0000F0
0000E0
0000E0
0001E0
0001C0
0001C0
0001C0
0001C0
0001C0
0001C0
0001C0
0001E0
0000E0
0000E0
0000F0
000070
000078
00003C
00001C
ENDCHAR

STARTCHAR jisx0208_214B
ENCODING 8523
SWIDTH 960 0
DWIDTH 22 0
BBX 22 22 0 -2
BITMAP
780000
3C0000
1C0000
1E0000
0E0000
0E0000
0F0000
070000
070000
070000
070000
070000
070000
070000
0F0000
0E0000
0E0000
1E0000
1C0000
3C0000
780000
700000
ENDCHAR

STARTCHAR jisx0208_214C
ENCODING 8524
SWIDTH 960 0
DWIDTH 22 0
BBX 22 22 0 -2
BITMAP
00007C
0001FC
0001F0
0001C0
0001C0
0001C0
0001C0
0001C0
0001C0
0001C0
0001C0
0001C0
0001C0
0001C0
0001C0
0001C0
0001C0
0001C0
0001F0
0001FC
00007C
000018
ENDCHAR

STARTCHAR jisx0208_214D
ENCODING 8525
SWIDTH 960 0
DWIDTH 22 0
BBX 22 22 0 -2
BITMAP
7C0000
7F0000
1F0000
070000
070000
070000
070000
070000
070000
070000
070000
070000
070000
070000
070000
070000
070000
070000
1F0000
7F0000
7C0000
300000
ENDCHAR

STARTCHAR jisx0208_214E
ENCODING 8526
SWIDTH 960 0
DWIDTH 22 0
BBX 22 22 0 -2
BITMAP
0001FC
0001FC
0001C0
0001C0
0001C0
0001C0
0001C0
0001C0
0001C0
0001C0
0001C0
0001C0
0001C0
0001C0
0001C0
0001C0
0001C0
0001C0
0001C0
0001FC
0001FC
0001FC
ENDCHAR

STARTCHAR jisx0208_214F
ENCODING 8527
SWIDTH 960 0
DWIDTH 22 0
BBX 22 22 0 -2
BITMAP
7F0000
7F0000
070000
070000
070000
070000
070000
070000
070000
070000
070000
070000
070000
070000
070000
070000
070000
070000
070000
7F0000
7F0000
7F0000
ENDCHAR

STARTCHAR jisx0208_2150
ENCODING 8528
SWIDTH 960 0
DWIDTH 22 0
BBX 22 22 0 -2
BITMAP
00003C
000078
000070
000070
000070
000070
000070
000070
0000F0
0001E0
0001C0
0000F0
000070
000070
000070
000070
000070
000070
000070
000078
00003C
00001C
ENDCHAR

STARTCHAR jisx0208_2151
ENCODING 8529
SWIDTH 960 0
DWIDTH 22 0
BBX 22 22 0 -2
BITMAP
780000
3C0000
1C0000
1C0000
1C0000
1C0000
1C0000
1C0000
1E0000
0F0000
070000
1E0000
1C0000
1C0000
1C0000
1C0000
1C0000
1C0000
1C0000
3C0000
780000
700000
ENDCHAR

STARTCHAR jisx0208_2152
ENCODING 8530
SWIDTH 960 0
DWIDTH 22 0
BBX 22 22 0 -2
BITMAP
00001C
00003C
000038
000078
000070
0000F0
0000E0
0001E0
0001C0
0003C0
000380
0003C0
0001C0
0001E0
0000E0
0000F0
000070
000078
000038
00003C
00001C
000018
ENDCHAR

STARTCHAR jisx0208_2153
ENCODING 8531
SWIDTH 960 0
DWIDTH 22 0
BBX 22 22 0 -2
BITMAP
700000
780000
380000
3C0000
1C0000
1E0000
0E0000
0F0000
070000
078000
038000
078000
070000
0F0000
0E0000
1E0000
1C0000
3C0000
380000
780000
700000
300000
ENDCHAR

STARTCHAR jisx0208_2154
ENCODING 8532
SWIDTH 960 0
DWIDTH 22 0
BBX 22 22 0 -2
BITMAP
0000DC
0001F8
0001B8
0003F0
000370
0007E0
0006E0
000FC0
000DC0
001F80
001B80
001F80
000DC0
000FC0
0006E0
0007E0
000370
0003F0
0001B8
0001F8
0000DC
0000DC
ENDCHAR

STARTCHAR jisx0208_2155
ENCODING 8533
SWIDTH 960 0
DWIDTH 22 0
BBX 22 22 0 -2
BITMAP
7E0000
370000
3F0000
1B8000
1F8000
0DC000
0FC000
06E000
07E000
037000
037000
037000
07E000
06E000
0FC000
0DC000
1F8000
1B8000
3F0000
370000
7E0000
6E0000
ENDCHAR

STARTCHAR jisx0208_2156
ENCODING 8534
SWIDTH 960 0
DWIDTH 22 0
BBX 22 22 0 -2
BITMAP
0003FC
0003FC
000380
000380
000380
000380
000380
000380
000380
000380
000380
000380
000380
000380
000380
000380
000380
000380
000380
000380
000380
000380
ENDCHAR

STARTCHAR jisx0208_2157
ENCODING 8535
SWIDTH 960 0
DWIDTH 22 0
BBX 22 22 0 -2
BITMAP
038000
038000
038000
038000
038000
038000
038000
038000
038000
038000
038000
038000
038000
038000
038000
038000
038000
038000
038000
7F8000
7F8000
7F8000
ENDCHAR

STARTCHAR jisx0208_2158
ENCODING 8536
SWIDTH 960 0
DWIDTH 22 0
BBX 22 22 0 -2
BITMAP
0003FC
00030C
00037C
00037C
000360
000360
000360
000360
000360
000360
000360
000360
000360
000360
000360
000360
000360
000360
000360
000360
0003E0
0003E0
ENDCHAR

STARTCHAR jisx0208_2159
ENCODING 8537
SWIDTH 960 0
DWIDTH 22 0
BBX 22 22 0 -2
BITMAP
0F8000
0D8000
0D8000
0D8000
0D8000
0D8000
0D8000
0D8000
0D8000
0D8000
0D8000
0D8000
0D8000
0D8000
0D8000
0D8000
0D8000
7D8000
7D8000
618000
7F8000
7F8000
ENDCHAR

STARTCHAR jisx0208_215A
ENCODING 8538
SWIDTH 960 0
DWIDTH 22 0
BBX 22 22 0 -2
BITMAP
0001FC
0001F8
0001F0
0001F0
0001E0
0001E0
0001E0
0001C0
0001C0
0001C0
0001C0
0001C0
0001C0
0001C0
0001E0
0001E0
0001E0
0001F0
0001F0
0001F8
0001FC
0001FC
ENDCHAR

STARTCHAR jisx0208_215B
ENCODING 8539
SWIDTH 960 0
DWIDTH 22 0
BBX 22 22 0 -2
BITMAP
7F0000
3F0000
1F0000
1F0000
0F0000
0F0000
0F0000
070000
070000
070000
070000
070000
070000
070000
0F0000
0F0000
0F0000
1F0000
1F0000
3F0000
7F0000
7F0000
ENDCHAR

STARTCHAR jisx0208_215C
ENCODING 8540
SWIDTH 960 0
DWIDTH 22 0
BBX 22 22 0 -2
BITMAP
000000
000000
003800
003800
003800
003800
003800
003800
003800
1FFFF0
1FFFF0
1FFFF0
003800
003800
003800
003800
003800
003800
003800
000000
000000
000000
ENDCHAR

STARTCHAR jisx0208_215D
ENCODING 8541
SWIDTH 960 0
DWIDTH 22 0
BBX 22 22 0 -2
BITMAP
000000
000000
000000
000000
000000
000000
000000
000000
000000
1FFFF0
1FFFF0
1FFFF0
000000
000000
000000
000000
000000
000000
000000
000000
000000
000000
ENDCHAR

STARTCHAR jisx0208_215E
ENCODING 8542
SWIDTH 960 0
DWIDTH 22 0
BBX 22 22 0 -2
BITMAP
000000
000000
003800
003800
003800
003800
003800
1FFFF0
1FFFF0
1FFFF0
003800
003800
003800
003800
003800
000000
1FFFF0
1FFFF0
1FFFF0
000000
000000
000000
ENDCHAR

STARTCHAR jisx0208_215F
ENCODING 8543
SWIDTH 960 0
DWIDTH 22 0
BBX 22 22 0 -2
BITMAP
000000
000000
000000
0600C0
0F01E0
0F83E0
07C7C0
03EF80
01FF00
00FE00
007C00
00FE00
01FF00
03EF80
07C7C0
0F83E0
0F01E0
0600C0
000000
000000
000000
000000
ENDCHAR

STARTCHAR jisx0208_2160
ENCODING 8544
SWIDTH 960 0
DWIDTH 22 0
BBX 22 22 0 -2
BITMAP
000000
000000
000000
003800
007C00
007C00
003800
000000
000000
1FFFF0
1FFFF0
1FFFF0
000000
000000
003800
007C00
007C00
003800
000000
000000
000000
000000
ENDCHAR

STARTCHAR jisx0208_2161
ENCODING 8545
SWIDTH 960 0
DWIDTH 22 0
BBX 22 22 0 -2
BITMAP
000000
000000
000000
000000
000000
1FFFF0
1FFFF0
1FFFF0
000000
000000
000000
000000
1FFFF0
1FFFF0
1FFFF0
000000
000000
000000
000000
000000
000000
000000
ENDCHAR

STARTCHAR jisx0208_2162
ENCODING 8546
SWIDTH 960 0
DWIDTH 22 0
BBX 22 22 0 -2
BITMAP
000000
000180
000380
000380
000700
1FFFF0
1FFFF0
1FFFF0
001C00
003800
003800
007000
1FFFF0
1FFFF0
1FFFF0
01C000
038000
038000
030000
000000
000000
000000
ENDCHAR

STARTCHAR jisx0208_2163
ENCODING 8547
SWIDTH 960 0
DWIDTH 22 0
BBX 22 22 0 -2
BITMAP
000000
000000
000060
0001F0
0007F0
001FC0
007F00
01FC00
07F000
1FC000
1F0000
1FC000
07F000
01FC00
007F00
001FC0
0007F0
0001F0
000060
000000
000000
000000
ENDCHAR

STARTCHAR jisx0208_2164
ENCODING 8548
SWIDTH 960 0
DWIDTH 22 0
BBX 22 22 0 -2
BITMAP
000000
000000
0C0000
1F0000
1FC000
07F000
01FC00
007F00
001FC0
0007F0
0001F0
0007F0
001FC0
007F00
01FC00
07F000
1FC000
1F0000
0C0000
000000
000000
000000
ENDCHAR

STARTCHAR jisx0208_2165
ENCODING 8549
SWIDTH 960 0
DWIDTH 22 0
BBX 22 22 0 -2
BITMAP
000000
0000E0
0007F0
003FF0
01FF80
0FFC00
3FE000
3F0000
0FFC00
01FF80
003FF0
0007F0
0000E0
3FFF10
3FFFF0
3FFFF0
000000
3FFFF0
3FFFF0
3FFFF0
000000
000000
ENDCHAR

STARTCHAR jisx0208_2166
ENCODING 8550
SWIDTH 960 0
DWIDTH 22 0
BBX 22 22 0 -2
BITMAP
000000
1C0000
3F8000
3FF000
07FE00
00FFC0
001FF0
0003F0
00FFC0
07FE00
3FF000
3F8000
1C0000
23FFF0
3FFFF0
3FFFF0
000000
3FFFF0
3FFFF0
3FFFF0
000000
000000
ENDCHAR

STARTCHAR jisx0208_2167
ENCODING 8551
SWIDTH 960 0
DWIDTH 22 0
BBX 22 22 0 -2
BITMAP
000000
000000
000000
000000
000000
0F83E0
3FC7F8
3FEFF8
78FE3C
707C1C
70381C
707C1C
78FE3C
3FEFF8
3FC7F8
0F83E0
000000
000000
000000
000000
000000
000000
ENDCHAR

STARTCHAR jisx0208_2168
ENCODING 8552
SWIDTH 960 0
DWIDTH 22 0
BBX 22 22 0 -2
BITMAP
000000
000000
000000
003800
007C00
007C00
003800
000000
000000
000000
000000
000000
000000
000000
0E00E0
1F01F0
1F01F0
0E00E0
000000
000000
000000
000000
ENDCHAR

STARTCHAR jisx0208_2169
ENCODING 8553
SWIDTH 960 0
DWIDTH 22 0
BBX 22 22 0 -2
BITMAP
000000
001FF8
001FF8
001FF8
0000F8
0003F8
0007B8
000FB8
07DF38
1FFE38
1FFC38
3C3800
381C00
381C00
381C00
381C00
3C3C00
1FF800
1FF800
07E000
000000
000000
ENDCHAR

STARTCHAR jisx0208_216A
ENCODING 8554
SWIDTH 960 0
DWIDTH 22 0
BBX 22 22 0 -2
BITMAP
007C00
01FF00
03FF80
03C780
0783C0
0701C0
0701C0
0701C0
0783C0
03C780
03FF80
01FF00
007C00
003800
0FFFE0
0FFFE0
0FFFE0
003800
003800
003800
003800
000000
ENDCHAR

STARTCHAR jisx0208_216B
ENCODING 8555
SWIDTH 960 0
DWIDTH 22 0
BBX 22 22 0 -2
BITMAP
FC0000
CC0000
CC0000
FC0000
780000
000000
000000
000000
000000
000000
000000
000000
000000
000000
000000
000000
000000
000000
000000
000000
000000
000000
ENDCHAR

STARTCHAR jisx0208_216C
ENCODING 8556
SWIDTH 960 0
DWIDTH 22 0
BBX 22 22 0 -2
BITMAP
380000
780000
700000
F00000
E00000
C00000
000000
000000
000000
000000
000000
000000
000000
000000
000000
000000
000000
000000
000000
000000
000000
000000
ENDCHAR

STARTCHAR jisx0208_216D
ENCODING 8557
SWIDTH 960 0
DWIDTH 22 0
BBX 22 22 0 -2
BITMAP
3B8000
7F8000
770000
FF0000
EE0000
CC0000
000000
000000
000000
000000
000000
000000
000000
000000
000000
000000
000000
000000
000000
000000
000000
000000
ENDCHAR

STARTCHAR jisx0208_216E
ENCODING 8558
SWIDTH 960 0
DWIDTH 22 0
BBX 22 22 0 -2
BITMAP
7E0000
663FB0
66FFF0
7FF1F0
3DC078
038038
078018
070018
070000
070000
070000
070000
070000
070018
078018
038038
03C078
01F1F0
00FFE0
003F80
000000
000000
ENDCHAR

STARTCHAR jisx0208_216F
ENCODING 8559
SWIDTH 960 0
DWIDTH 22 0
BBX 22 22 0 -2
BITMAP
000000
1FC3F0
1FC3F0
0700C0
0781C0
038380
03C380
01C700
01E700
00EE00
0FEFE0
0FFFE0
007C00
0FBBE0
0FFFE0
003800
003800
003800
00FE00
00FE00
000000
000000
ENDCHAR

STARTCHAR jisx0208_2170
ENCODING 8560
SWIDTH 960 0
DWIDTH 22 0
BBX 22 22 0 -2
BITMAP
003000
03FD80
0FFF80
0F2FC0
1E33C0
1C31C0
1C30C0
1E30C0
0FB000
0FFC00
03FF80
007FC0
1837E0
1831E0
1C30E0
1C30E0
0E31E0
0FB3C0
0FFFC0
0DFF00
003000
003000
ENDCHAR

STARTCHAR jisx0208_2171
ENCODING 8561
SWIDTH 960 0
DWIDTH 22 0
BBX 22 22 0 -2
BITMAP
000000
000000
000000
000000
000600
000600
00FF00
03FF80
03CBC0
079DC0
071BC0
071BC0
073980
073800
073000
0770C0
0771C0
03E3C0
03FF80
00FF00
00C000
00C000
ENDCHAR

STARTCHAR jisx0208_2172
ENCODING 8562
SWIDTH 960 0
DWIDTH 22 0
BBX 22 22 0 -2
BITMAP
000000
003F00
007F80
00F1C0
00E3C0
00E3C0
00E180
00E000
00F000
0F7FC0
0FFFC0
007000
007000
007000
0F7000
1FF030
1DFC70
187FF0
1FDFE0
0FC7C0
000000
000000
ENDCHAR

STARTCHAR jisx0208_2173
ENCODING 8563
SWIDTH 960 0
DWIDTH 22 0
BBX 22 22 0 -2
BITMAP
000000
1F00C0
3F81E0
7BC3E0
71C3C0
71C780
71CF00
71CF00
7BDE00
3FBC00
1F7DF0
007BF8
00F7BC
01E71C
01E71C
03C71C
07871C
0F87BC
0F03F8
0601F0
000000
000000
ENDCHAR

STARTCHAR jisx0208_2174
ENCODING 8564
SWIDTH 960 0
DWIDTH 22 0
BBX 22 22 0 -2
BITMAP
000000
00C180
00C180
00C180
00C180
0FFFF0
0FFFF0
0FFFF0
0FFFF0
018300
018300
018300
1FFFE0
1FFFE0
1FFFE0
1FFFE0
030600
030600
030600
030600
000000
000000
ENDCHAR

STARTCHAR jisx0208_2175
ENCODING 8565
SWIDTH 960 0
DWIDTH 22 0
BBX 22 22 0 -2
BITMAP
000000
01F800
03FC00
03DC00
038C00
039C00
03BC00
03F800
01F000
03E000
07F7E0
0F7FE0
1E7980
1C3D80
1C1F80
1C1FB0
1E0F30
0F07F0
0FFFF0
03FDE0
000000
000000
ENDCHAR

STARTCHAR jisx0208_2176
ENCODING 8566
SWIDTH 960 0
DWIDTH 22 0
BBX 22 22 0 -2
BITMAP
000000
000000
003000
007800
007800
077B80
07FF80
07B780
03EF00
00FC00
007800
03FF00
07AF80
07F780
077B80
007800
007800
003000
000000
000000
000000
000000
ENDCHAR

STARTCHAR jisx0208_2177
ENCODING 8567
SWIDTH 960 0
DWIDTH 22 0
BBX 22 22 0 -2
BITMAP
000000
01FF00
07FFC0
0F83E0
1E00F0
1C7D70
38FFB8
39E7B8
31C398
33C398
338798
338718
338738
3BCF78
39FFF0
1CFBE0
1E0000
0F83E0
07FFC0
01FF00
000000
000000
ENDCHAR

STARTCHAR jisx0208_2178
ENCODING 8568
SWIDTH 960 0
DWIDTH 22 0
BBX 22 22 0 -2
BITMAP
00FC00
01FE00
03C700
038F00
038F00
03C600
01F000
00FC00
03BE00
038F00
038700
03C700
01EF00
00FE00
003C00
018F00
03C700
03C700
03CF00
01BE00
00FC00
000000
ENDCHAR

STARTCHAR jisx0208_2179
ENCODING 8569
SWIDTH 960 0
DWIDTH 22 0
BBX 22 22 0 -2
BITMAP
003800
003800
007C00
007C00
007C00
00FE00
00EE00
7FEFFC
7FC7FC
3FC7F8
1E00F0
0783C0
038380
03BB80
07FFC0
077DC0
06EFC0
0FC7E0
0F83E0
0E00E0
0C0060
000000
ENDCHAR

STARTCHAR jisx0208_217A
ENCODING 8570
SWIDTH 960 0
DWIDTH 22 0
BBX 22 22 0 -2
BITMAP
003800
003800
007C00
007C00
007C00
00FE00
00FE00
7FFFFC
7FFFFC
3FFFF8
1FFFF0
07FFC0
03FF80
03FF80
07FFC0
07FFC0
07EFC0
0FC7E0
0F83E0
0E00E0
0C0060
000000
ENDCHAR

STARTCHAR jisx0208_217B
ENCODING 8571
SWIDTH 960 0
DWIDTH 22 0
BBX 22 22 0 -2
BITMAP
01FF00
07FFC0
0FFFE0
1F83F0
3E00F8
3C0078
78003C
78003C
70001C
70001C
70001C
70001C
70001C
78003C
78003C
3C0078
3E00F8
1F83F0
0FFFE0
07FFC0
01FF00
000000
ENDCHAR

STARTCHAR jisx0208_217C
ENCODING 8572
SWIDTH 960 0
DWIDTH 22 0
BBX 22 22 0 -2
BITMAP
01FF00
07FFC0
0FFFE0
1FFFF0
3FFFF8
3FFFF8
7FFFFC
7FFFFC
7FFFFC
7FFFFC
7FFFFC
7FFFFC
7FFFFC
7FFFFC
7FFFFC
3FFFF8
3FFFF8
1FFFF0
0FFFE0
07FFC0
01FF00
000000
ENDCHAR

STARTCHAR jisx0208_217D
ENCODING 8573
SWIDTH 960 0
DWIDTH 22 0
BBX 22 22 0 -2
BITMAP
01FF00
07FFC0
0FFFE0
1F83F0
3E7CF8
3DFF78
7BFFBC
7BC7BC
7783DC
7701DC
7701DC
7701DC
7783DC
7BC7BC
7BFFBC
3DFF78
3E7CF8
1F83F0
0FFFE0
07FFC0
01FF00
000000
ENDCHAR

STARTCHAR jisx0208_217E
ENCODING 8574
SWIDTH 960 0
DWIDTH 22 0
BBX 22 22 0 -2
BITMAP
007C00
00FE00
01FF00
03EF80
07C7C0
0F83E0
1F01F0
3E00F8
7C007C
F8003C
F0001C
F8003C
7C007C
3E00F8
1F01F0
0F83E0
07C7C0
03EF80
01FF00
00FE00
007C00
003800
ENDCHAR

STARTCHAR jisx0208_2221
ENCODING 8737
SWIDTH 960 0
DWIDTH 22 0
BBX 22 22 0 -2
BITMAP
007C00
00FE00
01FF00
03FF80
07FFC0
0FFFE0
1FFFF0
3FFFF8
7FFFFC
FFFFFC
FFFFFC
FFFFFC
7FFFFC
3FFFF8
1FFFF0
0FFFE0
07FFC0
03FF80
01FF00
00FE00
007C00
003800
ENDCHAR

STARTCHAR jisx0208_2222
ENCODING 8738
SWIDTH 960 0
DWIDTH 22 0
BBX 22 22 0 -2
BITMAP
000000
3FFFF8
3FFFF8
3FFFF8
380038
380038
380038
380038
380038
380038
380038
380038
380038
380038
380038
380038
380038
3FFFF8
3FFFF8
3FFFF8
000000
000000
ENDCHAR

STARTCHAR jisx0208_2223
ENCODING 8739
SWIDTH 960 0
DWIDTH 22 0
BBX 22 22 0 -2
BITMAP
000000
3FFFF8
3FFFF8
3FFFF8
3FFFF8
3FFFF8
3FFFF8
3FFFF8
3FFFF8
3FFFF8
3FFFF8
3FFFF8
3FFFF8
3FFFF8
3FFFF8
3FFFF8
3FFFF8
3FFFF8
3FFFF8
3FFFF8
000000
000000
ENDCHAR

STARTCHAR jisx0208_2224
ENCODING 8740
SWIDTH 960 0
DWIDTH 22 0
BBX 22 22 0 -2
BITMAP
000000
003800
003800
007C00
00FE00
00FE00
01EF00
01C700
03C780
0783C0
0783C0
0F01E0
0E00E0
1E00F0
3C0078
3C0078
7BFFBC
7FFFFC
7FFFFC
000000
000000
000000
ENDCHAR

STARTCHAR jisx0208_2225
ENCODING 8741
SWIDTH 960 0
DWIDTH 22 0
BBX 22 22 0 -2
BITMAP
000000
003800
003800
007C00
00FE00
00FE00
01FF00
01FF00
03FF80
07FFC0
07FFC0
0FFFE0
0FFFE0
1FFFF0
3FFFF8
3FFFF8
7FFFFC
7FFFFC
7FFFFC
000000
000000
000000
ENDCHAR

STARTCHAR jisx0208_2226
ENCODING 8742
SWIDTH 960 0
DWIDTH 22 0
BBX 22 22 0 -2
BITMAP
000000
000000
7FFFFC
7FFFFC
7FFFFC
380038
3C0078
1E00F0
0E00E0
0F01E0
0783C0
0783C0
03C780
01C700
01EF00
00FE00
00FE00
007C00
003800
003800
000000
000000
ENDCHAR

STARTCHAR jisx0208_2227
ENCODING 8743
SWIDTH 960 0
DWIDTH 22 0
BBX 22 22 0 -2
BITMAP
000000
000000
7FFFFC
7FFFFC
7FFFFC
3FFFF8
3FFFF8
1FFFF0
0FFFE0
0FFFE0
07FFC0
07FFC0
03FF80
01FF00
01FF00
00FE00
00FE00
007C00
003800
003800
000000
000000
ENDCHAR

STARTCHAR jisx0208_2228
ENCODING 8744
SWIDTH 960 0
DWIDTH 22 0
BBX 22 22 0 -2
BITMAP
000000
183830
3C7C78
3E7CF8
1F7DF0
0FBBE0
07C7C0
03EF80
1DFF70
3EFEF8
3E7CF8
3EFEF8
1DFF70
03EF80
07C7C0
0FBBE0
1F7DF0
3E7CF8
3C7C78
183830
000000
000000
ENDCHAR

STARTCHAR jisx0208_2229
ENCODING 8745
SWIDTH 960 0
DWIDTH 22 0
BBX 22 22 0 -2
BITMAP
000000
3FFFF0
3FFFF0
3FFFF0
3FFFF0
000000
3FFFF0
3FFFF0
3FFFF0
3FFFF0
007800
007800
007800
007800
007800
007800
007800
007800
007800
007800
000000
000000
ENDCHAR

STARTCHAR jisx0208_222A
ENCODING 8746
SWIDTH 960 0
DWIDTH 22 0
BBX 22 22 0 -2
BITMAP
000000
000000
000000
000000
000000
000000
000180
0001E0
0000F8
FFFF7C
FFFFFC
FFFFFC
000078
0001E0
000180
000000
000000
000000
000000
000000
000000
000000
ENDCHAR

STARTCHAR jisx0208_222B
ENCODING 8747
SWIDTH 960 0
DWIDTH 22 0
BBX 22 22 0 -2
BITMAP
000000
000000
000000
000000
000000
000000
030000
0F0000
3E0000
FDFFFC
FFFFFC
FFFFFC
3C0000
0F0000
030000
000000
000000
000000
000000
000000
000000
000000
ENDCHAR

STARTCHAR jisx0208_222C
ENCODING 8748
SWIDTH 960 0
DWIDTH 22 0
BBX 22 22 0 -2
BITMAP
003800
007C00
007C00
00FE00
00FE00
01B700
01BB00
003800
003800
003800
003800
003800
003800
003800
003800
003800
003800
003800
003800
003800
003800
003800
ENDCHAR

STARTCHAR jisx0208_222D
ENCODING 8749
SWIDTH 960 0
DWIDTH 22 0
BBX 22 22 0 -2
BITMAP
003800
003800
003800
003800
003800
003800
003800
003800
003800
003800
003800
003800
003800
003800
01BB00
01BF00
00F600
00FE00
007C00
007C00
003800
003800
ENDCHAR

STARTCHAR jisx0208_222E
ENCODING 8750
SWIDTH 960 0
DWIDTH 22 0
BBX 22 22 0 -2
BITMAP
000000
000000
000000
000000
000000
1FFFF0
1FFFF0
1FFFF0
1FFFF0
000000
000000
000000
1FFFF0
1FFFF0
1FFFF0
1FFFF0
000000
000000
000000
000000
000000
000000
ENDCHAR

STARTCHAR jisx0208_222F
ENCODING 8751
SWIDTH 960 0
DWIDTH 22 0
BBX 22 22 0 -2
BITMAP
000000
300018
300018
000000
000000
000000
000000
000000
000000
000000
000000
000000
000000
000000
000000
000000
000000
000000
300018
300018
000000
000000
ENDCHAR

STARTCHAR jisx0208_223A
ENCODING 8762
SWIDTH 960 0
DWIDTH 22 0
BBX 22 22 0 -2
BITMAP
000000
000000
000000
03FFF0
0FFFF0
1FFFF0
1E0000
3C0000
380000
3FFFF0
3FFFF0
3FFFF0
380000
3C0000
1E0000
1FFFF0
0FFFF0
03FFF0
000000
000000
000000
000000
ENDCHAR

STARTCHAR jisx0208_223B
ENCODING 8763
SWIDTH 960 0
DWIDTH 22 0
BBX 22 22 0 -2
BITMAP
000000
000000
000000
1FFF80
1FFFE0
1FFFF0
0000F0
000078
000038
1FFFF8
1FFFF8
1FFFF8
000038
000078
0000F0
1FFFF0
1FFFE0
1FFF80
000000
000000
000000
000000
ENDCHAR

STARTCHAR jisx0208_223C
ENCODING 8764
SWIDTH 960 0
DWIDTH 22 0
BBX 22 22 0 -2
BITMAP
000000
000000
01FFF0
07FFF0
0FFFF0
0F0000
1E0000
1C0000
1C0000
1C0000
1E0000
0F0000
0FFFF0
07FFF0
01FFF0
000000
1FFFF0
1FFFF0
1FFFF0
000000
000000
000000
ENDCHAR

STARTCHAR jisx0208_223D
ENCODING 8765
SWIDTH 960 0
DWIDTH 22 0
BBX 22 22 0 -2
BITMAP
000000
000000
1FFF00
1FFFC0
1FFFE0
0001E0
0000F0
000070
000070
000070
0000F0
0001E0
1FFFE0
1FFFC0
1FFF00
000000
1FFFF0
1FFFF0
1FFFF0
000000
000000
000000
ENDCHAR

STARTCHAR jisx0208_223E
ENCODING 8766
SWIDTH 960 0
DWIDTH 22 0
BBX 22 22 0 -2
BITMAP
000000
000000
000000
01FFF0
07FFF0
0FFFF0
0F0000
1E0000
1C0000
1C0000
1C0000
1C0000
1C0000
1E0000
0F0000
0FFFF0
07FFF0
01FFF0
000000
000000
000000
000000
ENDCHAR

STARTCHAR jisx0208_223F
ENCODING 8767
SWIDTH 960 0
DWIDTH 22 0
BBX 22 22 0 -2
BITMAP
000000
000000
000000
1FFF00
1FFFC0
1FFFE0
0001E0
0000F0
000070
000070
000070
000070
000070
0000F0
0001E0
1FFFE0
1FFFC0
1FFF00
000000
000000
000000
000000
ENDCHAR

STARTCHAR jisx0208_2240
ENCODING 8768
SWIDTH 960 0
DWIDTH 22 0
BBX 22 22 0 -2
BITMAP
000000
000000
0E00E0
0E00E0
0E00E0
0E00E0
0E00E0
0E00E0
0E00E0
0E00E0
0E00E0
0E00E0
0E00E0
0E00E0
0F01E0
0783C0
07FFC0
03FF80
00FE00
000000
000000
000000
ENDCHAR

STARTCHAR jisx0208_2241
ENCODING 8769
SWIDTH 960 0
DWIDTH 22 0
BBX 22 22 0 -2
BITMAP
000000
000000
00FE00
03FF80
07FFC0
0783C0
0F01E0
0E00E0
0E00E0
0E00E0
0E00E0
0E00E0
0E00E0
0E00E0
0E00E0
0E00E0
0E00E0
0E00E0
0E00E0
000000
000000
000000
ENDCHAR

STARTCHAR jisx0208_224A
ENCODING 8778
SWIDTH 960 0
DWIDTH 22 0
BBX 22 22 0 -2
BITMAP
000000
000000
003800
003800
007C00
007C00
00FE00
00EE00
01EF00
01C700
03C780
038380
0783C0
0701C0
0F01E0
0E00E0
1E00F0
1C0070
0C0060
000000
000000
000000
ENDCHAR

STARTCHAR jisx0208_224B
ENCODING 8779
SWIDTH 960 0
DWIDTH 22 0
BBX 22 22 0 -2
BITMAP
000000
000000
0C0060
1C0070
1E00F0
0E00E0
0F01E0
0701C0
0783C0
038380
03C780
01C700
01EF00
00EE00
00FE00
007C00
007C00
003800
003800
000000
000000
000000
ENDCHAR

STARTCHAR jisx0208_224C
ENCODING 8780
SWIDTH 960 0
DWIDTH 22 0
BBX 22 22 0 -2
BITMAP
000000
000000
000000
000000
000000
000000
000000
7FFFF8
7FFFF8
7FFFF8
000038
000038
000038
000038
000038
000000
000000
000000
000000
000000
000000
000000
ENDCHAR

STARTCHAR jisx0208_224D
ENCODING 8781
SWIDTH 960 0
DWIDTH 22 0
BBX 22 22 0 -2
BITMAP
000000
000000
000300
000780
0007C0
0003E0
FFFDF0
FFFFF8
FFFFFC
00003C
00001C
FFFFFC
FFFFF8
FFFFF0
0001E0
0007C0
000780
000300
000000
000000
000000
000000
ENDCHAR

STARTCHAR jisx0208_224E
ENCODING 8782
SWIDTH 960 0
DWIDTH 22 0
BBX 22 22 0 -2
BITMAP
000000
000000
018300
03C780
07C7C0
0F83E0
1F7DF0
3FFFF8
7FFFFC
F8003C
F0001C
7FFFFC
3FFFF8
1FFFF0
0F01E0
07C7C0
03C780
018300
000000
000000
000000
000000
ENDCHAR

STARTCHAR jisx0208_224F
ENCODING 8783
SWIDTH 960 0
DWIDTH 22 0
BBX 22 22 0 -2
BITMAP
000000
000000
0C0060
1C0070
1E00F0
0E00E0
0FFFE0
07FFC0
07FFC0
038380
03C780
01C700
01EF00
00EE00
00FE00
007C00
007C00
003800
003800
000000
000000
000000
ENDCHAR

STARTCHAR jisx0208_2250
ENCODING 8784
SWIDTH 960 0
DWIDTH 22 0
BBX 22 22 0 -2
BITMAP
000000
000000
0FFFC0
0FFFC0
0FFFC0
0001C0
0001C0
0001C0
0001C0
0FFFC0
0FFFC0
0FFFC0
0001C0
0001C0
0001C0
0001C0
0FFFC0
0FFFC0
0FFFC0
000000
000000
000000
ENDCHAR

STARTCHAR jisx0208_225C
ENCODING 8796
SWIDTH 960 0
DWIDTH 22 0
BBX 22 22 0 -2
BITMAP
000000
000000
000060
0000E0
0001E0
0003E0
0007C0
000F80
001F00
003E00
007C00
00F800
01F000
03E000
07C000
0F8000
1F7FE0
1FFFE0
1FFFE0
000000
000000
000000
ENDCHAR

STARTCHAR jisx0208_225D
ENCODING 8797
SWIDTH 960 0
DWIDTH 22 0
BBX 22 22 0 -2
BITMAP
000000
000000
003800
003800
003800
003800
003800
003800
003800
003800
003800
003800
003800
003800
003800
003800
1FFFF0
1FFFF0
1FFFF0
000000
000000
000000
ENDCHAR

STARTCHAR jisx0208_225E
ENCODING 8798
SWIDTH 960 0
DWIDTH 22 0
BBX 22 22 0 -2
BITMAP
07FFC0
1FFFF0
3F83F8
7C007C
70001C
60000C
000000
000000
000000
000000
000000
000000
000000
000000
000000
000000
000000
000000
000000
000000
000000
000000
ENDCHAR

STARTCHAR jisx0208_225F
ENCODING 8799
SWIDTH 960 0
DWIDTH 22 0
BBX 22 22 0 -2
BITMAP
000000
00FE00
01FF00
03C780
038380
0303C0
003DC0
00FFC0
01F3C0
03C1C0
0381C0
0781C0
0701C0
0701C0
0703C0
070380
078780
03CF00
03FE00
00FC00
000000
000000
ENDCHAR

STARTCHAR jisx0208_2260
ENCODING 8800
SWIDTH 960 0
DWIDTH 22 0
BBX 22 22 0 -2
BITMAP
000000
000000
7FFFFC
7FFFFC
7FFFFC
380018
3C0078
1E0070
0F00E0
0F01E0
0781C0
03C380
03C780
01E700
00EE00
00FE00
007C00
003800
003800
000000
000000
000000
ENDCHAR

STARTCHAR jisx0208_2261
ENCODING 8801
SWIDTH 960 0
DWIDTH 22 0
BBX 22 22 0 -2
BITMAP
000000
000000
000000
000000
000000
1FFFF0
1FFFF0
1FFFF0
000000
1FFFF0
1FFFF0
1FFFF0
000000
1FFFF0
1FFFF0
1FFFF0
000000
000000
000000
000000
000000
000000
ENDCHAR

STARTCHAR jisx0208_2262
ENCODING 8802
SWIDTH 960 0
DWIDTH 22 0
BBX 22 22 0 -2
BITMAP
000000
000000
038000
07C000
07C000
038000
000000
1FFFF0
1FFFF0
1FFFF0
000000
1FFFF0
1FFFF0
1FFFF0
000000
000380
0007C0
0007C0
000380
000000
000000
000000
ENDCHAR

STARTCHAR jisx0208_2263
ENCODING 8803
SWIDTH 960 0
DWIDTH 22 0
BBX 22 22 0 -2
BITMAP
000000
001860
003CF0
007DF0
00FBE0
01F7C0
03EF80
07DF00
0FBE00
1F7C00
1E7800
0FBE00
07DF00
03EF80
01F7C0
00FBE0
007DF0
003CF0
001860
000000
000000
000000
ENDCHAR

STARTCHAR jisx0208_2264
ENCODING 8804
SWIDTH 960 0
DWIDTH 22 0
BBX 22 22 0 -2
BITMAP
000000
0C3000
1E7800
1F7C00
0FBE00
07DF00
03EF80
01F7C0
00FBE0
007DF0
003CF0
00FBE0
01F7C0
03EF80
07DF00
0FBE00
1F7C00
1E7800
0C3000
000000
000000
000000
ENDCHAR

STARTCHAR jisx0208_2265
ENCODING 8805
SWIDTH 960 0
DWIDTH 22 0
BBX 22 22 0 -2
BITMAP
000FFC
000C00
001C00
001C00
001800
003800
003800
003000
007000
007000
006000
18E000
3CE000
7CC000
FDC000
EDC000
CF8000
078000
078000
030000
030000
000000
ENDCHAR

STARTCHAR jisx0208_2266
ENCODING 8806
SWIDTH 960 0
DWIDTH 22 0
BBX 22 22 0 -2
BITMAP
000000
000000
000000
000000
000000
0F03E0
3FC7F8
3FCFF8
79DE3C
703C1C
70381C
70781C
78F73C
3FE7F8
3FC7F8
0F81E0
000000
000000
000000
000000
000000
000000
ENDCHAR

STARTCHAR jisx0208_2267
ENCODING 8807
SWIDTH 960 0
DWIDTH 22 0
BBX 22 22 0 -2
BITMAP
000000
000000
000000
000000
000000
0F83E0
3FC7F8
3FEFF8
78FE38
707C00
703800
707C00
78FE38
3FEFF8
3FC7F8
0F83E0
000000
000000
000000
000000
000000
000000
ENDCHAR

STARTCHAR jisx0208_2268
ENCODING 8808
SWIDTH 960 0
DWIDTH 22 0
BBX 22 22 0 -2
BITMAP
000000
000000
000000
0E00E0
1F01F0
1F01F0
0E00E0
000000
000000
000000
000000
000000
000000
000000
003800
007C00
007C00
003800
000000
000000
000000
000000
ENDCHAR

STARTCHAR jisx0208_2269
ENCODING 8809
SWIDTH 960 0
DWIDTH 22 0
BBX 22 22 0 -2
BITMAP
003F00
007300
006F00
007F00
007600
007000
007000
007800
003800
003800
003800
003800
003800
003C00
001C00
001C00
00DC00
01DC00
01DC00
01DC00
01B800
00F000
ENDCHAR

STARTCHAR jisx0208_226A
ENCODING 8810
SWIDTH 960 0
DWIDTH 22 0
BBX 22 22 0 -2
BITMAP
03F3F0
073730
06F6F0
07F7F0
076760
070700
070700
078780
038380
038380
038380
038380
038380
03C3C0
01C1C0
01C1C0
0DCDC0
1DDDC0
1DDDC0
1DDDC0
1B9B80
0F0F00
ENDCHAR

STARTCHAR jisx0208_2272
ENCODING 8818
SWIDTH 960 0
DWIDTH 22 0
BBX 22 22 0 -2
BITMAP
007C00
006C00
007C00
003800
000000
003800
007C00
007C00
00DE00
00EE00
01CF00
01C700
038780
038380
077FC0
07FFC0
0E01E0
0E00E0
3D03F8
3F03F8
000000
000000
ENDCHAR

STARTCHAR jisx0208_2273
ENCODING 8819
SWIDTH 960 0
DWIDTH 22 0
BBX 22 22 0 -2
BITMAP
000000
7C3000
FE3800
EE7800
EE7000
EEF000
EEE000
EFE000
FDC000
7FC000
038000
07FCF8
077DFC
0EEDDC
0EEDDC
1EEDDC
1CEDDC
3CEDDC
38FDFC
187CF8
000000
000000
ENDCHAR

STARTCHAR jisx0208_2274
ENCODING 8820
SWIDTH 960 0
DWIDTH 22 0
BBX 22 22 0 -2
BITMAP
000000
000600
018600
018600
0187E0
01FFE0
1FFFE0
1FFE00
1F8600
018600
018600
0187E0
01FFE0
1FFFE0
1FFE00
1F8600
018600
018600
018000
000000
000000
000000
ENDCHAR

STARTCHAR jisx0208_2275
ENCODING 8821
SWIDTH 960 0
DWIDTH 22 0
BBX 22 22 0 -2
BITMAP
018000
018000
018000
018000
018000
018000
018000
01FE00
017F00
01E780
01C380
018380
018380
018780
018700
018F00
019E00
01BC00
01F800
01F000
01C000
000000
ENDCHAR

STARTCHAR jisx0208_2276
ENCODING 8822
SWIDTH 960 0
DWIDTH 22 0
BBX 22 22 0 -2
BITMAP
003000
003800
003E00
003F00
003F80
0037C0
0033C0
0031E0
0030E0
0030E0
0030E0
0030E0
0031C0
0033C0
003380
00F300
03F000
07F000
07F000
07E000
03C000
000000
ENDCHAR

STARTCHAR jisx0208_2277
ENCODING 8823
SWIDTH 960 0
DWIDTH 22 0
BBX 22 22 0 -2
BITMAP
007800
007800
007800
03B700
07FF80
07FF80
03B700
007800
007800
007800
007800
003000
003000
003000
003000
003000
003000
003000
007800
007800
007800
007800
ENDCHAR

STARTCHAR jisx0208_2278
ENCODING 8824
SWIDTH 960 0
DWIDTH 22 0
BBX 22 22 0 -2
BITMAP
007800
007800
007800
03B700
07FF80
07FF80
03B700
007800
007800
007800
003000
007800
007800
007800
03B700
07FF80
07FF80
03B700
007800
007800
007800
003000
ENDCHAR

STARTCHAR jisx0208_2279
ENCODING 8825
SWIDTH 960 0
DWIDTH 22 0
BBX 22 22 0 -2
BITMAP
03FFC0
03FFC0
07FB80
07FB80
07FB80
07FB80
07FB80
03FB80
03FB80
00FB80
003B80
003B80
003B80
003B80
003B80
003B80
003B80
003B80
003B80
003B80
003B80
000000
ENDCHAR

STARTCHAR jisx0208_227E
ENCODING 8830
SWIDTH 960 0
DWIDTH 22 0
BBX 22 22 0 -2
BITMAP
07FFC0
0F83E0
1E00F0
3C0078
78003C
70001C
E0000C
E0000C
C00004
C00004
C00004
C00004
C00004
E0000C
E0000C
70001C
78003C
3C0078
1E00F0
0F83E0
07FFC0
01FF00
ENDCHAR

STARTCHAR jisx0208_2330
ENCODING 9008
SWIDTH 960 0
DWIDTH 22 0
BBX 22 22 0 -2
BITMAP
000000
00FE00
03FF80
07C7C0
0701C0
0F01E0
0E00E0
0E00E0
0E00E0
0E00E0
0E00E0
0E00E0
0E00E0
0E00E0
0E00E0
0F01E0
0701C0
07C7C0
03FF80
00FE00
000000
000000
ENDCHAR

STARTCHAR jisx0208_2331
ENCODING 9009
SWIDTH 960 0
DWIDTH 22 0
BBX 22 22 0 -2
BITMAP
000000
003800
007800
00F800
01F800
03B800
03B800
003800
003800
003800
003800
003800
003800
003800
003800
003800
003800
003800
03FF80
03FF80
000000
000000
ENDCHAR

STARTCHAR jisx0208_2332
ENCODING 9010
SWIDTH 960 0
DWIDTH 22 0
BBX 22 22 0 -2
BITMAP
000000
01FE00
07FF80
078780
0F03C0
0E01C0
0F01C0
0F01C0
0603C0
000F80
003F00
007C00
01F000
03E000
078060
070060
0E00E0
0FFFE0
0FFFC0
0FFFC0
000000
000000
ENDCHAR

STARTCHAR jisx0208_2333
ENCODING 9011
SWIDTH 960 0
DWIDTH 22 0
BBX 22 22 0 -2
BITMAP
000000
01FE00
07FF80
078780
0E03C0
0F01C0
0F01C0
0601C0
0003C0
00FF80
00FF00
0003C0
0C01E0
1E00E0
1E00E0
1E00E0
1C01E0
0F87C0
07FF80
01FE00
000000
000000
ENDCHAR

STARTCHAR jisx0208_2334
ENCODING 9012
SWIDTH 960 0
DWIDTH 22 0
BBX 22 22 0 -2
BITMAP
000000
000E00
001E00
003E00
003E00
006E00
00EE00
00EE00
01CE00
03CE00
038E00
070E00
0F0E60
1E0EE0
1DFFE0
1FFFE0
000E00
000E00
003F80
003F80
000000
000000
ENDCHAR

STARTCHAR jisx0208_2335
ENCODING 9013
SWIDTH 960 0
DWIDTH 22 0
BBX 22 22 0 -2
BITMAP
000000
03FFC0
03FFC0
03FF80
030000
070000
070000
06FE00
07FF80
07C7C0
0701C0
0601E0
0000E0
0700E0
0F80E0
0F81E0
0F01C0
07C7C0
03FF80
00FE00
000000
000000
ENDCHAR

STARTCHAR jisx0208_2336
ENCODING 9014
SWIDTH 960 0
DWIDTH 22 0
BBX 22 22 0 -2
BITMAP
000000
00FE00
03FF80
07C7C0
0703C0
0F07C0
0E0380
0EFC00
0FFF80
0FC7C0
0F01C0
0E01E0
0E00E0
0E00E0
0E00E0
0F01E0
0701C0
07C7C0
03FF80
00FE00
000000
000000
ENDCHAR

STARTCHAR jisx0208_2337
ENCODING 9015
SWIDTH 960 0
DWIDTH 22 0
BBX 22 22 0 -2
BITMAP
000000
07FFE0
07FFE0
0FFFE0
0E01C0
0C0380
0C0700
000700
000E00
000E00
001C00
001C00
001C00
003C00
003800
003800
003800
003800
003800
003800
000000
000000
ENDCHAR

STARTCHAR jisx0208_2338
ENCODING 9016
SWIDTH 960 0
DWIDTH 22 0
BBX 22 22 0 -2
BITMAP
000000
01FE00
07FF80
0F87C0
0F01C0
0E00C0
0E00C0
0F01C0
0FE7C0
07FF80
01FE00
0FBFC0
1E03E0
1C01E0
1800E0
1C00E0
1E01E0
0F87C0
07FF80
01FE00
000000
000000
ENDCHAR

STARTCHAR jisx0208_2339
ENCODING 9017
SWIDTH 960 0
DWIDTH 22 0
BBX 22 22 0 -2
BITMAP
000000
00FE00
03FF80
07C7C0
0701C0
0F01E0
0E00E0
0E00E0
0E00E0
0F00E0
0701E0
07C7E0
03FFE0
00FEE0
0300E0
07C1E0
07C1C0
0787C0
03FF80
00FE00
000000
000000
ENDCHAR

STARTCHAR jisx0208_2341
ENCODING 9025
SWIDTH 960 0
DWIDTH 22 0
BBX 22 22 0 -2
BITMAP
000000
003800
003800
007C00
007C00
005C00
00FE00
00EE00
01CF00
01C700
018700
038780
038380
0703C0
07FDC0
07FFC0
0E01E0
0E00E0
3D03F8
3F03F8
000000
000000
ENDCHAR

STARTCHAR jisx0208_2342
ENCODING 9026
SWIDTH 960 0
DWIDTH 22 0
BBX 22 22 0 -2
BITMAP
000000
1FFF80
1FFFC0
0701E0
0700E0
0700E0
0700E0
0700E0
0701E0
07FFC0
07FFA0
0701E0
0700F0
070070
070070
070070
0700F0
0701E0
1FFFE0
1FFF80
000000
000000
ENDCHAR

STARTCHAR jisx0208_2343
ENCODING 9027
SWIDTH 960 0
DWIDTH 22 0
BBX 22 22 0 -2
BITMAP
000000
00FEC0
03FFC0
07C7C0
0F01E0
0E00E0
1E0060
1C0060
1C0000
1C0000
1C0000
1C0000
1C0000
1C0060
1E0060
0E00E0
0F01E0
07C7C0
03FF80
00FE00
000000
000000
ENDCHAR

STARTCHAR jisx0208_2344
ENCODING 9028
SWIDTH 960 0
DWIDTH 22 0
BBX 22 22 0 -2
BITMAP
000000
1FFE00
1FFF80
0707C0
0701E0
0700E0
0700F0
070070
070070
070070
070070
070070
070070
070070
0700F0
0700E0
0701E0
0707C0
1FFF80
1FFE00
000000
000000
ENDCHAR

STARTCHAR jisx0208_2345
ENCODING 9029
SWIDTH 960 0
DWIDTH 22 0
BBX 22 22 0 -2
BITMAP
000000
1FFF80
1FFF80
0703C0
0701C0
0700C0
0706C0
070600
070E00
07FE00
07FE00
070E00
070600
070600
070060
070060
0700E0
0701E0
1FFFC0
1FFFC0
000000
000000
ENDCHAR

STARTCHAR jisx0208_2346
ENCODING 9030
SWIDTH 960 0
DWIDTH 22 0
BBX 22 22 0 -2
BITMAP
000000
1FFFC0
1FFFC0
0701E0
0700E0
070060
070360
070300
070700
07FF00
07FF00
070700
070300
070300
070000
070000
070000
070000
1FE000
1FE000
000000
000000
ENDCHAR

STARTCHAR jisx0208_2347
ENCODING 9031
SWIDTH 960 0
DWIDTH 22 0
BBX 22 22 0 -2
BITMAP
000000
00FEC0
03FFC0
07C7C0
0F01E0
0E00E0
1E0060
1C0060
1C0000
1C0000
1C1FF8
1C1FF8
1C00E0
1C00E0
1E00E0
0E00E0
0F01E0
07C7E0
03FFE0
00FE60
000000
000000
ENDCHAR

STARTCHAR jisx0208_2348
ENCODING 9032
SWIDTH 960 0
DWIDTH 22 0
BBX 22 22 0 -2
BITMAP
000000
3F83F8
3F83F8
0E00E0
0E00E0
0E00E0
0E00E0
0E00E0
0E00E0
0FFFE0
0FFFE0
0E00E0
0E00E0
0E00E0
0E00E0
0E00E0
0E00E0
0E00E0
3F83F8
3F83F8
000000
000000
ENDCHAR

STARTCHAR jisx0208_2349
ENCODING 9033
SWIDTH 960 0
DWIDTH 22 0
BBX 22 22 0 -2
BITMAP
000000
00FE00
00FE00
003800
003800
003800
003800
003800
003800
003800
003800
003800
003800
003800
003800
003800
003800
003800
00FE00
00FE00
000000
000000
ENDCHAR

STARTCHAR jisx0208_234A
ENCODING 9034
SWIDTH 960 0
DWIDTH 22 0
BBX 22 22 0 -2
BITMAP
000000
001FC0
001FC0
000700
000700
000700
000700
000700
000700
000700
000700
000700
000700
030700
078700
078700
078700
070E00
03FE00
01FC00
000000
000000
ENDCHAR

STARTCHAR jisx0208_234B
ENCODING 9035
SWIDTH 960 0
DWIDTH 22 0
BBX 22 22 0 -2
BITMAP
000000
3F8FE0
3F8FE0
0E0380
0E0F00
0E1E00
0E3C00
0E7800
0EF000
0FF800
0DB800
0FBC00
0F1E00
0E0E00
0E0F00
0E0780
0E0380
0E03C0
3F85F0
3F87F0
000000
000000
ENDCHAR

STARTCHAR jisx0208_234C
ENCODING 9036
SWIDTH 960 0
DWIDTH 22 0
BBX 22 22 0 -2
BITMAP
000000
0FE000
0FE000
038000
038000
038000
038000
038000
038000
038000
038000
038000
038000
038000
038030
038030
038070
0380F0
0FFFE0
0FFFE0
000000
000000
ENDCHAR

STARTCHAR jisx0208_234D
ENCODING 9037
SWIDTH 960 0
DWIDTH 22 0
BBX 22 22 0 -2
BITMAP
000000
7E01F8
7E01F8
1E03E0
1F03E0
1702E0
1706E0
1F86E0
1B86E0
1B8EE0
1BCEE0
19CCE0
19DCE0
19DCE0
18D8E0
18F8E0
18F8E0
1870E0
7E73F8
7E73F8
000000
000000
ENDCHAR

STARTCHAR jisx0208_234E
ENCODING 9038
SWIDTH 960 0
DWIDTH 22 0
BBX 22 22 0 -2
BITMAP
000000
3E01F8
3F01F8
0F8060
0F8060
0BC060
0DE060
0DE060
0CF060
0C7860
0C7C60
0C3C60
0C1E60
0C0F60
0C0F60
0C0760
0C03E0
0C03E0
3F01E0
3F00E0
000000
000000
ENDCHAR

STARTCHAR jisx0208_234F
ENCODING 9039
SWIDTH 960 0
DWIDTH 22 0
BBX 22 22 0 -2
BITMAP
000000
00FE00
03FF80
07C7C0
0F01E0
0E00E0
1E00F0
1C0070
1C0070
1C0070
1C0070
1C0070
1C0070
1C0070
1E00F0
0E00E0
0F01E0
07C7C0
03FF80
00FE00
000000
000000
ENDCHAR

STARTCHAR jisx0208_2350
ENCODING 9040
SWIDTH 960 0
DWIDTH 22 0
BBX 22 22 0 -2
BITMAP
000000
1FFF00
1FFFC0
0703C0
0701E0
0700E0
0700E0
0700E0
0700E0
0701E0
0703C0
07FFC0
07FF00
070000
070000
070000
070000
070000
1FE000
1FE000
000000
000000
ENDCHAR

STARTCHAR jisx0208_2351
ENCODING 9041
SWIDTH 960 0
DWIDTH 22 0
BBX 22 22 0 -2
BITMAP
000000
00FE00
03FF80
07C7C0
0F01E0
0E00E0
1E00F0
1C0070
1C0070
1C0070
1C0070
1C0070
1C0070
1C0070
1EF8F0
0FFEE0
0DDFF8
070FD8
03F7B8
00FDF0
000000
000000
ENDCHAR

STARTCHAR jisx0208_2352
ENCODING 9042
SWIDTH 960 0
DWIDTH 22 0
BBX 22 22 0 -2
BITMAP
000000
3FFE00
3FFF80
0E0780
0E03C0
0E01C0
0E01C0
0E01C0
0E03C0
0E0780
0FFF80
0FFE00
0E0780
0E0380
0E0380
0E0380
0E0398
0E03B8
3F83F8
3F81F0
000000
000000
ENDCHAR

STARTCHAR jisx0208_2353
ENCODING 9043
SWIDTH 960 0
DWIDTH 22 0
BBX 22 22 0 -2
BITMAP
000000
03FD80
0FFF80
0F0F80
1E03C0
1C01C0
1E00C0
1F00C0
0FE000
07FC00
01FF80
003FC0
1807E0
1801E0
1C00E0
1C00E0
0E01E0
0F83C0
0FFFC0
0DFF00
000000
000000
ENDCHAR

STARTCHAR jisx0208_2354
ENCODING 9044
SWIDTH 960 0
DWIDTH 22 0
BBX 22 22 0 -2
BITMAP
000000
0FFFE0
0FFFE0
1E38F0
1C3870
183830
183830
003800
003800
003800
003800
003800
003800
003800
003800
003800
003800
003800
00FE00
00FE00
000000
000000
ENDCHAR

STARTCHAR jisx0208_2355
ENCODING 9045
SWIDTH 960 0
DWIDTH 22 0
BBX 22 22 0 -2
BITMAP
000000
3F81F8
3F81F8
0E0060
0E0060
0E0060
0E0060
0E0060
0E0060
0E0060
0E0060
0E0060
0E0060
0E0060
0E00E0
0F00E0
0701C0
07C7C0
03FF80
00FE00
000000
000000
ENDCHAR

STARTCHAR jisx0208_2356
ENCODING 9046
SWIDTH 960 0
DWIDTH 22 0
BBX 22 22 0 -2
BITMAP
000000
3F81F8
3F81F8
0E0060
0F00E0
0700C0
0701C0
0781C0
038380
03C380
01C300
01C700
01E700
00EE00
00EE00
006C00
007C00
007C00
003800
003800
000000
000000
ENDCHAR

STARTCHAR jisx0208_2357
ENCODING 9047
SWIDTH 960 0
DWIDTH 22 0
BBX 22 22 0 -2
BITMAP
000000
FE187C
FE187C
381818
3C3C38
1C3C38
1C3C30
1C3C30
1E7E70
0E6E70
0E6E60
0E6E60
0EEEE0
06E6E0
06C6C0
07C7C0
07C7C0
038380
038380
038380
000000
000000
ENDCHAR

STARTCHAR jisx0208_2358
ENCODING 9048
SWIDTH 960 0
DWIDTH 22 0
BBX 22 22 0 -2
BITMAP
000000
3FC7F0
3FC7F0
0F01C0
078380
03C700
01EF00
01EE00
00FC00
007C00
007800
00FC00
00DE00
01CF00
03CF00
038780
0703C0
0F03E0
3E85F8
3F87F8
000000
000000
ENDCHAR

STARTCHAR jisx0208_2359
ENCODING 9049
SWIDTH 960 0
DWIDTH 22 0
BBX 22 22 0 -2
BITMAP
000000
1FC3F0
1FC3F0
0700C0
0781C0
038380
03C380
01C700
01E700
00EE00
00EE00
007C00
007C00
003800
003800
003800
003800
003800
00FE00
00FE00
000000
000000
ENDCHAR

STARTCHAR jisx0208_235A
ENCODING 9050
SWIDTH 960 0
DWIDTH 22 0
BBX 22 22 0 -2
BITMAP
000000
07FFC0
07FFC0
0F03C0
0E0780
0C0F00
0C1F00
001E00
003C00
007800
00F800
00F000
01E000
03C000
07C060
078060
0F00E0
1E01E0
1FFFC0
1FFFC0
000000
000000
ENDCHAR

STARTCHAR jisx0208_2361
ENCODING 9057
SWIDTH 960 0
DWIDTH 22 0
BBX 22 22 0 -2
BITMAP
000000
000000
000000
000000
000000
000000
01FE00
03FF00
03C780
03C380
018F80
007F80
01FB80
03E380
078380
070380
0707E0
078F60
03FFE0
01FDC0
000000
000000
ENDCHAR

STARTCHAR jisx0208_2362
ENCODING 9058
SWIDTH 960 0
DWIDTH 22 0
BBX 22 22 0 -2
BITMAP
000000
038000
0F8000
0F8000
038000
038000
03FF00
037FC0
03E3C0
03C1E0
0380E0
0380E0
0380E0
0380E0
0380E0
0380E0
03C1E0
03E3C0
0FFFC0
0F7F00
000000
000000
ENDCHAR

STARTCHAR jisx0208_2363
ENCODING 9059
SWIDTH 960 0
DWIDTH 22 0
BBX 22 22 0 -2
BITMAP
000000
000000
000000
000000
000000
000000
00FF00
03FF80
03C3C0
0781C0
0703C0
0703C0
070180
070000
070000
0700C0
0781C0
03C3C0
03FF80
00FF00
000000
000000
ENDCHAR

STARTCHAR jisx0208_2364
ENCODING 9060
SWIDTH 960 0
DWIDTH 22 0
BBX 22 22 0 -2
BITMAP
000000
000380
000F80
000F80
000380
000380
01FB80
07FF80
078F80
0F0780
0E0380
0E0380
0E0380
0E0380
0E0380
0E0380
0F0780
078F80
07FFE0
01FBE0
000000
000000
ENDCHAR

STARTCHAR jisx0208_2365
ENCODING 9061
SWIDTH 960 0
DWIDTH 22 0
BBX 22 22 0 -2
BITMAP
000000
000000
000000
000000
000000
000000
00FE00
03FF80
03C780
0783C0
0701C0
0701C0
07FFC0
07FFC0
070000
0700C0
0781C0
03C3C0
03FF80
00FF00
000000
000000
ENDCHAR

STARTCHAR jisx0208_2366
ENCODING 9062
SWIDTH 960 0
DWIDTH 22 0
BBX 22 22 0 -2
BITMAP
000000
003F00
007F80
007780
007780
007300
03FC00
03FE00
007000
007000
007000
007000
007000
007000
007000
007000
007000
007000
01FC00
01FC00
000000
000000
ENDCHAR

STARTCHAR jisx0208_2367
ENCODING 9063
SWIDTH 960 0
DWIDTH 22 0
BBX 22 22 0 -2
BITMAP
000000
000000
000000
000000
000000
000000
00FBC0
01FFE0
03CEE0
0387E0
038700
038700
03CF00
01FE00
03FC00
038200
01FF80
07FFC0
0703C0
0601C0
07FF80
03FF00
ENDCHAR

STARTCHAR jisx0208_2368
ENCODING 9064
SWIDTH 960 0
DWIDTH 22 0
BBX 22 22 0 -2
BITMAP
000000
070000
1F0000
1F0000
070000
070000
07FE00
06FF00
07C780
078380
070380
070380
070380
070380
070380
070380
070380
070380
1FCFE0
1FCFE0
000000
000000
ENDCHAR

STARTCHAR jisx0208_2369
ENCODING 9065
SWIDTH 960 0
DWIDTH 22 0
BBX 22 22 0 -2
BITMAP
000000
003800
007C00
007C00
003800
000000
003800
00F800
00F800
003800
003800
003800
003800
003800
003800
003800
003800
003800
00FE00
00FE00
000000
000000
ENDCHAR

STARTCHAR jisx0208_236A
ENCODING 9066
SWIDTH 960 0
DWIDTH 22 0
BBX 22 22 0 -2
BITMAP
000000
001C00
003E00
003E00
001C00
000000
001C00
007C00
007C00
001C00
001C00
001C00
001C00
001C00
001C00
001C00
001C00
019C00
03DC00
03FC00
03B800
01F000
ENDCHAR

STARTCHAR jisx0208_236B
ENCODING 9067
SWIDTH 960 0
DWIDTH 22 0
BBX 22 22 0 -2
BITMAP
000000
038000
0F8000
0F8000
038000
038000
039FC0
039FC0
038700
039E00
03BC00
03F800
037C00
03DC00
03DE00
038F00
038700
038780
0FEBE0
0FEFE0
000000
000000
ENDCHAR

STARTCHAR jisx0208_236C
ENCODING 9068
SWIDTH 960 0
DWIDTH 22 0
BBX 22 22 0 -2
BITMAP
000000
003800
00F800
00F800
003800
003800
003800
003800
003800
003800
003800
003800
003800
003800
003800
003800
003800
003800
00FE00
00FE00
000000
000000
ENDCHAR

STARTCHAR jisx0208_236D
ENCODING 9069
SWIDTH 960 0
DWIDTH 22 0
BBX 22 22 0 -2
BITMAP
000000
000000
000000
000000
000000
000000
1BE7C0
7FEFE0
7F7EF0
1E3C70
1C3870
1C3870
1C3870
1C3870
1C3870
1C3870
1C3870
1C3870
7EFDFC
7EFDFC
000000
000000
ENDCHAR

STARTCHAR jisx0208_236E
ENCODING 9070
SWIDTH 960 0
DWIDTH 22 0
BBX 22 22 0 -2
BITMAP
000000
000000
000000
000000
000000
000000
06FE00
1FFF00
1FC780
078380
070380
070380
070380
070380
070380
070380
070380
070380
1FCFE0
1FCFE0
000000
000000
ENDCHAR

STARTCHAR jisx0208_236F
ENCODING 9071
SWIDTH 960 0
DWIDTH 22 0
BBX 22 22 0 -2
BITMAP
000000
000000
000000
000000
000000
000000
00FE00
03FF80
03C780
0783C0
0701C0
0701C0
0701C0
0701C0
0701C0
0701C0
0783C0
03C780
03FF80
00FE00
000000
000000
ENDCHAR

STARTCHAR jisx0208_2370
ENCODING 9072
SWIDTH 960 0
DWIDTH 22 0
BBX 22 22 0 -2
BITMAP
000000
000000
000000
000000
000000
000000
037F00
0FFFC0
0FE3C0
03C1E0
0380E0
0380E0
0380E0
0380E0
0380E0
03C1E0
03E3C0
03FFC0
037F00
038000
0FE000
0FE000
ENDCHAR

STARTCHAR jisx0208_2371
ENCODING 9073
SWIDTH 960 0
DWIDTH 22 0
BBX 22 22 0 -2
BITMAP
000000
000000
000000
000000
000000
000000
01FD80
07FF80
078F80
0F0780
0E0380
0E0380
0E0380
0E0380
0E0380
0F0780
078F80
07FF80
01FB80
000380
000FE0
000FE0
ENDCHAR

STARTCHAR jisx0208_2372
ENCODING 9074
SWIDTH 960 0
DWIDTH 22 0
BBX 22 22 0 -2
BITMAP
000000
000000
000000
000000
000000
000000
00EF00
03FF80
03DF80
00F780
00F300
00E000
00E000
00E000
00E000
00E000
00E000
00E000
03F800
03F800
000000
000000
ENDCHAR

STARTCHAR jisx0208_2373
ENCODING 9075
SWIDTH 960 0
DWIDTH 22 0
BBX 22 22 0 -2
BITMAP
000000
000000
000000
000000
000000
000000
01FB00
03FF00
078F00
070700
078300
07F300
03FC00
00FF00
061F80
060780
070380
07C780
07FF00
06FE00
000000
000000
ENDCHAR

STARTCHAR jisx0208_2374
ENCODING 9076
SWIDTH 960 0
DWIDTH 22 0
BBX 22 22 0 -2
BITMAP
000000
003000
007000
007000
007000
007000
01FE00
01FE00
007000
007000
007000
007000
007000
007000
007000
007000
007300
007700
007F00
003E00
000000
000000
ENDCHAR

STARTCHAR jisx0208_2375
ENCODING 9077
SWIDTH 960 0
DWIDTH 22 0
BBX 22 22 0 -2
BITMAP
000000
000000
000000
000000
000000
000000
070380
1F0F80
1F0F80
070380
070380
070380
070380
070380
070380
070380
070780
078F80
03FFE0
01FBE0
000000
000000
ENDCHAR

STARTCHAR jisx0208_2376
ENCODING 9078
SWIDTH 960 0
DWIDTH 22 0
BBX 22 22 0 -2
BITMAP
000000
000000
000000
000000
000000
000000
1FE7F0
1FE7F0
0781C0
038380
03C380
01C300
01C700
01E700
00EE00
00EE00
007C00
007C00
003800
003800
000000
000000
ENDCHAR

STARTCHAR jisx0208_2377
ENCODING 9079
SWIDTH 960 0
DWIDTH 22 0
BBX 22 22 0 -2
BITMAP
000000
000000
000000
000000
000000
000000
7F39F8
7F39F8
1C3860
1C78E0
1E7CE0
0E5CC0
0EDDC0
0EDDC0
06CD80
07CF80
07CF80
038700
038700
038700
000000
000000
ENDCHAR

STARTCHAR jisx0208_2378
ENCODING 9080
SWIDTH 960 0
DWIDTH 22 0
BBX 22 22 0 -2
BITMAP
000000
000000
000000
000000
000000
000000
1FDFC0
1FDFC0
078700
03CE00
01DC00
00FC00
00F800
007C00
00FC00
01DE00
03CF00
078F80
1F57E0
1FDFE0
000000
000000
ENDCHAR

STARTCHAR jisx0208_2379
ENCODING 9081
SWIDTH 960 0
DWIDTH 22 0
BBX 22 22 0 -2
BITMAP
000000
000000
000000
000000
000000
000000
0FE7E0
0FE7E0
038180
03C380
01C700
01E700
00EE00
00EE00
007C00
007C00
003800
033800
077000
07F000
07E000
03C000
ENDCHAR

STARTCHAR jisx0208_237A
ENCODING 9082
SWIDTH 960 0
DWIDTH 22 0
BBX 22 22 0 -2
BITMAP
000000
000000
000000
000000
000000
000000
03FF80
03FF80
038780
031F00
031E00
003C00
007800
00F800
00F000
01E180
03C180
07C380
07BF80
07FF80
000000
000000
ENDCHAR

STARTCHAR jisx0208_2421
ENCODING 9249
SWIDTH 960 0
DWIDTH 22 0
BBX 22 22 0 -2
BITMAP
000000
000000
000000
000000
01E000
01F000
00FE00
066E00
07FE00
03F800
00EE00
01FF80
03EFC0
07FDE0
0EDCE0
0EF8E0
1CF8E0
1C70E0
1FF1E0
1FB7C0
0F0F80
001E00
ENDCHAR

STARTCHAR jisx0208_2422
ENCODING 9250
SWIDTH 960 0
DWIDTH 22 0
BBX 22 22 0 -2
BITMAP
01F800
007800
007700
0E6F00
0FDF00
07FC00
00E200
00FFC0
03FFF0
07E6F8
0EEE3C
1EEE3C
3CFC1C
38DC1C
78F81C
70703C
71F83C
7FB878
3F80F0
1E03E0
001FC0
001F00
ENDCHAR

STARTCHAR jisx0208_2423
ENCODING 9251
SWIDTH 960 0
DWIDTH 22 0
BBX 22 22 0 -2
BITMAP
000000
000000
000000
000000
000000
000000
0E0000
0F0000
070300
0703C0
0F01E0
0E00E0
0E0070
0E0070
0E63F0
0E63F0
0EE070
07C000
07C000
03C000
01C000
000000
ENDCHAR

STARTCHAR jisx0208_2424
ENCODING 9252
SWIDTH 960 0
DWIDTH 22 0
BBX 22 22 0 -2
BITMAP
000000
600000
700000
780000
380300
3803C0
7801E0
7000F0
700078
700038
70003C
70C01C
71C01C
7381FC
7B81FC
7F003C
370018
3E0000
1F0000
0F0000
070000
000000
ENDCHAR

STARTCHAR jisx0208_2425
ENCODING 9253
SWIDTH 960 0
DWIDTH 22 0
BBX 22 22 0 -2
BITMAP
000000
000000
000000
000000
00E000
00FE00
007E00
001E00
007000
060F00
07FF80
07E3C0
0381C0
0001C0
0001C0
0003C0
000380
000780
000F00
003E00
00FC00
00F000
ENDCHAR

STARTCHAR jisx0208_2426
ENCODING 9254
SWIDTH 960 0
DWIDTH 22 0
BBX 22 22 0 -2
BITMAP
01C600
01FF00
00FF00
017F00
01C000
003F80
18FFE0
1FF1E0
1FC0F0
0F0070
060070
000070
000070
0000F0
0000E0
0001E0
0003C0
000780
000F00
003E00
00FC00
00F000
ENDCHAR

STARTCHAR jisx0208_2427
ENCODING 9255
SWIDTH 960 0
DWIDTH 22 0
BBX 22 22 0 -2
BITMAP
000000
000000
000000
000000
01C000
01FC00
00FC00
007C00
00C200
033F00
03FF00
03EE00
039C00
007800
00F000
01FC00
03DC00
079CC0
0F1FE0
0F1FE0
0E0FE0
000000
ENDCHAR

STARTCHAR jisx0208_2428
ENCODING 9256
SWIDTH 960 0
DWIDTH 22 0
BBX 22 22 0 -2
BITMAP
01CC00
01FE00
00FE00
007E00
00C100
0C3F80
0FFF80
0FE780
079E00
033C00
007800
00F000
01E800
03FC00
079C00
0F1C00
1E1C00
3C1C30
3C1FF8
381FF8
380FF8
000000
ENDCHAR

STARTCHAR jisx0208_2429
ENCODING 9257
SWIDTH 960 0
DWIDTH 22 0
BBX 22 22 0 -2
BITMAP
000000
000000
000000
000000
000000
078000
07C000
03C000
03B780
1BFFE0
1FF9E0
0FE2E0
039D00
03FFC0
03F1E0
17C0E0
1F80E0
1F80E0
1BB9E0
07BFC0
039F80
030000
ENDCHAR

STARTCHAR jisx0208_242A
ENCODING 9258
SWIDTH 960 0
DWIDTH 22 0
BBX 22 22 0 -2
BITMAP
0F8000
0FC000
03C000
0381E0
03BDF8
73FC7C
7FFCBC
3FE0FC
071F1C
077FE0
07F878
07E03C
6F801C
7F001C
5F001C
77301C
77383C
1F3FF8
0F1FF8
0707E0
070000
060000
ENDCHAR

STARTCHAR jisx0208_242B
ENCODING 9259
SWIDTH 960 0
DWIDTH 22 0
BBX 22 22 0 -2
BITMAP
03C000
01E000
01E000
01C000
018180
63FDE0
7FFEF0
7F8E78
7B0E3C
370E1C
060E1C
0E0E0C
0E0E3C
1C1E7C
1C1C6C
3C1C00
3B3C00
7BF800
79F800
70F000
70E000
000000
ENDCHAR

STARTCHAR jisx0208_242C
ENCODING 9260
SWIDTH 960 0
DWIDTH 22 0
BBX 22 22 0 -2
BITMAP
03C01C
01E01C
01E06C
01C074
0181B8
63FDD8
7FFEE0
7F8E78
7B0E3C
370E1C
060E1C
0E0E0C
0E0E3C
1C1E7C
1C1C6C
3C1C00
3B3C00
7BF800
79F800
70F000
70E000
000000
ENDCHAR

STARTCHAR jisx0208_242D
ENCODING 9261
SWIDTH 960 0
DWIDTH 22 0
BBX 22 22 0 -2
BITMAP
00F800
007800
0039C0
0E1FC0
0FF7C0
07FF00
01FC70
1C0FF0
1FF5F0
0FFFC0
03FF00
000380
01FFC0
07FDE0
0F87E0
0E01E0
0E00E0
0E0000
0F8300
07FF80
03FF80
00FF80
ENDCHAR

STARTCHAR jisx0208_242E
ENCODING 9262
SWIDTH 960 0
DWIDTH 22 0
BBX 22 22 0 -2
BITMAP
00F87C
00786C
0039B4
0E1FD8
0FF7C0
07FF00
01FC70
1C0FF0
1FF5F0
0FFFC0
03FF00
000380
01FFC0
07FDE0
0F87E0
0E01E0
0E00E0
0E0000
0F8300
07FF80
03FF80
00FF80
ENDCHAR

STARTCHAR jisx0208_242F
ENCODING 9263
SWIDTH 960 0
DWIDTH 22 0
BBX 22 22 0 -2
BITMAP
003C00
001E00
003E00
003C00
007800
00F000
01E000
03C000
078000
070000
060000
078000
03C000
01E000
00F000
007800
003C00
001E00
000F00
000F00
000700
000700
ENDCHAR

STARTCHAR jisx0208_2430
ENCODING 9264
SWIDTH 960 0
DWIDTH 22 0
BBX 22 22 0 -2
BITMAP
003C00
001E00
003E00
003CE0
0078F0
00F370
01E3B0
03C1C0
0780C0
070000
060000
078000
03C000
01E000
00F000
007800
003C00
001E00
000F00
000F00
000700
000700
ENDCHAR

STARTCHAR jisx0208_2431
ENCODING 9265
SWIDTH 960 0
DWIDTH 22 0
BBX 22 22 0 -2
BITMAP
0003E0
3803F0
3C00F0
1E00E0
1E00EC
1C70FC
3C7FFC
383FF8
380FE0
3800E0
3800E0
3800E0
3B00E0
3B00E0
3F00E0
3600E0
3E01E0
3C01C0
1E03C0
1E0F80
0E3F00
003C00
ENDCHAR

STARTCHAR jisx0208_2432
ENCODING 9266
SWIDTH 960 0
DWIDTH 22 0
BBX 22 22 0 -2
BITMAP
0003DC
3803EC
3C00F4
1E00DC
1E00EC
1C70FC
3C7FFC
383FF8
380FE0
3800E0
3800E0
3800E0
3B00E0
3B00E0
3F00E0
3600E0
3E01E0
3C01C0
1E03C0
1E0F80
0E3F00
003C00
ENDCHAR

STARTCHAR jisx0208_2433
ENCODING 9267
SWIDTH 960 0
DWIDTH 22 0
BBX 22 22 0 -2
BITMAP
000000
060000
078300
03FF80
01FF80
007F80
01E000
038000
030000
000000
000000
000000
000000
180000
180000
180000
1C0060
1F01F0
0FFFF0
07FFF0
01FF80
000000
ENDCHAR

STARTCHAR jisx0208_2434
ENCODING 9268
SWIDTH 960 0
DWIDTH 22 0
BBX 22 22 0 -2
BITMAP
00001C
06006C
078374
03FFB8
01FF98
007F80
01E000
038000
030000
000000
000000
000000
000000
180000
180000
180000
1C0060
1F01F0
0FFFF0
07FFF0
01FF80
000000
ENDCHAR

STARTCHAR jisx0208_2435
ENCODING 9269
SWIDTH 960 0
DWIDTH 22 0
BBX 22 22 0 -2
BITMAP
00F800
007800
003800
001C70
381DF0
3FEFF0
1FFFC0
07FE00
000700
000700
000380
03FFC0
0FFDE0
1F07E0
1C01E0
1C00E0
1C0000
1C0000
1F0300
0FFF80
07FF80
01FF80
ENDCHAR

STARTCHAR jisx0208_2436
ENCODING 9270
SWIDTH 960 0
DWIDTH 22 0
BBX 22 22 0 -2
BITMAP
00F81C
00782C
003834
001C5C
381DEC
3FEFF0
1FFFC0
07FE00
000700
000700
000380
03FFC0
0FFDE0
1F07E0
1C01E0
1C00E0
1C0000
1C0000
1F0300
0FFF80
07FF80
01FF80
ENDCHAR

STARTCHAR jisx0208_2437
ENCODING 9271
SWIDTH 960 0
DWIDTH 22 0
BBX 22 22 0 -2
BITMAP
1F0000
1F8000
078000
070000
070000
070000
070000
070000
070000
0F0000
0E0000
0E0000
0E0018
0E0018
0E0038
0E0070
0E00F0
0F01E0
0787C0
07FF80
03FF00
00FC00
ENDCHAR

STARTCHAR jisx0208_2438
ENCODING 9272
SWIDTH 960 0
DWIDTH 22 0
BBX 22 22 0 -2
BITMAP
1F0000
1F80E0
0780F0
070370
0703B0
0701C0
0700C0
070000
070000
0F0000
0E0000
0E0000
0E0018
0E0018
0E0038
0E0070
0E00F0
0F01E0
0787C0
07FF80
03FF00
00FC00
ENDCHAR

STARTCHAR jisx0208_2439
ENCODING 9273
SWIDTH 960 0
DWIDTH 22 0
BBX 22 22 0 -2
BITMAP
007E00
001E00
001C00
001C78
C1FFFC
FFFFFC
FF9C1C
781C00
01FC00
03FC00
03BE00
031E00
031E00
03BE00
03FE00
01EE00
001E00
001C00
003C00
00F800
03F000
03C000
ENDCHAR

STARTCHAR jisx0208_243A
ENCODING 9274
SWIDTH 960 0
DWIDTH 22 0
BBX 22 22 0 -2
BITMAP
007E7C
001E6C
001C34
001C58
C1FFFC
FFFFFC
FF9C1C
781C00
01FC00
03FC00
03BE00
031E00
031E00
03BE00
03FE00
01EE00
001E00
001C00
003C00
00F800
03F000
03C000
ENDCHAR

STARTCHAR jisx0208_243B
ENCODING 9275
SWIDTH 960 0
DWIDTH 22 0
BBX 22 22 0 -2
BITMAP
000F80
1F0FC0
1F83C0
078380
070380
0703BC
071FFC
C7FFFC
FFFB8C
FF0380
F70380
671B80
071F80
070F80
070700
070600
070000
0701E0
07FFE0
03FFE0
01FF00
000000
ENDCHAR

STARTCHAR jisx0208_243C
ENCODING 9276
SWIDTH 960 0
DWIDTH 22 0
BBX 22 22 0 -2
BITMAP
000F9C
1F0FEC
1F83F4
0783B8
070398
0703A4
071FFC
C7FFFC
FFFB8C
FF0380
F70380
671B80
071F80
070F80
070700
070600
070000
0701E0
07FFE0
03FFE0
01FF00
000000
ENDCHAR

STARTCHAR jisx0208_243D
ENCODING 9277
SWIDTH 960 0
DWIDTH 22 0
BBX 22 22 0 -2
BITMAP
000700
0E7F80
0FFF80
07E780
039E00
007C00
01F000
03E078
0F87FC
1F7FFC
7CFE1C
7FB800
7C7000
31E000
01C000
01C000
01C000
01E000
01F180
00FFC0
007FC0
001FC0
ENDCHAR

STARTCHAR jisx0208_243E
ENCODING 9278
SWIDTH 960 0
DWIDTH 22 0
BBX 22 22 0 -2
BITMAP
00071C
0E7F9C
0FFFEC
07E774
039E38
007C18
01F000
03E078
0F87FC
1F7FFC
7CFE1C
7FB800
7C7000
31E000
01C000
01C000
01C000
01E000
01F180
00FFC0
007FC0
001FC0
ENDCHAR

STARTCHAR jisx0208_243F
ENCODING 9279
SWIDTH 960 0
DWIDTH 22 0
BBX 22 22 0 -2
BITMAP
1F0000
1F8000
078000
077000
76F000
7DF000
3FC860
061FF0
0E0FF0
0E03F0
0C0F00
1C0C00
1C0000
1C0000
386000
386000
386000
787030
707FF8
703FF8
701FF8
000000
ENDCHAR

STARTCHAR jisx0208_2440
ENCODING 9280
SWIDTH 960 0
DWIDTH 22 0
BBX 22 22 0 -2
BITMAP
1F0038
1F803C
0780DC
0770EC
76F070
7DF030
3FC840
061FF0
0E0FF0
0E03F0
0C0F00
1C0C00
1C0000
1C0000
386000
386000
386000
787030
707FF8
703FF8
701FF8
000000
ENDCHAR

STARTCHAR jisx0208_2441
ENCODING 9281
SWIDTH 960 0
DWIDTH 22 0
BBX 22 22 0 -2
BITMAP
03C000
01E000
01E380
39DF80
3FBF80
1FFE00
0FF000
030000
030000
073FC0
07FFF0
06F0F0
0DC078
0F8038
0F0038
0E0038
000078
0000F0
0001F0
000FE0
007F80
007C00
ENDCHAR

STARTCHAR jisx0208_2442
ENCODING 9282
SWIDTH 960 0
DWIDTH 22 0
BBX 22 22 0 -2
BITMAP
03C03C
01E0DC
01E3EC
39DF70
3FBFB0
1FFE00
0FF000
030000
030000
073FC0
07FFF0
06F0F0
0DC078
0F8038
0F0038
0E0038
000078
0000F0
0001F0
000FE0
007F80
007C00
ENDCHAR

STARTCHAR jisx0208_2443
ENCODING 9283
SWIDTH 960 0
DWIDTH 22 0
BBX 22 22 0 -2
BITMAP
000000
000000
000000
000000
000000
000000
000000
003F80
19FFE0
1FF1E0
1F80F0
1E0070
0C0070
000070
0000F0
0000E0
0001E0
0007C0
007F80
007C00
000000
000000
ENDCHAR

STARTCHAR jisx0208_2444
ENCODING 9284
SWIDTH 960 0
DWIDTH 22 0
BBX 22 22 0 -2
BITMAP
000000
000000
000000
000000
003FF0
C3FFFC
FFF03C
FF801C
7C000C
30000C
00000C
00000C
00001C
00001C
00003C
000078
0001F0
000FE0
007F80
007C00
000000
000000
ENDCHAR

STARTCHAR jisx0208_2445
ENCODING 9285
SWIDTH 960 0
DWIDTH 22 0
BBX 22 22 0 -2
BITMAP
00001C
00006C
000074
000038
003FD8
C3FFF4
FFF03C
FF801C
7C000C
30000C
00000C
00000C
00001C
00001C
00003C
000078
0001F0
000FE0
007F80
007C00
000000
000000
ENDCHAR

STARTCHAR jisx0208_2446
ENCODING 9286
SWIDTH 960 0
DWIDTH 22 0
BBX 22 22 0 -2
BITMAP
000000
0000F8
001FFC
61FFFC
7FF79C
7F8E00
3E3C00
187800
00F000
00E000
01E000
01C000
01C000
01C000
01C000
01E000
00E000
00F8C0
007FE0
003FE0
000FE0
000000
ENDCHAR

STARTCHAR jisx0208_2447
ENCODING 9287
SWIDTH 960 0
DWIDTH 22 0
BBX 22 22 0 -2
BITMAP
000000
0000F8
001FFC
61FFFC
7FF79C
7F8E20
3E3C3C
1878DC
00F0EC
00E070
01E030
01C000
01C000
01C000
01C000
01E000
00E000
00F8C0
007FE0
003FE0
000FE0
000000
ENDCHAR

STARTCHAR jisx0208_2448
ENCODING 9288
SWIDTH 960 0
DWIDTH 22 0
BBX 22 22 0 -2
BITMAP
03F000
00F000
00E000
00E000
00E000
00E0C0
00E3E0
00EFE0
00FFE0
007E00
03F000
07C000
0F0000
1E0000
1C0000
1C0000
1C0060
1F01F0
0FFFF0
07FFF0
01FF80
000000
ENDCHAR

STARTCHAR jisx0208_2449
ENCODING 9289
SWIDTH 960 0
DWIDTH 22 0
BBX 22 22 0 -2
BITMAP
03F01C
00F01C
00E06C
00E074
00E038
00E0D8
00E3E0
00EFE0
00FFE0
007E00
03F000
07C000
0F0000
1E0000
1C0000
1C0000
1C0060
1F01F0
0FFFF0
07FFF0
01FF80
000000
ENDCHAR

STARTCHAR jisx0208_244A
ENCODING 9290
SWIDTH 960 0
DWIDTH 22 0
BBX 22 22 0 -2
BITMAP
0F8000
0FC000
03C000
03B800
737800
7EFBE0
3FE3F8
06007C
0E03FC
0E039C
0E0300
1C0300
1C0300
3C0380
38FF80
79FFC0
79C3F0
7183F8
71C37C
01FFBC
00FF1C
003E00
ENDCHAR

STARTCHAR jisx0208_244B
ENCODING 9291
SWIDTH 960 0
DWIDTH 22 0
BBX 22 22 0 -2
BITMAP
380000
3C0000
1E7030
1E7FF8
1C3FF8
1C0FF8
3C1E00
383800
383000
380000
380000
380000
3B0000
3B6000
3F6000
366000
3E7018
3C7FFC
1E3FFC
1E1FFC
0E0000
000000
ENDCHAR

STARTCHAR jisx0208_244C
ENCODING 9292
SWIDTH 960 0
DWIDTH 22 0
BBX 22 22 0 -2
BITMAP
00F800
00FC00
003C00
003800
787F80
7DFFE0
3FF9F0
1BB078
0F7038
1E703C
1E601C
36E01C
36E01C
76E01C
77CFDC
73DFFC
739C78
77D83C
7EDFFC
7E0FEC
3C07E0
000000
ENDCHAR

STARTCHAR jisx0208_244D
ENCODING 9293
SWIDTH 960 0
DWIDTH 22 0
BBX 22 22 0 -2
BITMAP
1F0000
1F8000
078000
070000
070FE0
67BFF8
7FFC78
7F703C
76E01C
07C01C
0F801C
0F001C
1F001C
1F001C
370FDC
771FFC
771C78
7F183C
6F1FFC
070FEC
0707C0
060000
ENDCHAR

STARTCHAR jisx0208_244E
ENCODING 9294
SWIDTH 960 0
DWIDTH 22 0
BBX 22 22 0 -2
BITMAP
000000
000000
00FF00
03FFC0
07B3E0
0F38F0
1E3878
3C3838
38303C
78701C
70701C
70701C
70601C
70E01C
70E03C
79C038
39C078
3F80F0
1F83E0
0F0FC0
000F00
000000
ENDCHAR

STARTCHAR jisx0208_244F
ENCODING 9295
SWIDTH 960 0
DWIDTH 22 0
BBX 22 22 0 -2
BITMAP
7007C0
7807E0
3C01E0
3C01DC
38E1FC
38FFFC
787FF0
701FC0
7001C0
7001C0
7001C0
7001C0
7601C0
767FC0
7EFFE0
6CE1F0
7CC1F8
78E1BC
3CFFBC
3C7F9C
1C3F00
000000
ENDCHAR

STARTCHAR jisx0208_2450
ENCODING 9296
SWIDTH 960 0
DWIDTH 22 0
BBX 22 22 0 -2
BITMAP
7007FC
7807EC
3C01B4
3C01D8
38E1FC
38FFFC
787FF0
701FC0
7001C0
7001C0
7001C0
7001C0
7601C0
767FC0
7EFFE0
6CE1F0
7CC1F8
78E1BC
3CFFBC
3C7F9C
1C3F00
000000
ENDCHAR

STARTCHAR jisx0208_2451
ENCODING 9297
SWIDTH 960 0
DWIDTH 22 0
BBX 22 22 0 -2
BITMAP
7007FC
7807E4
3C01E4
3C01FC
38E1BC
38FFFC
787FF0
701FC0
7001C0
7001C0
7001C0
7001C0
7601C0
767FC0
7EFFE0
6CE1F0
7CC1F8
78E1BC
3CFFBC
3C7F9C
1C3F00
000000
ENDCHAR

STARTCHAR jisx0208_2452
ENCODING 9298
SWIDTH 960 0
DWIDTH 22 0
BBX 22 22 0 -2
BITMAP
000000
3871C0
3FF1C0
1FF1C0
0FC1E0
0380E0
0F00F0
0E00F8
1C00BC
1C00FC
3800DC
3800CC
3800C0
3801C0
3801C0
380380
3C0780
1E1F00
1FFE00
0FFC00
03F000
000000
ENDCHAR

STARTCHAR jisx0208_2453
ENCODING 9299
SWIDTH 960 0
DWIDTH 22 0
BBX 22 22 0 -2
BITMAP
00001C
3871DC
3FF1EC
1FF1B4
0FC1DC
0380EC
0F00F0
0E00F8
1C00BC
1C00FC
3800DC
3800CC
3800C0
3801C0
3801C0
380380
3C0780
1E1F00
1FFE00
0FFC00
03F000
000000
ENDCHAR

STARTCHAR jisx0208_2454
ENCODING 9300
SWIDTH 960 0
DWIDTH 22 0
BBX 22 22 0 -2
BITMAP
00007C
3871E4
3FF1E4
1FF1FC
0FC1BC
0380E0
0F00F0
0E00F8
1C00BC
1C00FC
3800DC
3800CC
3800C0
3801C0
3801C0
380380
3C0780
1E1F00
1FFE00
0FFC00
03F000
000000
ENDCHAR

STARTCHAR jisx0208_2455
ENCODING 9301
SWIDTH 960 0
DWIDTH 22 0
BBX 22 22 0 -2
BITMAP
01C000
01E000
00F800
007F00
003F00
007F00
00F000
00E000
00C000
00E000
00F000
007800
003DC0
031FF0
6F0E78
FE0E3C
DC0E5C
FF1EFC
F7FEDC
63FC00
00F800
000000
ENDCHAR

STARTCHAR jisx0208_2456
ENCODING 9302
SWIDTH 960 0
DWIDTH 22 0
BBX 22 22 0 -2
BITMAP
01C000
01E01C
00F81C
007F6C
003F74
007F38
00F018
00E000
00C000
00E000
00F000
007800
003DC0
031FF0
6F0E78
FE0E3C
DC0E5C
FF1EFC
F7FEDC
63FC00
00F800
000000
ENDCHAR

STARTCHAR jisx0208_2457
ENCODING 9303
SWIDTH 960 0
DWIDTH 22 0
BBX 22 22 0 -2
BITMAP
01C078
01E0FC
00F8CC
007ECC
003FFC
007F78
00F000
00E000
00C000
00E000
00F000
007800
003DC0
031FF0
6F0E78
FE0E3C
DC0E5C
FF1EFC
F7FEDC
63FC00
00F800
000000
ENDCHAR

STARTCHAR jisx0208_2458
ENCODING 9304
SWIDTH 960 0
DWIDTH 22 0
BBX 22 22 0 -2
BITMAP
000000
000000
000000
000000
000000
01E000
03F000
07F800
0F3C00
DE1E00
FC0F00
FC07C0
7803E0
3001F8
0000FC
00007C
00001C
00000C
000000
000000
000000
000000
ENDCHAR

STARTCHAR jisx0208_2459
ENCODING 9305
SWIDTH 960 0
DWIDTH 22 0
BBX 22 22 0 -2
BITMAP
000000
000000
000070
000078
0001B8
01E1D8
03F0E0
07F860
0F3C00
DE1E00
FC0F00
FC07C0
7803E0
3001F8
0000FC
00007C
00001C
00000C
000000
000000
000000
000000
ENDCHAR

STARTCHAR jisx0208_245A
ENCODING 9306
SWIDTH 960 0
DWIDTH 22 0
BBX 22 22 0 -2
BITMAP
000000
000000
0001E0
0003F0
000330
01E330
03F3F0
07F9E0
0F3C00
DE1E00
FC0F00
FC07C0
7803E0
3001F8
0000FC
00007C
00001C
00000C
000000
000000
000000
000000
ENDCHAR

STARTCHAR jisx0208_245B
ENCODING 9307
SWIDTH 960 0
DWIDTH 22 0
BBX 22 22 0 -2
BITMAP
700000
78E078
3CFFF8
3C7FF8
383FC0
3801F0
78E1BC
70FFDC
707FFC
703FF0
7001C0
7001C0
7601C0
767FC0
7EFFE0
6CE1F0
7CC1F8
78E1BC
3CFFBC
3C7F9C
1C3F00
000000
ENDCHAR

STARTCHAR jisx0208_245C
ENCODING 9308
SWIDTH 960 0
DWIDTH 22 0
BBX 22 22 0 -2
BITMAP
70001C
78E0EC
3CFFF4
3C7FDC
383FEC
3801F0
78E1BC
70FFDC
707FFC
703FF0
7001C0
7001C0
7601C0
767FC0
7EFFE0
6CE1F0
7CC1F8
78E1BC
3CFFBC
3C7F9C
1C3F00
000000
ENDCHAR

STARTCHAR jisx0208_245D
ENCODING 9309
SWIDTH 960 0
DWIDTH 22 0
BBX 22 22 0 -2
BITMAP
70007C
78E0E4
3CFFE4
3C7FFC
383FBC
3801E0
78E1BC
70FFDC
707FFC
703FF0
7001C0
7001C0
7601C0
767FC0
7EFFE0
6CE1F0
7CC1F8
78E1BC
3CFFBC
3C7F9C
1C3F00
000000
ENDCHAR

STARTCHAR jisx0208_245E
ENCODING 9310
SWIDTH 960 0
DWIDTH 22 0
BBX 22 22 0 -2
BITMAP
00FC00
003C00
003870
703BF0
7FFFF0
3FFFC0
0FFE00
003870
383BF0
3FFFF0
1FFFC0
07FE00
003800
003800
0FF800
1FFE00
3C3F80
3837E0
3C79F0
1FF8F0
0FF070
03E000
ENDCHAR

STARTCHAR jisx0208_245F
ENCODING 9311
SWIDTH 960 0
DWIDTH 22 0
BBX 22 22 0 -2
BITMAP
000C00
0E7E00
0FFE00
07DE00
039C00
003C00
003800
0038E0
0070F0
007078
07EC78
1FFF70
3ECFF0
39C1FC
73807C
7380FC
7700EC
7F01E0
7E03C0
3C0F80
001F00
001C00
ENDCHAR

STARTCHAR jisx0208_2460
ENCODING 9312
SWIDTH 960 0
DWIDTH 22 0
BBX 22 22 0 -2
BITMAP
0FC000
03C000
03B800
73F800
7EFBC0
3FE3F0
0300F8
1F003C
3F805C
7B80FC
7380DC
770000
7700C0
7E00C0
3E00C0
0C00C0
1C00E0
1C01F0
1FFFF0
0FFFE0
07FF80
000000
ENDCHAR

STARTCHAR jisx0208_2461
ENCODING 9313
SWIDTH 960 0
DWIDTH 22 0
BBX 22 22 0 -2
BITMAP
007C00
007E00
001E00
781C00
7CFF80
3FFFE0
1BDDF0
0F1878
1E3838
1E383C
37301C
37701C
73701C
73E01C
73E03C
71C038
73E078
7F60F0
7F03E0
3C0FC0
000F00
000000
ENDCHAR

STARTCHAR jisx0208_2462
ENCODING 9314
SWIDTH 960 0
DWIDTH 22 0
BBX 22 22 0 -2
BITMAP
01E000
00F000
00F000
30E000
3CD000
1FB800
0FF800
07F800
3D8000
338300
3B9B80
3F7DC0
1FFCE0
07FCE0
070070
070070
070070
070070
0780F0
03FFE0
03FFE0
00FF80
ENDCHAR

STARTCHAR jisx0208_2463
ENCODING 9315
SWIDTH 960 0
DWIDTH 22 0
BBX 22 22 0 -2
BITMAP
000000
000000
000000
000000
007800
007C00
039E00
07BFC0
070FE0
07FCF0
1AF070
1FC070
1F8070
1DCEF0
0DCFE0
00E7C0
00E000
00E000
007000
007000
007000
007000
ENDCHAR

STARTCHAR jisx0208_2464
ENCODING 9316
SWIDTH 960 0
DWIDTH 22 0
BBX 22 22 0 -2
BITMAP
007800
077E00
0F1F00
1E7FE0
1E07F8
0EFE78
0FF03C
D7C01C
FF001C
FB001C
F3803C
639C78
01DFF8
01CFF0
01C3C0
00E000
00E000
00E000
00F000
007000
007000
007000
ENDCHAR

STARTCHAR jisx0208_2465
ENCODING 9317
SWIDTH 960 0
DWIDTH 22 0
BBX 22 22 0 -2
BITMAP
000000
000000
000000
000000
007000
00F800
1CB800
1E5F00
0EFFC0
0FDBC0
1DDDE0
1B9CE0
1F1CE0
171CE0
169CE0
1DDDE0
1FDFC0
1EFBC0
0E7F00
0E1C00
00F800
00F000
ENDCHAR

STARTCHAR jisx0208_2466
ENCODING 9318
SWIDTH 960 0
DWIDTH 22 0
BBX 22 22 0 -2
BITMAP
00F800
01FC00
71DC00
79BF80
3C7FE0
3DEDF0
3BCE78
7F8E38
770E3C
7E0E1C
6E0E1C
6D0E1C
7B8E1C
7B8E3C
79CE38
79EE78
38FFF0
387DE0
381F80
007C00
01F800
01E000
ENDCHAR

STARTCHAR jisx0208_2467
ENCODING 9319
SWIDTH 960 0
DWIDTH 22 0
BBX 22 22 0 -2
BITMAP
000000
000000
000000
000000
007800
007C00
003C00
003800
003980
003FC0
003FC0
0037C0
003800
003800
003800
07F800
0FFF00
0E3FC0
0C37E0
0FF9E0
07F0E0
03E000
ENDCHAR

STARTCHAR jisx0208_2468
ENCODING 9320
SWIDTH 960 0
DWIDTH 22 0
BBX 22 22 0 -2
BITMAP
00FC00
003C00
003800
003800
003800
0038E0
003FF0
003FF0
0037C0
003800
003800
003800
003800
003800
0FF800
1FFE00
3C3FC0
3837F0
3C79F8
1FF878
0FF038
07E000
ENDCHAR

STARTCHAR jisx0208_2469
ENCODING 9321
SWIDTH 960 0
DWIDTH 22 0
BBX 22 22 0 -2
BITMAP
038000
03C600
01FF00
02FF00
07FF00
0E0000
0F0000
0E0000
0E0000
0C7FC0
0DFFF0
0FE0F0
1B8078
1F0038
1E0038
1C0038
000078
0000F8
0001F0
000FE0
00FF80
00FC00
ENDCHAR

STARTCHAR jisx0208_246A
ENCODING 9322
SWIDTH 960 0
DWIDTH 22 0
BBX 22 22 0 -2
BITMAP
0F0000
073F00
077F80
07F3C0
0EE1C0
0DC1E0
0F80E0
0B80E0
0B00E0
0F00E0
0F00E0
0F00E0
0F00E0
0700E0
0701E0
0001C0
0003C0
000780
000F00
003E00
00FC00
00F000
ENDCHAR

STARTCHAR jisx0208_246B
ENCODING 9323
SWIDTH 960 0
DWIDTH 22 0
BBX 22 22 0 -2
BITMAP
000700
073F80
07FF80
03F780
01CE00
003C00
007800
00F000
01E000
03DF80
07FFE0
0FC1F0
1F0078
3E0038
3C0038
39F038
03FC38
033E78
039EF0
03EFE0
01F7C0
007F00
ENDCHAR

STARTCHAR jisx0208_246C
ENCODING 9324
SWIDTH 960 0
DWIDTH 22 0
BBX 22 22 0 -2
BITMAP
1F0000
1F8000
078000
070000
070FC0
67BFE0
7FFCF0
7F7070
76E070
07C070
0F8070
0F0070
1F00F0
1F00E0
3700E4
7700E4
7700EC
7F00FC
6F00FC
070078
070000
060000
ENDCHAR

STARTCHAR jisx0208_246D
ENCODING 9325
SWIDTH 960 0
DWIDTH 22 0
BBX 22 22 0 -2
BITMAP
000700
073F80
07FF80
03F780
01CE00
003C00
007800
00F000
01E000
03DF80
07FFE0
0FC1F0
1F0078
3E0038
3C0038
380038
000038
000078
0000F0
0007E0
00FFC0
00FE00
ENDCHAR

STARTCHAR jisx0208_246E
ENCODING 9326
SWIDTH 960 0
DWIDTH 22 0
BBX 22 22 0 -2
BITMAP
000000
000000
000000
000000
000000
03C000
03E000
01E000
01C000
0DEFC0
0FFFE0
0FBCF0
0DF070
03E070
03C070
07C070
0FC070
0DC0F0
0FC3E0
03CFC0
01CF00
018000
ENDCHAR

STARTCHAR jisx0208_246F
ENCODING 9327
SWIDTH 960 0
DWIDTH 22 0
BBX 22 22 0 -2
BITMAP
1F0000
1F8000
078000
070000
070000
679FC0
7FFFF0
7F78F8
76E038
07C03C
0F801C
0F001C
1F001C
1F001C
37003C
770038
770078
7F01F0
6F1FE0
071F80
070000
060000
ENDCHAR

STARTCHAR jisx0208_2470
ENCODING 9328
SWIDTH 960 0
DWIDTH 22 0
BBX 22 22 0 -2
BITMAP
001800
0E7C00
0FFE00
07DE00
039C00
003C00
00FB80
03FFE0
07B1F0
0F7078
1EE038
3CE03C
39C01C
79C01C
73801C
739F9C
773FBC
7F39F8
7E30F8
3C3FF0
001FC0
000000
ENDCHAR

STARTCHAR jisx0208_2471
ENCODING 9329
SWIDTH 960 0
DWIDTH 22 0
BBX 22 22 0 -2
BITMAP
060E00
07FF00
07FF00
038F00
007C00
01F200
03FF80
0FC7C0
1F01C0
1EE1C0
1DF3C0
01BF80
01EF00
00FC00
07C000
0F0FE0
1EDFF8
3FFC7C
78F83C
7071FC
7071DC
000000
ENDCHAR

STARTCHAR jisx0208_2472
ENCODING 9330
SWIDTH 960 0
DWIDTH 22 0
BBX 22 22 0 -2
BITMAP
03F000
00F000
00E780
39DF80
3FBF80
1FFC00
038000
0700E0
07F8F0
0DFD78
1F9FF8
3E1FC0
7C7E00
79FC00
73DC00
07BC00
073C00
061C00
0700C0
07FFE0
03FFE0
01FFE0
ENDCHAR

STARTCHAR jisx0208_2473
ENCODING 9331
SWIDTH 960 0
DWIDTH 22 0
BBX 22 22 0 -2
BITMAP
00F000
007800
007800
00F000
00E000
01C000
01C000
038000
038000
070000
07F000
0DF80C
0F3C0C
1E1C0C
1C1C1C
3C1C1C
381C38
781C78
781FF0
700FE0
7007C0
000000
ENDCHAR

STARTCHAR jisx0208_2521
ENCODING 9505
SWIDTH 960 0
DWIDTH 22 0
BBX 22 22 0 -2
BITMAP
000000
000000
000000
000000
000000
000000
0C00E0
0FFFF0
0FFFF0
0700F0
0077C0
007F80
003E00
003800
003800
007800
007000
00F000
01E000
03C000
038000
000000
ENDCHAR

STARTCHAR jisx0208_2522
ENCODING 9506
SWIDTH 960 0
DWIDTH 22 0
BBX 22 22 0 -2
BITMAP
000000
600038
7FFFFC
7FFFFC
3E003C
0000F8
0001F0
00F3C0
00F780
003F00
003C00
003800
003800
007800
007000
00F000
00E000
01E000
03C000
078000
070000
000000
ENDCHAR

STARTCHAR jisx0208_2523
ENCODING 9507
SWIDTH 960 0
DWIDTH 22 0
BBX 22 22 0 -2
BITMAP
000000
000000
000000
000000
000700
000780
0003C0
0007C0
000F80
001F00
003E00
007C00
00FE00
03DC00
0FDC00
0F1C00
001C00
001C00
001C00
003C00
003C00
001C00
ENDCHAR

STARTCHAR jisx0208_2524
ENCODING 9508
SWIDTH 960 0
DWIDTH 22 0
BBX 22 22 0 -2
BITMAP
000380
0003C0
0001E0
0003E0
0007C0
000F80
001F00
003E00
007C00
01FE00
03DC00
0F9C00
3F1C00
3C1C00
001C00
001C00
001C00
001C00
001C00
003C00
003C00
001C00
ENDCHAR

STARTCHAR jisx0208_2525
ENCODING 9509
SWIDTH 960 0
DWIDTH 22 0
BBX 22 22 0 -2
BITMAP
000000
000000
000000
000000
000000
007800
007C00
003C00
0E39C0
0FFFE0
07FFE0
0701E0
0701C0
0701C0
0701C0
0703C0
000380
000780
000F00
003E00
00FC00
00F000
ENDCHAR

STARTCHAR jisx0208_2526
ENCODING 9510
SWIDTH 960 0
DWIDTH 22 0
BBX 22 22 0 -2
BITMAP
00FC00
003C00
003800
383870
3FFFF8
1FFFF8
1C0078
1C0070
1C0070
1C00F0
1C00F0
1C00E0
1C01E0
0001E0
0003C0
0007C0
000F80
001F00
007E00
01F800
01E000
000000
ENDCHAR

STARTCHAR jisx0208_2527
ENCODING 9511
SWIDTH 960 0
DWIDTH 22 0
BBX 22 22 0 -2
BITMAP
000000
000000
000000
000000
000000
000000
000000
060780
07FFC0
07FFC0
03B800
003C00
003800
003800
003800
1838E0
1FFFF0
1FFFF0
0E0070
000000
000000
000000
ENDCHAR

STARTCHAR jisx0208_2528
ENCODING 9512
SWIDTH 960 0
DWIDTH 22 0
BBX 22 22 0 -2
BITMAP
000000
000000
000000
1801E0
1FFFF0
1FFFF0
0F3870
003C00
003800
003800
003800
003800
003800
003800
603878
7FFFFC
7FFFFC
3E001C
000000
000000
000000
000000
ENDCHAR

STARTCHAR jisx0208_2529
ENCODING 9513
SWIDTH 960 0
DWIDTH 22 0
BBX 22 22 0 -2
BITMAP
000000
000000
000000
000000
000000
003C00
003E00
001E00
001C00
0C1DC0
0FFFE0
0FFFE0
073C00
00FC00
01DC00
03DC00
0F9C00
1F5C00
1CFC00
007C00
003C00
001800
ENDCHAR

STARTCHAR jisx0208_252A
ENCODING 9514
SWIDTH 960 0
DWIDTH 22 0
BBX 22 22 0 -2
BITMAP
003E00
003F00
000F00
000E00
300E78
3FFFFC
3FFFFC
1E1E1C
003E00
007E00
00EE00
01EE00
03EE00
07CE00
0F8E00
3E0E00
7C0E00
70EE00
00FE00
003E00
001E00
000C00
ENDCHAR

STARTCHAR jisx0208_252B
ENCODING 9515
SWIDTH 960 0
DWIDTH 22 0
BBX 22 22 0 -2
BITMAP
01F000
01F800
007800
007000
307070
3FFFF8
3FFFF8
1EE078
00E070
01E070
01C070
01C0F0
03C0E0
0380E0
0780E0
0701E0
0F39C0
1E3FC0
3C0FC0
380780
000700
000000
ENDCHAR

STARTCHAR jisx0208_252C
ENCODING 9516
SWIDTH 960 0
DWIDTH 22 0
BBX 22 22 0 -2
BITMAP
01F01C
01F86C
007874
007038
307058
3FFFF0
3FFFF8
1EE078
00E070
01E070
01C070
01C0F0
03C0E0
0380E0
0780E0
0701E0
0F39C0
1E3FC0
3C0FC0
380780
000700
000000
ENDCHAR

STARTCHAR jisx0208_252D
ENCODING 9517
SWIDTH 960 0
DWIDTH 22 0
BBX 22 22 0 -2
BITMAP
00FC00
003C00
003800
0039E0
303FF0
3FFFF0
3FF870
1F3800
003800
003878
603FFC
7FFFFC
7FFC1C
3E1C00
001C00
001C00
001C00
001C00
001C00
001E00
001E00
001C00
ENDCHAR

STARTCHAR jisx0208_252E
ENCODING 9518
SWIDTH 960 0
DWIDTH 22 0
BBX 22 22 0 -2
BITMAP
00FC7C
003C6C
003834
0039D8
303FE0
3FFFF0
3FF870
1F3800
003800
003878
603FFC
7FFFFC
7FFC1C
3E1C00
001C00
001C00
001C00
001C00
001C00
001E00
001E00
001C00
ENDCHAR

STARTCHAR jisx0208_252F
ENCODING 9519
SWIDTH 960 0
DWIDTH 22 0
BBX 22 22 0 -2
BITMAP
00F000
00F800
007800
00F0E0
01EFF0
01FFF0
03C0F0
0781E0
0F01E0
1E03C0
3C03C0
380780
000F80
000F00
001E00
003E00
007C00
00F800
03F000
0FC000
0F0000
000000
ENDCHAR

STARTCHAR jisx0208_2530
ENCODING 9520
SWIDTH 960 0
DWIDTH 22 0
BBX 22 22 0 -2
BITMAP
00F01C
00F82C
007834
00F0DC
01EFEC
01FFF0
03C0F0
0781E0
0F01E0
1E03C0
3C03C0
380780
000F80
000F00
001E00
003E00
007C00
00F800
03F000
0FC000
0F0000
000000
ENDCHAR

STARTCHAR jisx0208_2531
ENCODING 9521
SWIDTH 960 0
DWIDTH 22 0
BBX 22 22 0 -2
BITMAP
070000
078000
03C000
03C018
07807C
077FFC
0FFFFC
0E0700
1E0780
3C0700
780700
700F00
000E00
001E00
001E00
003C00
007C00
00F800
03F000
07C000
070000
000000
ENDCHAR

STARTCHAR jisx0208_2532
ENCODING 9522
SWIDTH 960 0
DWIDTH 22 0
BBX 22 22 0 -2
BITMAP
07007C
07806C
03C034
03C018
07807C
077FFC
0FFFFC
0E0700
1E0780
3C0700
780700
700F00
000E00
001E00
001E00
003C00
007C00
00F800
03F000
07C000
070000
000000
ENDCHAR

STARTCHAR jisx0208_2533
ENCODING 9523
SWIDTH 960 0
DWIDTH 22 0
BBX 22 22 0 -2
BITMAP
000000
000000
000000
3000E0
3FFFF0
3FFFF0
1F00F0
0000E0
0000E0
0000E0
0001E0
0001C0
0001C0
0001C0
3001E0
3FFFE0
3FFFE0
1F0000
000000
000000
000000
000000
ENDCHAR

STARTCHAR jisx0208_2534
ENCODING 9524
SWIDTH 960 0
DWIDTH 22 0
BBX 22 22 0 -2
BITMAP
0000FC
0000DC
00006C
3000B0
3FFFE0
3FFFF0
1F00F0
0000E0
0000E0
0000E0
0001E0
0001C0
0001C0
0001C0
3001E0
3FFFE0
3FFFE0
1F0000
000000
000000
000000
000000
ENDCHAR

STARTCHAR jisx0208_2535
ENCODING 9525
SWIDTH 960 0
DWIDTH 22 0
BBX 22 22 0 -2
BITMAP
001F00
0F9F80
0FC780
03C700
038700
C38778
FFFFFC
FFFFFC
7B871C
038700
038700
038700
038700
038700
038F00
000F00
001E00
003E00
007C00
01F800
01E000
000000
ENDCHAR

STARTCHAR jisx0208_2536
ENCODING 9526
SWIDTH 960 0
DWIDTH 22 0
BBX 22 22 0 -2
BITMAP
001F1C
0F9FAC
0FC7B4
03C71C
03870C
C38770
FFFFFC
FFFFFC
7B871C
038700
038700
038700
038700
038700
038F00
000F00
001E00
003E00
007C00
01F800
01E000
000000
ENDCHAR

STARTCHAR jisx0208_2537
ENCODING 9527
SWIDTH 960 0
DWIDTH 22 0
BBX 22 22 0 -2
BITMAP
000000
0E0000
0F8000
07C000
03C000
01C018
000038
380038
3E0070
1F00F0
0F01E0
0703C0
0007C0
000F80
003F00
007E00
19FC00
1FF000
1FE000
0F8000
060000
000000
ENDCHAR

STARTCHAR jisx0208_2538
ENCODING 9528
SWIDTH 960 0
DWIDTH 22 0
BBX 22 22 0 -2
BITMAP
00003C
0E00DC
0F80EC
07C070
03C030
01C008
000038
380038
3E0070
1F00F0
0F01E0
0703C0
0007C0
000F80
003F00
007E00
19FC00
1FF000
1FE000
0F8000
060000
000000
ENDCHAR

STARTCHAR jisx0208_2539
ENCODING 9529
SWIDTH 960 0
DWIDTH 22 0
BBX 22 22 0 -2
BITMAP
000000
000000
180380
1FFFC0
1FFFC0
0F83C0
000780
000780
000F00
001F00
001E00
003C00
007F00
00F7C0
01F3E0
03E1F0
07C0F0
1F0070
7E0070
780000
000000
000000
ENDCHAR

STARTCHAR jisx0208_253A
ENCODING 9530
SWIDTH 960 0
DWIDTH 22 0
BBX 22 22 0 -2
BITMAP
00001C
00002C
1803B4
1FFFDC
1FFFCC
0F83C0
000780
000780
000F00
001F00
001E00
003C00
007F00
00F7C0
01F3E0
03E1F0
07C0F0
1F0070
7E0070
780000
000000
000000
ENDCHAR

STARTCHAR jisx0208_253B
ENCODING 9531
SWIDTH 960 0
DWIDTH 22 0
BBX 22 22 0 -2
BITMAP
000000
0F8000
0FC000
03C000
038070
038FF8
C3FFF8
FFFC78
FF80F0
7B81E0
0383C0
038780
038F00
038C00
038000
038060
0381F0
03FFF0
01FFF0
00FF80
000000
000000
ENDCHAR

STARTCHAR jisx0208_253C
ENCODING 9532
SWIDTH 960 0
DWIDTH 22 0
BBX 22 22 0 -2
BITMAP
00007C
0F806C
0FC034
03C018
038060
038FF8
C3FFF8
FFFC78
FF80F0
7B81E0
0383C0
038780
038F00
038C00
038000
038060
0381F0
03FFF0
01FFF0
00FF80
000000
000000
ENDCHAR

STARTCHAR jisx0208_253D
ENCODING 9533
SWIDTH 960 0
DWIDTH 22 0
BBX 22 22 0 -2
BITMAP
000000
0000E0
3800F0
3C0078
1E0078
0F00F0
0F00F0
0700E0
0701E0
0001E0
0003C0
0007C0
000780
000F00
001F00
003E00
007C00
00F800
03E000
07C000
070000
000000
ENDCHAR

STARTCHAR jisx0208_253E
ENCODING 9534
SWIDTH 960 0
DWIDTH 22 0
BBX 22 22 0 -2
BITMAP
00007C
00006C
3800B4
3C00D8
1E0070
0F0078
0F00F0
0700F0
0701E0
0001E0
0003C0
0007C0
000780
000F00
001F00
003E00
007C00
00F800
03E000
07C000
070000
000000
ENDCHAR

STARTCHAR jisx0208_253F
ENCODING 9535
SWIDTH 960 0
DWIDTH 22 0
BBX 22 22 0 -2
BITMAP
00F000
00F800
007800
00F0E0
01EFF0
01FFF0
03C0F0
0781E0
0F01E0
1EF3C0
3CFBC0
383F80
000F80
000700
001FC0
003DC0
007DC0
00F800
03F000
0FC000
0F0000
000000
ENDCHAR

STARTCHAR jisx0208_2540
ENCODING 9536
SWIDTH 960 0
DWIDTH 22 0
BBX 22 22 0 -2
BITMAP
00F07C
00F86C
007834
00F0D8
01EFE0
01FFF0
03C0F0
0781E0
0F01E0
1EF3C0
3CFBC0
383F80
000F80
000700
001FC0
003DC0
007DC0
00F800
03F000
0FC000
0F0000
000000
ENDCHAR

STARTCHAR jisx0208_2541
ENCODING 9537
SWIDTH 960 0
DWIDTH 22 0
BBX 22 22 0 -2
BITMAP
000F80
000FC0
0033C0
0FFF00
0FF800
003C00
003800
603878
7FFFFC
7FFFFC
3C381C
003800
003800
007800
007800
00F000
01F000
03E000
07C000
0F8000
0E0000
000000
ENDCHAR

STARTCHAR jisx0208_2542
ENCODING 9538
SWIDTH 960 0
DWIDTH 22 0
BBX 22 22 0 -2
BITMAP
000F9C
000FDC
0033EC
0FFF74
0FF838
003C18
003800
603878
7FFFFC
7FFFFC
3C381C
003800
003800
007800
007800
00F000
01F000
03E000
07C000
0F8000
0E0000
000000
ENDCHAR

STARTCHAR jisx0208_2543
ENCODING 9539
SWIDTH 960 0
DWIDTH 22 0
BBX 22 22 0 -2
BITMAP
000000
000000
000000
000000
000000
00C000
00E380
0CF3C0
0E71E0
0F71E0
0771C0
0703C0
070380
000780
000700
000F00
001E00
003C00
00F800
01F000
01C000
000000
ENDCHAR

STARTCHAR jisx0208_2544
ENCODING 9540
SWIDTH 960 0
DWIDTH 22 0
BBX 22 22 0 -2
BITMAP
000000
01C000
01E0E0
70F0F0
78F078
3C7078
3C7070
1C00F0
1C00F0
0001E0
0001E0
0003C0
0003C0
000780
000F80
001F00
003E00
007C00
01F800
07E000
078000
000000
ENDCHAR

STARTCHAR jisx0208_2545
ENCODING 9541
SWIDTH 960 0
DWIDTH 22 0
BBX 22 22 0 -2
BITMAP
00007C
01C06C
01E0B4
70F0D8
78F070
3C7078
3C7070
1C00F0
1C00F0
0001E0
0001E0
0003C0
0003C0
000780
000F80
001F00
003E00
007C00
01F800
07E000
078000
000000
ENDCHAR

STARTCHAR jisx0208_2546
ENCODING 9542
SWIDTH 960 0
DWIDTH 22 0
BBX 22 22 0 -2
BITMAP
000000
0C03C0
0FFFE0
0FFFE0
078000
000000
6000F8
7FFFFC
7FFFFC
3E381C
003C00
003800
003800
007800
007800
00F000
01F000
03E000
07C000
0F8000
0E0000
000000
ENDCHAR

STARTCHAR jisx0208_2547
ENCODING 9543
SWIDTH 960 0
DWIDTH 22 0
BBX 22 22 0 -2
BITMAP
00007C
0C03EC
0FFFB4
0FFFD8
078000
000000
6000F8
7FFFFC
7FFFFC
3E381C
003C00
003800
003800
007800
007800
00F000
01F000
03E000
07C000
0F8000
0E0000
000000
ENDCHAR

STARTCHAR jisx0208_2548
ENCODING 9544
SWIDTH 960 0
DWIDTH 22 0
BBX 22 22 0 -2
BITMAP
03E000
03F000
00F000
00E000
00E000
00E000
00E000
00F800
00FE00
00DF80
00E7C0
00E3C0
00E1C0
00E000
00E000
00E000
00E000
00E000
00E000
01E000
01E000
00E000
ENDCHAR

STARTCHAR jisx0208_2549
ENCODING 9545
SWIDTH 960 0
DWIDTH 22 0
BBX 22 22 0 -2
BITMAP
03E0E0
03F0F0
00F370
00E3B0
00E1C0
00E0C0
00E000
00F800
00FE00
00DF80
00E7C0
00E3C0
00E1C0
00E000
00E000
00E000
00E000
00E000
00E000
01E000
01E000
00E000
ENDCHAR

STARTCHAR jisx0208_254A
ENCODING 9546
SWIDTH 960 0
DWIDTH 22 0
BBX 22 22 0 -2
BITMAP
00F800
00FC00
003C00
003800
003800
6038F8
7FFFFC
7FFFFC
3E381C
003800
003800
003800
003800
007800
007800
00F000
01F000
03E000
07C000
0F8000
0E0000
000000
ENDCHAR

STARTCHAR jisx0208_254B
ENCODING 9547
SWIDTH 960 0
DWIDTH 22 0
BBX 22 22 0 -2
BITMAP
000000
000000
000000
0E03C0
0FFFC0
07FFC0
01FF00
000000
000000
000000
000000
000000
000000
000000
6000F8
7FFFFC
7FFFFC
3E001C
000000
000000
000000
000000
ENDCHAR

STARTCHAR jisx0208_254C
ENCODING 9548
SWIDTH 960 0
DWIDTH 22 0
BBX 22 22 0 -2
BITMAP
000000
000000
1801C0
1FFFE0
1FFFE0
0F81E0
0003C0
0003C0
03C780
03F780
00FF00
003F00
001E00
007F80
00F7C0
01F3C0
03E1C0
0FC000
3F0000
3C0000
000000
000000
ENDCHAR

STARTCHAR jisx0208_254D
ENCODING 9549
SWIDTH 960 0
DWIDTH 22 0
BBX 22 22 0 -2
BITMAP
00FC00
003C00
001C00
0C0380
0FFFC0
0FFFC0
0783C0
000F80
001F00
003E00
007C00
00FBC0
03FBF0
0FB8F8
3F3878
3C3838
003800
003800
003800
007800
007800
003800
ENDCHAR

STARTCHAR jisx0208_254E
ENCODING 9550
SWIDTH 960 0
DWIDTH 22 0
BBX 22 22 0 -2
BITMAP
000000
000000
000380
0003C0
0001E0
0001E0
0003C0
0003C0
000780
000F80
000F00
001E00
003E00
007C00
00F800
01F000
03E000
0F8000
3F0000
3C0000
000000
000000
ENDCHAR

STARTCHAR jisx0208_254F
ENCODING 9551
SWIDTH 960 0
DWIDTH 22 0
BBX 22 22 0 -2
BITMAP
000000
000000
000000
0E0000
0F0700
078780
0783C0
0F01E0
0F00E0
0E00F0
1E0078
1C0078
3C003C
38003C
78001C
F0001C
E0001C
C00000
000000
000000
000000
000000
ENDCHAR

STARTCHAR jisx0208_2550
ENCODING 9552
SWIDTH 960 0
DWIDTH 22 0
BBX 22 22 0 -2
BITMAP
000038
00003C
0000DC
0E00EC
0F0770
0787B0
0783C0
0F01E0
0F00E0
0E00F0
1E0078
1C0078
3C003C
38003C
78001C
F0001C
E0001C
C00000
000000
000000
000000
000000
ENDCHAR

STARTCHAR jisx0208_2551
ENCODING 9553
SWIDTH 960 0
DWIDTH 22 0
BBX 22 22 0 -2
BITMAP
000078
0000FC
0000CC
0E00CC
0F07FC
078778
078380
0F01E0
0F00E0
0E00F0
1E0078
1C0078
3C003C
38003C
78001C
F0001C
E0001C
C00000
000000
000000
000000
000000
ENDCHAR

STARTCHAR jisx0208_2552
ENCODING 9554
SWIDTH 960 0
DWIDTH 22 0
BBX 22 22 0 -2
BITMAP
000000
3E0000
3F0000
0F0380
0E03C0
0E01E0
0E0FE0
0E7FC0
0FFE00
0FE000
0E0000
0E0000
0E0000
0E0000
0E0000
0E0060
0E01F0
0FFFF0
07FFF0
03FF80
000000
000000
ENDCHAR

STARTCHAR jisx0208_2553
ENCODING 9555
SWIDTH 960 0
DWIDTH 22 0
BBX 22 22 0 -2
BITMAP
000038
3E00FC
3F00DC
0F036C
0E03B0
0E01C0
0E0FE0
0E7FC0
0FFE00
0FE000
0E0000
0E0000
0E0000
0E0000
0E0000
0E0060
0E01F0
0FFFF0
07FFF0
03FF80
000000
000000
ENDCHAR

STARTCHAR jisx0208_2554
ENCODING 9556
SWIDTH 960 0
DWIDTH 22 0
BBX 22 22 0 -2
BITMAP
0000FC
3E00CC
3F00CC
0F03FC
0E0378
0E01C0
0E0FE0
0E7FC0
0FFE00
0FE000
0E0000
0E0000
0E0000
0E0000
0E0000
0E0060
0E01F0
0FFFF0
07FFF0
03FF80
000000
000000
ENDCHAR

STARTCHAR jisx0208_2555
ENCODING 9557
SWIDTH 960 0
DWIDTH 22 0
BBX 22 22 0 -2
BITMAP
000000
000000
300070
3FFFF8
3FFFF8
1F0078
000070
0000F0
0000F0
0000E0
0001E0
0001E0
0003C0
0007C0
000F80
001F00
003E00
00FC00
03F000
03C000
000000
000000
ENDCHAR

STARTCHAR jisx0208_2556
ENCODING 9558
SWIDTH 960 0
DWIDTH 22 0
BBX 22 22 0 -2
BITMAP
00007C
00006C
300034
3FFFD8
3FFFF0
1F0078
000070
0000F0
0000F0
0000E0
0001E0
0001E0
0003C0
0007C0
000F80
001F00
003E00
00FC00
03F000
03C000
000000
000000
ENDCHAR

STARTCHAR jisx0208_2557
ENCODING 9559
SWIDTH 960 0
DWIDTH 22 0
BBX 22 22 0 -2
BITMAP
00007C
000064
300064
3FFFFC
3FFFFC
1F0078
000070
0000F0
0000F0
0000E0
0001E0
0001E0
0003C0
0007C0
000F80
001F00
003E00
00FC00
03F000
03C000
000000
000000
ENDCHAR

STARTCHAR jisx0208_2558
ENCODING 9560
SWIDTH 960 0
DWIDTH 22 0
BBX 22 22 0 -2
BITMAP
000000
000000
000000
000000
01E000
03F000
077800
0F3C00
DE1E00
FC0F00
FC0780
7803C0
3001F0
0000F8
00007C
00003C
00001C
00000C
000000
000000
000000
000000
ENDCHAR

STARTCHAR jisx0208_2559
ENCODING 9561
SWIDTH 960 0
DWIDTH 22 0
BBX 22 22 0 -2
BITMAP
000000
000070
000078
0001B8
01E1D8
03F0E0
077860
0F3C00
DE1E00
FC0F00
FC0780
7803C0
3001F0
0000F8
00007C
00003C
00001C
00000C
000000
000000
000000
000000
ENDCHAR

STARTCHAR jisx0208_255A
ENCODING 9562
SWIDTH 960 0
DWIDTH 22 0
BBX 22 22 0 -2
BITMAP
000000
0000F0
0001F8
000198
01E198
03F1F8
0778F0
0F3C00
DE1E00
FC0F00
FC0780
7803C0
3001F0
0000F8
00007C
00003C
00001C
00000C
000000
000000
000000
000000
ENDCHAR

STARTCHAR jisx0208_255B
ENCODING 9563
SWIDTH 960 0
DWIDTH 22 0
BBX 22 22 0 -2
BITMAP
00F800
00FC00
003C00
003800
3039F0
3FFFF8
3FFFF8
1F3838
003800
0639C0
0639E0
0E38F0
0E3878
1E3878
3C3838
3C3838
383800
03B800
03F800
00F800
007800
003000
ENDCHAR

STARTCHAR jisx0208_255C
ENCODING 9564
SWIDTH 960 0
DWIDTH 22 0
BBX 22 22 0 -2
BITMAP
00F8FC
00FCDC
003C6C
003830
3039C0
3FFFF8
3FFFF8
1F3838
003800
0639C0
0639E0
0E38F0
0E3878
1E3878
3C3838
3C3838
383800
03B800
03F800
00F800
007800
003000
ENDCHAR

STARTCHAR jisx0208_255D
ENCODING 9565
SWIDTH 960 0
DWIDTH 22 0
BBX 22 22 0 -2
BITMAP
00F8FC
00FCCC
003CCC
0038FC
303978
3FFFF0
3FFFF8
1F3838
003800
0639C0
0639E0
0E38F0
0E3878
1E3878
3C3838
3C3838
383800
03B800
03F800
00F800
007800
003000
ENDCHAR

STARTCHAR jisx0208_255E
ENCODING 9566
SWIDTH 960 0
DWIDTH 22 0
BBX 22 22 0 -2
BITMAP
000000
000000
000000
600070
7FFFF8
7FFFF8
3E0078
0000F0
0001E0
0001E0
0003C0
070780
078F00
03DE00
01FC00
00F000
007C00
003C00
001C00
001C00
000000
000000
ENDCHAR

STARTCHAR jisx0208_255F
ENCODING 9567
SWIDTH 960 0
DWIDTH 22 0
BBX 22 22 0 -2
BITMAP
000000
03F800
03FF00
003F80
000F80
000380
000000
03F000
03FE00
007F00
001F00
000700
000000
000000
1F8000
1FF000
03FE00
007F80
001FC0
0007C0
0001C0
000000
ENDCHAR

STARTCHAR jisx0208_2560
ENCODING 9568
SWIDTH 960 0
DWIDTH 22 0
BBX 22 22 0 -2
BITMAP
000000
007000
007800
003C00
003C00
007800
007800
007000
00F000
00E000
01E000
01C380
03C3C0
0381E0
0700F0
670F70
7EFFF8
7FFC78
3F0038
180038
000000
000000
ENDCHAR

STARTCHAR jisx0208_2561
ENCODING 9569
SWIDTH 960 0
DWIDTH 22 0
BBX 22 22 0 -2
BITMAP
000000
000380
0003C0
0001E0
0001E0
0003C0
0003C0
000780
03C780
03EF00
00FF00
003E00
001F80
007FC0
00FBC0
01F1C0
03E000
0FC000
3F0000
3C0000
000000
000000
ENDCHAR

STARTCHAR jisx0208_2562
ENCODING 9570
SWIDTH 960 0
DWIDTH 22 0
BBX 22 22 0 -2
BITMAP
000000
000000
1803C0
1FFFE0
1FFFE0
0F70E0
007800
007000
6070F8
7FFFFC
7FFFFC
3E701C
007000
007000
007000
007000
007060
007FF0
007FF0
003FF0
000000
000000
ENDCHAR

STARTCHAR jisx0208_2563
ENCODING 9571
SWIDTH 960 0
DWIDTH 22 0
BBX 22 22 0 -2
BITMAP
000000
000000
000000
000000
000000
00F000
00F800
007800
0070C0
187FE0
1FFFF0
1FF0F0
1E73E0
0C7780
007E00
003800
003800
003800
003800
003800
003800
003800
ENDCHAR

STARTCHAR jisx0208_2564
ENCODING 9572
SWIDTH 960 0
DWIDTH 22 0
BBX 22 22 0 -2
BITMAP
03F000
00F000
00E000
00E038
00E7FC
C3FFFC
FFFE3C
FEE078
78E0F0
30E1E0
00E3C0
00F780
007600
007000
007000
007000
007000
007000
007800
007800
007800
003000
ENDCHAR

STARTCHAR jisx0208_2565
ENCODING 9573
SWIDTH 960 0
DWIDTH 22 0
BBX 22 22 0 -2
BITMAP
000000
000000
000000
000000
000000
000000
000000
060700
07FF80
07FF80
038780
000700
000700
000F00
000E00
300EE0
3FFFF0
3FFFF0
1E0070
000000
000000
000000
ENDCHAR

STARTCHAR jisx0208_2566
ENCODING 9574
SWIDTH 960 0
DWIDTH 22 0
BBX 22 22 0 -2
BITMAP
000000
000000
000000
0C01C0
0FFFE0
0FFFE0
07C1E0
0001C0
0001C0
0001C0
0003C0
000380
000380
000380
C003BC
FFFFFC
FFFFFC
7C000C
000000
000000
000000
000000
ENDCHAR

STARTCHAR jisx0208_2567
ENCODING 9575
SWIDTH 960 0
DWIDTH 22 0
BBX 22 22 0 -2
BITMAP
000000
000000
000000
000000
000000
000000
0C0380
0FFFC0
0FFFC0
0783C0
000380
060380
07FF80
07FF80
03C700
000700
0C0700
0FFF80
0FFF80
078000
000000
000000
ENDCHAR

STARTCHAR jisx0208_2568
ENCODING 9576
SWIDTH 960 0
DWIDTH 22 0
BBX 22 22 0 -2
BITMAP
000000
000000
1800E0
1FFFF0
1FFFF0
0F80F0
0000E0
0000E0
0000E0
0C00E0
0FFFE0
0FFFC0
07C1C0
0001C0
0001C0
0001C0
1801C0
1FFFE0
1FFFE0
0F80E0
000000
000000
ENDCHAR

STARTCHAR jisx0208_2569
ENCODING 9577
SWIDTH 960 0
DWIDTH 22 0
BBX 22 22 0 -2
BITMAP
000000
070380
07FFC0
03FFC0
01FF80
000000
300070
3FFFF8
3FFFF8
1F8078
0C00F0
0000F0
0001E0
0001E0
0003C0
0007C0
000F80
001F00
007E00
01F800
01E000
000000
ENDCHAR

STARTCHAR jisx0208_256A
ENCODING 9578
SWIDTH 960 0
DWIDTH 22 0
BBX 22 22 0 -2
BITMAP
000F80
1F0FC0
1F83C0
078380
070380
070380
070380
070380
070380
070380
070380
070380
070380
070780
000780
000F00
001F00
003E00
007C00
00F800
00E000
000000
ENDCHAR

STARTCHAR jisx0208_256B
ENCODING 9579
SWIDTH 960 0
DWIDTH 22 0
BBX 22 22 0 -2
BITMAP
000000
007C00
007E00
1F1E00
1F9C00
079C00
071C00
071C00
071C00
071C0C
071C1C
071C3C
0F1C78
0F1CF0
0E1DF0
1E1FE0
1C3FC0
3C3F80
781F00
700C00
600000
000000
ENDCHAR

STARTCHAR jisx0208_256C
ENCODING 9580
SWIDTH 960 0
DWIDTH 22 0
BBX 22 22 0 -2
BITMAP
000000
1F0000
1F8000
078000
070000
070000
070000
070000
070000
070018
070038
070078
0701F0
0703E0
070FC0
073F80
07FE00
0EFC00
0FF000
07C000
030000
000000
ENDCHAR

STARTCHAR jisx0208_256D
ENCODING 9581
SWIDTH 960 0
DWIDTH 22 0
BBX 22 22 0 -2
BITMAP
000000
000000
000000
380070
3FFFF8
1FFFF8
1C0078
1C0070
1C0070
1C0070
1C00F0
1C00E0
1C00E0
1C00E0
1C00E0
1FFFF0
1FFFF0
1C0000
000000
000000
000000
000000
ENDCHAR

STARTCHAR jisx0208_256E
ENCODING 9582
SWIDTH 960 0
DWIDTH 22 0
BBX 22 22 0 -2
BITMAP
000000
000000
000000
000000
000000
000000
0E01C0
0FFFE0
07FFE0
0701E0
0701C0
0701C0
0701C0
0701C0
0703C0
000380
000780
000F00
003E00
007C00
007000
000000
ENDCHAR

STARTCHAR jisx0208_256F
ENCODING 9583
SWIDTH 960 0
DWIDTH 22 0
BBX 22 22 0 -2
BITMAP
000000
000000
380070
3FFFF8
1FFFF8
1C0078
1C0070
1C0070
1C00F0
1C00F0
1C00E0
1C01E0
0001E0
0003C0
0003C0
000780
000F80
001F00
007E00
01F800
01E000
000000
ENDCHAR

STARTCHAR jisx0208_2570
ENCODING 9584
SWIDTH 960 0
DWIDTH 22 0
BBX 22 22 0 -2
BITMAP
007C00
007E00
001E00
001C00
301CF0
3FFFF8
3FFFF8
1F9C38
03DC00
039C00
039C00
639C78
7FFFFC
7FFFFC
3E1C1C
001C00
001C00
001C00
001C00
001C00
001C00
001C00
ENDCHAR

STARTCHAR jisx0208_2571
ENCODING 9585
SWIDTH 960 0
DWIDTH 22 0
BBX 22 22 0 -2
BITMAP
000000
000000
000000
1800E0
1FFFF0
1FFFF0
0F80F0
0003E0
00F780
00FF00
003C00
003800
003800
003800
6038F8
7FFFFC
7FFFFC
3E001C
000000
000000
000000
000000
ENDCHAR

STARTCHAR jisx0208_2572
ENCODING 9586
SWIDTH 960 0
DWIDTH 22 0
BBX 22 22 0 -2
BITMAP
000000
000000
180070
1FFFF8
1FFFF8
0F8078
000070
180070
1FFFF0
1FFFF0
0F80E0
0001E0
0001E0
0003C0
0007C0
000F80
001F00
003E00
00FC00
03F000
03C000
000000
ENDCHAR

STARTCHAR jisx0208_2573
ENCODING 9587
SWIDTH 960 0
DWIDTH 22 0
BBX 22 22 0 -2
BITMAP
000000
000000
380000
3E0000
1F0000
0F8018
078038
038038
000070
0000F0
0001E0
0003E0
0007C0
000F80
003F00
007E00
19FC00
1FF000
1FE000
0F8000
060000
000000
ENDCHAR

STARTCHAR jisx0208_2574
ENCODING 9588
SWIDTH 960 0
DWIDTH 22 0
BBX 22 22 0 -2
BITMAP
00F81C
00FC2C
003C34
38385C
3FFFEC
1FFFF8
1C0078
1C0070
1C0070
1C00F0
1C00F0
1C00E0
1C01E0
0001E0
0003C0
0007C0
000F80
001F00
007E00
01F800
01E000
000000
ENDCHAR

STARTCHAR jisx0208_2575
ENCODING 9589
SWIDTH 960 0
DWIDTH 22 0
BBX 22 22 0 -2
BITMAP
000000
000000
000000
000000
000000
00F000
00F800
007800
007000
0C71C0
0FFFE0
0FFFE0
06E1E0
00E1C0
01E1C0
01C3C0
03C380
03B380
077F80
0F1F00
0E0F00
000E00
ENDCHAR

STARTCHAR jisx0208_2576
ENCODING 9590
SWIDTH 960 0
DWIDTH 22 0
BBX 22 22 0 -2
BITMAP
000000
000000
000000
000000
000000
038000
03C000
01E000
01E000
03C3C0
03BFE0
07FFE0
0F0E00
1E0F00
1C0E00
001E00
001C00
003C00
007800
01F000
03E000
038000
ENDCHAR

STARTCHAR jisx0208_2621
ENCODING 9761
SWIDTH 960 0
DWIDTH 22 0
BBX 22 22 0 -2
BITMAP
000000
003800
003800
007C00
007C00
005C00
00FE00
00EE00
01CF00
01C700
018700
038780
038380
0703C0
07FDC0
07FFC0
0E01E0
0E00E0
3D03F8
3F03F8
000000
000000
ENDCHAR

STARTCHAR jisx0208_2622
ENCODING 9762
SWIDTH 960 0
DWIDTH 22 0
BBX 22 22 0 -2
BITMAP
000000
1FFF80
1FFFC0
0701E0
0700E0
0700E0
0700E0
0700E0
0701E0
07FFC0
07FFA0
0701E0
0700F0
070070
070070
070070
0700F0
0701E0
1FFFE0
1FFF80
000000
000000
ENDCHAR

STARTCHAR jisx0208_2623
ENCODING 9763
SWIDTH 960 0
DWIDTH 22 0
BBX 22 22 0 -2
BITMAP
000000
1FFFC0
1FFFC0
0701E0
0700E0
070060
070060
070000
070000
070000
070000
070000
070000
070000
070000
070000
070000
070000
1FE000
1FE000
000000
000000
ENDCHAR

STARTCHAR jisx0208_2624
ENCODING 9764
SWIDTH 960 0
DWIDTH 22 0
BBX 22 22 0 -2
BITMAP
000000
003800
003800
007C00
007C00
005C00
00FE00
00EE00
01CF00
01C700
018700
038780
038380
0703C0
0701C0
0601C0
0E01E0
0E00E0
1DFFF0
1FFFF0
000000
000000
ENDCHAR

STARTCHAR jisx0208_2625
ENCODING 9765
SWIDTH 960 0
DWIDTH 22 0
BBX 22 22 0 -2
BITMAP
000000
1FFF80
1FFF80
0703C0
0701C0
0700C0
0706C0
070600
070E00
07FE00
07FE00
070E00
070600
070600
070060
070060
0700E0
0701E0
1FFFC0
1FFFC0
000000
000000
ENDCHAR

STARTCHAR jisx0208_2626
ENCODING 9766
SWIDTH 960 0
DWIDTH 22 0
BBX 22 22 0 -2
BITMAP
000000
07FFC0
07FFC0
0F03C0
0E0780
0C0F00
0C1F00
001E00
003C00
007800
00F800
00F000
01E000
03C000
07C060
078060
0F00E0
1E01E0
1FFFC0
1FFFC0
000000
000000
ENDCHAR

STARTCHAR jisx0208_2627
ENCODING 9767
SWIDTH 960 0
DWIDTH 22 0
BBX 22 22 0 -2
BITMAP
000000
3F87F0
3F87F0
0E01C0
0E01C0
0E01C0
0E01C0
0E01C0
0E01C0
0FFFC0
0FFFC0
0E01C0
0E01C0
0E01C0
0E01C0
0E01C0
0E01C0
0E01C0
3F87F0
3F87F0
000000
000000
ENDCHAR

STARTCHAR jisx0208_2628
ENCODING 9768
SWIDTH 960 0
DWIDTH 22 0
BBX 22 22 0 -2
BITMAP
000000
00FE00
03FF80
07C7C0
0F01E0
0E00E0
1E00F0
1D8370
1D8370
1DFF70
1DFF70
1DFF70
1D8370
1D8370
1E00F0
0E00E0
0F01E0
07C7C0
03FF80
00FE00
000000
000000
ENDCHAR

STARTCHAR jisx0208_2629
ENCODING 9769
SWIDTH 960 0
DWIDTH 22 0
BBX 22 22 0 -2
BITMAP
000000
00FE00
00FE00
003800
003800
003800
003800
003800
003800
003800
003800
003800
003800
003800
003800
003800
003800
003800
00FE00
00FE00
000000
000000
ENDCHAR

STARTCHAR jisx0208_262A
ENCODING 9770
SWIDTH 960 0
DWIDTH 22 0
BBX 22 22 0 -2
BITMAP
000000
3F8FE0
3F8FE0
0E0380
0E0F00
0E1E00
0E3C00
0E7800
0EF000
0FF800
0DB800
0FBC00
0F1E00
0E0E00
0E0F00
0E0780
0E0380
0E03C0
3F85F0
3F87F0
000000
000000
ENDCHAR

STARTCHAR jisx0208_262B
ENCODING 9771
SWIDTH 960 0
DWIDTH 22 0
BBX 22 22 0 -2
BITMAP
000000
003800
003800
007C00
007C00
005C00
00FE00
00EE00
01CF00
01C700
018700
038780
038380
0703C0
0701C0
0601C0
0E01E0
0E00E0
3D03F8
3F03F8
000000
000000
ENDCHAR

STARTCHAR jisx0208_262C
ENCODING 9772
SWIDTH 960 0
DWIDTH 22 0
BBX 22 22 0 -2
BITMAP
000000
7E01F8
7E01F8
1E03E0
1F03E0
1702E0
1706E0
1F86E0
1B86E0
1B8EE0
1BCEE0
19CCE0
19DCE0
19DCE0
18D8E0
18F8E0
18F8E0
1870E0
7E73F8
7E73F8
000000
000000
ENDCHAR

STARTCHAR jisx0208_262D
ENCODING 9773
SWIDTH 960 0
DWIDTH 22 0
BBX 22 22 0 -2
BITMAP
000000
3E01F8
3F01F8
0F8060
0F8060
0BC060
0DE060
0DE060
0CF060
0C7860
0C7C60
0C3C60
0C1E60
0C0F60
0C0F60
0C0760
0C03E0
0C03E0
3F01E0
3F00E0
000000
000000
ENDCHAR

STARTCHAR jisx0208_262E
ENCODING 9774
SWIDTH 960 0
DWIDTH 22 0
BBX 22 22 0 -2
BITMAP
000000
0FFFC0
0FFFC0
1FFFE0
1C00E0
180060
180060
060180
060180
07FF80
07FF80
07FF80
060180
060180
180060
180060
1C00E0
1FFFE0
0FFFC0
0FFFC0
000000
000000
ENDCHAR

STARTCHAR jisx0208_262F
ENCODING 9775
SWIDTH 960 0
DWIDTH 22 0
BBX 22 22 0 -2
BITMAP
000000
00FE00
03FF80
07C7C0
0F01E0
0E00E0
1E00F0
1C0070
1C0070
1C0070
1C0070
1C0070
1C0070
1C0070
1E00F0
0E00E0
0F01E0
07C7C0
03FF80
00FE00
000000
000000
ENDCHAR

STARTCHAR jisx0208_2630
ENCODING 9776
SWIDTH 960 0
DWIDTH 22 0
BBX 22 22 0 -2
BITMAP
000000
3FFFF0
3FFFF0
0E01C0
0E01C0
0E01C0
0E01C0
0E01C0
0E01C0
0E01C0
0E01C0
0E01C0
0E01C0
0E01C0
0E01C0
0E01C0
0E01C0
0E01C0
3F87F0
3F87F0
000000
000000
ENDCHAR

STARTCHAR jisx0208_2631
ENCODING 9777
SWIDTH 960 0
DWIDTH 22 0
BBX 22 22 0 -2
BITMAP
000000
1FFF00
1FFFC0
0703C0
0701E0
0700E0
0700E0
0700E0
0700E0
0701E0
0703C0
07FFC0
07FF00
070000
070000
070000
070000
070000
1FE000
1FE000
000000
000000
ENDCHAR

STARTCHAR jisx0208_2632
ENCODING 9778
SWIDTH 960 0
DWIDTH 22 0
BBX 22 22 0 -2
BITMAP
000000
1FFF80
1FFF80
1E03C0
0F81C0
07C0C0
03E0C0
01F000
00F800
007C00
003C00
007800
00F000
01E060
03C060
0780E0
0F01E0
1EFFC0
1FFFC0
1FFFC0
000000
000000
ENDCHAR

STARTCHAR jisx0208_2633
ENCODING 9779
SWIDTH 960 0
DWIDTH 22 0
BBX 22 22 0 -2
BITMAP
000000
0FFFE0
0FFFE0
1E38F0
1C3870
183830
183830
003800
003800
003800
003800
003800
003800
003800
003800
003800
003800
003800
00FE00
00FE00
000000
000000
ENDCHAR

STARTCHAR jisx0208_2634
ENCODING 9780
SWIDTH 960 0
DWIDTH 22 0
BBX 22 22 0 -2
BITMAP
000000
07C7C0
0FEFE0
1EFEF0
1C7C70
183830
183830
003800
003800
003800
003800
003800
003800
003800
003800
003800
003800
003800
00FE00
00FE00
000000
000000
ENDCHAR

STARTCHAR jisx0208_2635
ENCODING 9781
SWIDTH 960 0
DWIDTH 22 0
BBX 22 22 0 -2
BITMAP
000000
00FE00
00FE00
003800
01FF00
07FFC0
0FBBE0
0E38E0
1E38F0
1C3870
1C3870
1C3870
1E38F0
0E38E0
0FBBE0
07FFC0
01FF00
003800
00FE00
00FE00
000000
000000
ENDCHAR

STARTCHAR jisx0208_2636
ENCODING 9782
SWIDTH 960 0
DWIDTH 22 0
BBX 22 22 0 -2
BITMAP
000000
3FC7F0
3FC7F0
0F01C0
078380
03C700
01EF00
01EE00
00FC00
007C00
007800
00FC00
00DE00
01CF00
03CF00
038780
0703C0
0F03E0
3E85F8
3F87F8
000000
000000
ENDCHAR

STARTCHAR jisx0208_2637
ENCODING 9783
SWIDTH 960 0
DWIDTH 22 0
BBX 22 22 0 -2
BITMAP
000000
3EFEF8
3EFEF8
0E38E0
0E38E0
0E38E0
0E38E0
0E38E0
0E38E0
0E38E0
0E38E0
0E38E0
0E38E0
0F39E0
07BBC0
07FFC0
01FF00
003800
00FE00
00FE00
000000
000000
ENDCHAR

STARTCHAR jisx0208_2638
ENCODING 9784
SWIDTH 960 0
DWIDTH 22 0
BBX 22 22 0 -2
BITMAP
000000
00FC00
03FF00
07CF80
0F03C0
0E01C0
1E01E0
1C00E0
1C00E0
1C00E0
1C00E0
1E01E0
0E01C0
0F03C0
078780
0BCF40
0DCEC0
0ECDC0
0FCFC0
0FCFC0
000000
000000
ENDCHAR

STARTCHAR jisx0208_2641
ENCODING 9793
SWIDTH 960 0
DWIDTH 22 0
BBX 22 22 0 -2
BITMAP
000000
000000
000000
000000
000000
000000
007C60
01FE60
03EF60
0787E0
0F06E0
0E07C0
1E07C0
1C0780
1C0780
1C0F60
1C1F60
1E7FE0
0FF6E0
07E3C0
000000
000000
ENDCHAR

STARTCHAR jisx0208_2642
ENCODING 9794
SWIDTH 960 0
DWIDTH 22 0
BBX 22 22 0 -2
BITMAP
000000
001FC0
007FE0
0078F0
00F070
00E070
01E070
01C0F0
01C1E0
03FFC0
03BF80
0381E0
0380E0
0780E0
0700E0
0700E0
0F81E0
0FC3C0
0DFFC0
0EFF00
3F0000
3F8000
ENDCHAR

STARTCHAR jisx0208_2643
ENCODING 9795
SWIDTH 960 0
DWIDTH 22 0
BBX 22 22 0 -2
BITMAP
000000
000000
000000
000000
000000
000000
03E0F8
07F3F8
0777F8
063F80
003E00
003C00
007800
007000
007000
00F000
00E000
00E000
01E000
01C000
07F000
07F000
ENDCHAR

STARTCHAR jisx0208_2644
ENCODING 9796
SWIDTH 960 0
DWIDTH 22 0
BBX 22 22 0 -2
BITMAP
000000
007F80
00FFC0
00E0E0
00F1E0
0079E0
00BEC0
01FF00
03C780
0783C0
0701C0
0F01C0
0E01C0
0E01C0
0E03C0
0E0380
0F0780
078F00
07FE00
01FC00
000000
000000
ENDCHAR

STARTCHAR jisx0208_2645
ENCODING 9797
SWIDTH 960 0
DWIDTH 22 0
BBX 22 22 0 -2
BITMAP
000000
000000
000000
000000
000000
000000
00FF00
01FF80
03C3C0
0387C0
038380
03FC00
01FC00
078000
0F00C0
0E00C0
0E01C0
0F07C0
07FF80
03FE00
000000
000000
ENDCHAR

STARTCHAR jisx0208_2646
ENCODING 9798
SWIDTH 960 0
DWIDTH 22 0
BBX 22 22 0 -2
BITMAP
000000
0070E0
00F1E0
00F7C0
00EF80
007E00
001C00
007800
00F000
01E000
03C000
038000
070000
070000
070000
078000
03FF00
03FF80
00FF80
030380
03FF80
01FF00
ENDCHAR

STARTCHAR jisx0208_2647
ENCODING 9799
SWIDTH 960 0
DWIDTH 22 0
BBX 22 22 0 -2
BITMAP
000000
000000
000000
000000
000000
000000
07DF80
0FFFC0
0EF9E0
00F0E0
01E0E0
01C0E0
01C1E0
03C1C0
0381C0
0383C0
078380
070380
1FC780
1FC700
001FC0
001FC0
ENDCHAR

STARTCHAR jisx0208_2648
ENCODING 9800
SWIDTH 960 0
DWIDTH 22 0
BBX 22 22 0 -2
BITMAP
000000
007F00
00FFC0
01E3C0
03C1E0
0380E0
0780E0
0700E0
0700E0
0FFFE0
0FFFE0
0E00E0
0E01C0
0E01C0
0E03C0
0E0380
0F0780
078F00
07FE00
01FC00
000000
000000
ENDCHAR

STARTCHAR jisx0208_2649
ENCODING 9801
SWIDTH 960 0
DWIDTH 22 0
BBX 22 22 0 -2
BITMAP
000000
000000
000000
000000
000000
000000
00F800
00F800
003800
007800
007000
007000
00F000
00E000
00E000
01E700
01CF00
01DE00
01FC00
00F800
000000
000000
ENDCHAR

STARTCHAR jisx0208_264A
ENCODING 9802
SWIDTH 960 0
DWIDTH 22 0
BBX 22 22 0 -2
BITMAP
000000
000000
000000
000000
000000
000000
07C7C0
07CFE0
01DDE0
03DDE0
03B8C0
03F800
07F000
073C00
071C00
0F1C60
0E1CE0
0E1DE0
3F9FC0
3F8F80
000000
000000
ENDCHAR

STARTCHAR jisx0208_264B
ENCODING 9803
SWIDTH 960 0
DWIDTH 22 0
BBX 22 22 0 -2
BITMAP
000000
00F800
01FC00
01DE00
01EE00
01EE00
00CE00
000E00
001E00
003F00
003700
007700
00F700
00E700
01C700
03C700
038730
070770
1FC7F0
1FC3E0
000000
000000
ENDCHAR

STARTCHAR jisx0208_264C
ENCODING 9804
SWIDTH 960 0
DWIDTH 22 0
BBX 22 22 0 -2
BITMAP
000000
000000
000000
000000
000000
000000
00E0E0
00E0E0
00E0E0
01E0E0
01C1E0
01C1C0
03C1C0
0383C0
038380
078380
0707B0
078F70
0FFFF0
0DFBE0
3E0000
3E0000
ENDCHAR

STARTCHAR jisx0208_264D
ENCODING 9805
SWIDTH 960 0
DWIDTH 22 0
BBX 22 22 0 -2
BITMAP
000000
000000
000000
000000
000000
000000
060380
0F07C0
0F87C0
0783C0
03C1C0
03C380
01C380
01C700
01CF00
01DE00
01FC00
01F800
01E000
01C000
000000
000000
ENDCHAR

STARTCHAR jisx0208_264E
ENCODING 9806
SWIDTH 960 0
DWIDTH 22 0
BBX 22 22 0 -2
BITMAP
000000
007000
00F000
00FFC0
007FC0
003800
00F000
00E000
00E000
00FF80
017F80
03E000
078000
070000
070000
078000
07FE00
03FF00
00FF80
010380
01FF80
00FF00
ENDCHAR

STARTCHAR jisx0208_264F
ENCODING 9807
SWIDTH 960 0
DWIDTH 22 0
BBX 22 22 0 -2
BITMAP
000000
000000
000000
000000
000000
000000
00FE00
01FF80
03C780
0783C0
0701C0
0F01C0
0E01C0
0E01C0
0E03C0
0E0380
0F0780
078F00
07FE00
01FC00
000000
000000
ENDCHAR

STARTCHAR jisx0208_2650
ENCODING 9808
SWIDTH 960 0
DWIDTH 22 0
BBX 22 22 0 -2
BITMAP
000000
000000
000000
000000
000000
000038
07FFF8
0FFFF0
0E6380
00E780
00E700
00C700
01CF00
01CE00
018E00
039E60
3B9CE0
7F1DE0
771FC0
3E0F80
000000
000000
ENDCHAR

STARTCHAR jisx0208_2651
ENCODING 9809
SWIDTH 960 0
DWIDTH 22 0
BBX 22 22 0 -2
BITMAP
000000
000000
000000
000000
000000
000000
003F80
007FE0
00F1E0
01E0F0
01C070
03C070
038070
038070
0780F0
0700E0
0781E0
0FC3C0
0DFF80
0EFF00
3F0000
3F8000
ENDCHAR

STARTCHAR jisx0208_2652
ENCODING 9810
SWIDTH 960 0
DWIDTH 22 0
BBX 22 22 0 -2
BITMAP
000000
000000
000000
000000
000000
000038
00FFF8
01FFF0
03C7E0
078380
0701C0
0F01C0
0E01C0
0E01C0
0E03C0
0E0380
0F0780
078F00
07FE00
01FC00
000000
000000
ENDCHAR

STARTCHAR jisx0208_2653
ENCODING 9811
SWIDTH 960 0
DWIDTH 22 0
BBX 22 22 0 -2
BITMAP
000000
000000
000000
000000
000000
0001C0
03FFC0
07FF80
073800
007800
007000
007000
00F000
00E000
00E000
01E700
01CF00
01DE00
01FC00
00F800
000000
000000
ENDCHAR

STARTCHAR jisx0208_2654
ENCODING 9812
SWIDTH 960 0
DWIDTH 22 0
BBX 22 22 0 -2
BITMAP
000000
000000
000000
000000
000000
000000
030700
078780
0783C0
0381C0
0381C0
0781C0
0701C0
0701C0
0F03C0
0E0380
0E0780
0F1F00
07FE00
03F800
000000
000000
ENDCHAR

STARTCHAR jisx0208_2655
ENCODING 9813
SWIDTH 960 0
DWIDTH 22 0
BBX 22 22 0 -2
BITMAP
000000
000000
000000
003E00
003E00
000E00
007F80
01FFC0
03DDE0
079CE0
073CE0
0F38E0
0E38E0
0E39E0
0E79C0
0E73C0
077F80
07EF00
03FC00
00E000
03F800
03F800
ENDCHAR

STARTCHAR jisx0208_2656
ENCODING 9814
SWIDTH 960 0
DWIDTH 22 0
BBX 22 22 0 -2
BITMAP
000000
000000
000000
000000
000000
000000
07C1F8
0FE1F8
0EF0E0
0F73C0
067780
003F00
003E00
003C00
007800
00FC00
01DC00
03DC00
079E70
0F0EF0
3E8FE0
3F87C0
ENDCHAR

STARTCHAR jisx0208_2657
ENCODING 9815
SWIDTH 960 0
DWIDTH 22 0
BBX 22 22 0 -2
BITMAP
000000
000000
000000
000000
000000
000000
0FBD80
1FFDC0
1DDDC0
0FDCC0
03BCC0
07B8C0
0739C0
0F39C0
0E7B80
0E7780
0F7F00
07EE00
03FC00
00E000
03F800
03F800
ENDCHAR

STARTCHAR jisx0208_2658
ENCODING 9816
SWIDTH 960 0
DWIDTH 22 0
BBX 22 22 0 -2
BITMAP
000000
000000
000000
000000
000000
000000
00E380
01E3C0
03C1E0
0780E0
0F1CF0
0E1C70
1E1C70
1C3C70
1C3870
1C38F0
1C78E0
1EF1E0
0FFFC0
07DF80
000000
000000
ENDCHAR

STARTCHAR jisx0208_2721
ENCODING 10017
SWIDTH 960 0
DWIDTH 22 0
BBX 22 22 0 -2
BITMAP
000000
003800
003800
007C00
007C00
005C00
00FE00
00EE00
01CF00
01C700
018700
038780
038380
0703C0
07FDC0
07FFC0
0E01E0
0E00E0
3D03F8
3F03F8
000000
000000
ENDCHAR

STARTCHAR jisx0208_2722
ENCODING 10018
SWIDTH 960 0
DWIDTH 22 0
BBX 22 22 0 -2
BITMAP
000000
1FFFC0
1FFFC0
0701E0
0700E0
070060
070060
070000
070000
07FF80
07FFE0
0701E0
0700F0
070070
070070
070070
0700F0
0701E0
1FFFE0
1FFF80
000000
000000
ENDCHAR

STARTCHAR jisx0208_2723
ENCODING 10019
SWIDTH 960 0
DWIDTH 22 0
BBX 22 22 0 -2
BITMAP
000000
1FFF80
1FFFC0
0701E0
0700E0
0700E0
0700E0
0700E0
0701E0
07FFC0
07FFA0
0701E0
0700F0
070070
070070
070070
0700F0
0701E0
1FFFE0
1FFF80
000000
000000
ENDCHAR

STARTCHAR jisx0208_2724
ENCODING 10020
SWIDTH 960 0
DWIDTH 22 0
BBX 22 22 0 -2
BITMAP
000000
1FFFC0
1FFFC0
0701E0
0700E0
070060
070060
070000
070000
070000
070000
070000
070000
070000
070000
070000
070000
070000
1FE000
1FE000
000000
000000
ENDCHAR

STARTCHAR jisx0208_2725
ENCODING 10021
SWIDTH 960 0
DWIDTH 22 0
BBX 22 22 0 -2
BITMAP
000000
07FFE0
07FFE0
018380
018380
018380
018380
018380
018380
018380
018380
018380
038380
038380
030380
070380
070380
0E0380
1FFFE0
3FFFF0
380070
300030
ENDCHAR

STARTCHAR jisx0208_2726
ENCODING 10022
SWIDTH 960 0
DWIDTH 22 0
BBX 22 22 0 -2
BITMAP
000000
1FFF80
1FFF80
0703C0
0701C0
0700C0
0706C0
070600
070E00
07FE00
07FE00
070E00
070600
070600
070060
070060
0700E0
0701E0
1FFFC0
1FFFC0
000000
000000
ENDCHAR

STARTCHAR jisx0208_2727
ENCODING 10023
SWIDTH 960 0
DWIDTH 22 0
BBX 22 22 0 -2
BITMAP
07DF00
07DF00
038E00
1C7180
1FFF80
0703C0
0701C0
0706C0
0706C0
070E00
07FE00
07FE00
070E00
070600
070660
070060
0700E0
0701E0
1FFFC0
1FFFC0
000000
000000
ENDCHAR

STARTCHAR jisx0208_2728
ENCODING 10024
SWIDTH 960 0
DWIDTH 22 0
BBX 22 22 0 -2
BITMAP
000000
3EFDF8
3EFDF8
0C3860
0E38E0
0739C0
0739C0
03BB80
03FF80
01FF00
03B780
03BB80
07BBC0
0739C0
0F39E0
0E38E0
1E38F0
1C3870
7EFDFC
7EFDFC
000000
000000
ENDCHAR

STARTCHAR jisx0208_2729
ENCODING 10025
SWIDTH 960 0
DWIDTH 22 0
BBX 22 22 0 -2
BITMAP
000000
05FE00
07FF80
0F8780
0E03C0
0C01C0
0C01C0
0003C0
000780
00FF00
00FF80
0003C0
0001E0
0000E0
1800E0
1C00E0
1E01E0
0F87C0
07FF80
01FE00
000000
000000
ENDCHAR

STARTCHAR jisx0208_272A
ENCODING 10026
SWIDTH 960 0
DWIDTH 22 0
BBX 22 22 0 -2
BITMAP
000000
3F80F8
3F81F8
0E03E0
0E03E0
0E06E0
0E0EE0
0E0EE0
0E1CE0
0E3CE0
0E38E0
0E70E0
0EF0E0
0EE0E0
0FC0E0
0DC0E0
0F80E0
0F00E0
3F03F8
3E03F8
000000
000000
ENDCHAR

STARTCHAR jisx0208_272B
ENCODING 10027
SWIDTH 960 0
DWIDTH 22 0
BBX 22 22 0 -2
BITMAP
01EF00
01FF00
3EFEF8
3F81F8
0E03E0
0E06E0
0E0EE0
0E0EE0
0E1CE0
0E3CE0
0E38E0
0E70E0
0EF0E0
0EE0E0
0FC0E0
0DC0E0
0F80E0
0F00E0
3F03F8
3E03F8
000000
000000
ENDCHAR

STARTCHAR jisx0208_272C
ENCODING 10028
SWIDTH 960 0
DWIDTH 22 0
BBX 22 22 0 -2
BITMAP
000000
3F8FE0
3F8FE0
0E0380
0E0700
0E0F00
0E0E00
0E1C00
0FFC00
0FF800
0E7800
0E3C00
0E1E00
0E1E00
0E0F00
0E0780
0E0780
0E03C0
3F85F0
3F87F0
000000
000000
ENDCHAR

STARTCHAR jisx0208_272D
ENCODING 10029
SWIDTH 960 0
DWIDTH 22 0
BBX 22 22 0 -2
BITMAP
000000
03FFE0
03FFE0
00C380
00C380
00C380
00C380
00C380
00C380
00C380
00C380
00C380
00C380
00C380
0CC380
1EC380
1EC380
1FC380
1DCFE0
0F8FE0
000000
000000
ENDCHAR

STARTCHAR jisx0208_272E
ENCODING 10030
SWIDTH 960 0
DWIDTH 22 0
BBX 22 22 0 -2
BITMAP
000000
7E01F8
7E01F8
1E03E0
1F03E0
1702E0
1706E0
1F86E0
1B86E0
1B8EE0
1BCEE0
19CCE0
19DCE0
19DCE0
18D8E0
18F8E0
18F8E0
1870E0
7E73F8
7E73F8
000000
000000
ENDCHAR

STARTCHAR jisx0208_272F
ENCODING 10031
SWIDTH 960 0
DWIDTH 22 0
BBX 22 22 0 -2
BITMAP
000000
3F83F8
3F83F8
0E00E0
0E00E0
0E00E0
0E00E0
0E00E0
0E00E0
0FFFE0
0FFFE0
0E00E0
0E00E0
0E00E0
0E00E0
0E00E0
0E00E0
0E00E0
3F83F8
3F83F8
000000
000000
ENDCHAR

STARTCHAR jisx0208_2730
ENCODING 10032
SWIDTH 960 0
DWIDTH 22 0
BBX 22 22 0 -2
BITMAP
000000
00FE00
03FF80
07C7C0
0F01E0
0E00E0
1E00F0
1C0070
1C0070
1C0070
1C0070
1C0070
1C0070
1C0070
1E00F0
0E00E0
0F01E0
07C7C0
03FF80
00FE00
000000
000000
ENDCHAR

STARTCHAR jisx0208_2731
ENCODING 10033
SWIDTH 960 0
DWIDTH 22 0
BBX 22 22 0 -2
BITMAP
000000
3FFFF8
3FFFF8
0E00E0
0E00E0
0E00E0
0E00E0
0E00E0
0E00E0
0E00E0
0E00E0
0E00E0
0E00E0
0E00E0
0E00E0
0E00E0
0E00E0
0E00E0
3F83F8
3F83F8
000000
000000
ENDCHAR

STARTCHAR jisx0208_2732
ENCODING 10034
SWIDTH 960 0
DWIDTH 22 0
BBX 22 22 0 -2
BITMAP
000000
1FFF00
1FFFC0
0703C0
0701E0
0700E0
0700E0
0700E0
0700E0
0701E0
0703C0
07FFC0
07FF00
070000
070000
070000
070000
070000
1FE000
1FE000
000000
000000
ENDCHAR

STARTCHAR jisx0208_2733
ENCODING 10035
SWIDTH 960 0
DWIDTH 22 0
BBX 22 22 0 -2
BITMAP
000000
00FEC0
03FFC0
07C7C0
0F01E0
0E00E0
1E0060
1C0060
1C0000
1C0000
1C0000
1C0000
1C0000
1C0060
1E0060
0E00E0
0F01E0
07C7C0
03FF80
00FE00
000000
000000
ENDCHAR

STARTCHAR jisx0208_2734
ENCODING 10036
SWIDTH 960 0
DWIDTH 22 0
BBX 22 22 0 -2
BITMAP
000000
0FFFE0
0FFFE0
1E38F0
1C3870
183830
183830
003800
003800
003800
003800
003800
003800
003800
003800
003800
003800
003800
00FE00
00FE00
000000
000000
ENDCHAR

STARTCHAR jisx0208_2735
ENCODING 10037
SWIDTH 960 0
DWIDTH 22 0
BBX 22 22 0 -2
BITMAP
000000
1FC7F0
1FC7F0
0701C0
038180
038380
03C380
01C700
01E700
00E600
00EE00
00EE00
007C00
007C00
063800
0F3800
0F7000
0FF000
0EE000
07C000
000000
000000
ENDCHAR

STARTCHAR jisx0208_2736
ENCODING 10038
SWIDTH 960 0
DWIDTH 22 0
BBX 22 22 0 -2
BITMAP
000000
00FE00
00FE00
003800
01FF00
07FFC0
0FBBE0
0E38E0
1E38F0
1C3870
1C3870
1C3870
1E38F0
0E38E0
0FBBE0
07FFC0
01FF00
003800
00FE00
00FE00
000000
000000
ENDCHAR

STARTCHAR jisx0208_2737
ENCODING 10039
SWIDTH 960 0
DWIDTH 22 0
BBX 22 22 0 -2
BITMAP
000000
3FC7F0
3FC7F0
0F01C0
078380
03C700
01EF00
01EE00
00FC00
007C00
007800
00FC00
00DE00
01CF00
03CF00
038780
0703C0
0F03E0
3E85F8
3F87F8
000000
000000
ENDCHAR

STARTCHAR jisx0208_2738
ENCODING 10040
SWIDTH 960 0
DWIDTH 22 0
BBX 22 22 0 -2
BITMAP
000000
3F87F0
3F87F0
0E01C0
0E01C0
0E01C0
0E01C0
0E01C0
0E01C0
0E01C0
0E01C0
0E01C0
0E01C0
0E01C0
0E01C0
0E01C0
0E01C0
0E01C0
3FFFF0
3FFFF8
000038
000018
ENDCHAR

STARTCHAR jisx0208_2739
ENCODING 10041
SWIDTH 960 0
DWIDTH 22 0
BBX 22 22 0 -2
BITMAP
000000
1FC7F0
1FC7F0
0701C0
0701C0
0701C0
0701C0
0701C0
0701C0
0701C0
0701C0
0703C0
0787C0
03FFC0
01FDC0
0001C0
0001C0
0001C0
0007F0
0007F0
000000
000000
ENDCHAR

STARTCHAR jisx0208_273A
ENCODING 10042
SWIDTH 960 0
DWIDTH 22 0
BBX 22 22 0 -2
BITMAP
000000
7EFDFC
7EFDFC
1C3870
1C3870
1C3870
1C3870
1C3870
1C3870
1C3870
1C3870
1C3870
1C3870
1C3870
1C3870
1C3870
1C3870
1C3870
7FFFFC
7FFFFC
000000
000000
ENDCHAR

STARTCHAR jisx0208_273B
ENCODING 10043
SWIDTH 960 0
DWIDTH 22 0
BBX 22 22 0 -2
BITMAP
000000
7EFDFC
7EFDFC
1C3870
1C3870
1C3870
1C3870
1C3870
1C3870
1C3870
1C3870
1C3870
1C3870
1C3870
1C3870
1C3870
1C3870
1C3870
7FFFFC
7FFFFC
00000C
000004
ENDCHAR

STARTCHAR jisx0208_273C
ENCODING 10044
SWIDTH 960 0
DWIDTH 22 0
BBX 22 22 0 -2
BITMAP
000000
3FE000
3FE000
7B8000
738000
638000
638000
03FF80
03FFE0
0381E0
0380F0
038070
038070
038070
038070
038070
0380F0
0381E0
0FFFE0
0FFF80
000000
000000
ENDCHAR

STARTCHAR jisx0208_273D
ENCODING 10045
SWIDTH 960 0
DWIDTH 22 0
BBX 22 22 0 -2
BITMAP
000000
7F01FC
7F01FC
1C0070
1C0070
1C0070
1C0070
1FF870
1FFE70
1C1E70
1C0F70
1C0770
1C0770
1C0770
1C0770
1C0770
1C0F70
1C1E70
7FFFFC
7FF9FC
000000
000000
ENDCHAR

STARTCHAR jisx0208_273E
ENCODING 10046
SWIDTH 960 0
DWIDTH 22 0
BBX 22 22 0 -2
BITMAP
000000
1FC000
1FC000
070000
070000
070000
070000
07FF00
07FFC0
0703C0
0701E0
0700E0
0700E0
0700E0
0700E0
0700E0
0701E0
0703C0
1FFFC0
1FFF00
000000
000000
ENDCHAR

STARTCHAR jisx0208_273F
ENCODING 10047
SWIDTH 960 0
DWIDTH 22 0
BBX 22 22 0 -2
BITMAP
000000
06FE00
07FF80
07C7C0
0F01E0
0E00E0
0C00F0
0C0070
000070
01FFF0
01FFF0
000070
000070
0C0070
0C00F0
0E00E0
0F01E0
07C7C0
03FF80
00FE00
000000
000000
ENDCHAR

STARTCHAR jisx0208_2740
ENCODING 10048
SWIDTH 960 0
DWIDTH 22 0
BBX 22 22 0 -2
BITMAP
000000
7F0FC0
7F3FF0
1C7CF8
1C7038
1CF03C
1CE01C
1CE01C
1CE01C
1FE01C
1FE01C
1CE01C
1CE01C
1CE01C
1CE01C
1CF03C
1C7038
1C7CF8
7F3FF0
7F0FC0
000000
000000
ENDCHAR

STARTCHAR jisx0208_2741
ENCODING 10049
SWIDTH 960 0
DWIDTH 22 0
BBX 22 22 0 -2
BITMAP
000000
00FFF8
03FFF8
03C0E0
0780E0
0700E0
0700E0
0700E0
0780E0
03C0E0
03FFE0
00FFE0
03C0E0
0380E0
0380E0
0380E0
3380E0
3B80E0
3F83F8
1F03F8
000000
000000
ENDCHAR

STARTCHAR jisx0208_2751
ENCODING 10065
SWIDTH 960 0
DWIDTH 22 0
BBX 22 22 0 -2
BITMAP
000000
000000
000000
000000
000000
000000
01FE00
03FF00
03C780
03C380
018F80
007F80
01FB80
03E380
078380
070380
0707E0
078F60
03FFE0
01FDC0
000000
000000
ENDCHAR

STARTCHAR jisx0208_2752
ENCODING 10066
SWIDTH 960 0
DWIDTH 22 0
BBX 22 22 0 -2
BITMAP
000000
00F9C0
03FFC0
03DF80
078F00
070000
07FE00
06FF80
07C780
0783C0
0701C0
0701C0
0701C0
0701C0
0701C0
0701C0
0783C0
03C780
03FF80
00FE00
000000
000000
ENDCHAR

STARTCHAR jisx0208_2753
ENCODING 10067
SWIDTH 960 0
DWIDTH 22 0
BBX 22 22 0 -2
BITMAP
000000
000000
000000
000000
000000
000000
0FFE00
0FFF00
038780
038380
038380
038780
03FF00
03FF80
0383C0
0381C0
0381C0
0383C0
0FFF80
0FFF00
000000
000000
ENDCHAR

STARTCHAR jisx0208_2754
ENCODING 10068
SWIDTH 960 0
DWIDTH 22 0
BBX 22 22 0 -2
BITMAP
000000
000000
000000
000000
000000
000000
07FF80
07FF80
01C3C0
01C1C0
01C0C0
01C000
01C000
01C000
01C000
01C000
01C000
01C000
07F000
07F000
000000
000000
ENDCHAR

STARTCHAR jisx0208_2755
ENCODING 10069
SWIDTH 960 0
DWIDTH 22 0
BBX 22 22 0 -2
BITMAP
000000
000000
000000
000000
000000
000000
07FFC0
07FFC0
018700
018700
018700
018700
018700
018700
038700
038700
070700
070700
0EFF80
1FFFC0
1C01C0
1800C0
ENDCHAR

STARTCHAR jisx0208_2756
ENCODING 10070
SWIDTH 960 0
DWIDTH 22 0
BBX 22 22 0 -2
BITMAP
000000
000000
000000
000000
000000
000000
00FE00
03FF80
03C780
0783C0
0701C0
0701C0
07FFC0
07FFC0
070000
0701C0
0783C0
03C780
03FF00
00FE00
000000
000000
ENDCHAR

STARTCHAR jisx0208_2757
ENCODING 10071
SWIDTH 960 0
DWIDTH 22 0
BBX 22 22 0 -2
BITMAP
000000
000000
01C700
03EF80
03EF80
01C700
003800
03FF80
03C780
0783C0
0701C0
0701C0
07FFC0
07FFC0
070000
0701C0
0783C0
03C780
03FF00
00FE00
000000
000000
ENDCHAR

STARTCHAR jisx0208_2758
ENCODING 10072
SWIDTH 960 0
DWIDTH 22 0
BBX 22 22 0 -2
BITMAP
000000
000000
000000
000000
000000
000000
1F7BF0
1F7BF0
0638C0
0739C0
03BB80
03BB80
01FF00
03FF80
03BB80
07BBC0
0739C0
0F39E0
3E7AF8
3F7BF8
000000
000000
ENDCHAR

STARTCHAR jisx0208_2759
ENCODING 10073
SWIDTH 960 0
DWIDTH 22 0
BBX 22 22 0 -2
BITMAP
000000
000000
000000
000000
000000
000000
02FE00
03FF00
03C780
038380
030380
037F80
007F00
000780
000380
030380
038380
03C780
01FF00
00FE00
000000
000000
ENDCHAR

STARTCHAR jisx0208_275A
ENCODING 10074
SWIDTH 960 0
DWIDTH 22 0
BBX 22 22 0 -2
BITMAP
000000
000000
000000
000000
000000
000000
1FC3E0
1FC7E0
070F80
070F80
071B80
073B80
073B80
077380
07F380
06E380
07C380
07C380
1F8FE0
1F0FE0
000000
000000
ENDCHAR

STARTCHAR jisx0208_275B
ENCODING 10075
SWIDTH 960 0
DWIDTH 22 0
BBX 22 22 0 -2
BITMAP
000000
000000
00EE00
01EF00
01FF00
00FE00
1F01E0
1FC7E0
070F80
070F80
071B80
073B80
073B80
077380
07F380
06E380
07C380
07C380
1F8FE0
1F0FE0
000000
000000
ENDCHAR

STARTCHAR jisx0208_275C
ENCODING 10076
SWIDTH 960 0
DWIDTH 22 0
BBX 22 22 0 -2
BITMAP
000000
000000
000000
000000
000000
000000
0FEFE0
0FEFE0
038380
038700
038E00
039E00
03FC00
03FE00
038E00
038F00
038700
038780
0FEBE0
0FEFE0
000000
000000
ENDCHAR

STARTCHAR jisx0208_275D
ENCODING 10077
SWIDTH 960 0
DWIDTH 22 0
BBX 22 22 0 -2
BITMAP
000000
000000
000000
000000
000000
000000
03FFC0
03FFC0
00C700
00C700
00C700
00C700
00C700
00C700
00C700
00C700
0EC700
1FC700
1DDFC0
0F9FC0
000000
000000
ENDCHAR

STARTCHAR jisx0208_275E
ENCODING 10078
SWIDTH 960 0
DWIDTH 22 0
BBX 22 22 0 -2
BITMAP
000000
000000
000000
000000
000000
000000
1F03F0
1F83F0
0787C0
07C7C0
05C5C0
05CDC0
07EDC0
06EDC0
06FDC0
06DDC0
0679C0
0679C0
1FB7F0
1FB7F0
000000
000000
ENDCHAR

STARTCHAR jisx0208_275F
ENCODING 10079
SWIDTH 960 0
DWIDTH 22 0
BBX 22 22 0 -2
BITMAP
000000
000000
000000
000000
000000
000000
1FCFE0
1FCFE0
070380
070380
070380
070380
07FF80
07FF80
070380
070380
070380
070380
1FCFE0
1FCFE0
000000
000000
ENDCHAR

STARTCHAR jisx0208_2760
ENCODING 10080
SWIDTH 960 0
DWIDTH 22 0
BBX 22 22 0 -2
BITMAP
000000
000000
000000
000000
000000
000000
00FE00
03FF80
03C780
0783C0
0701C0
0701C0
0701C0
0701C0
0701C0
0701C0
0783C0
03C780
03FF80
00FE00
000000
000000
ENDCHAR

STARTCHAR jisx0208_2761
ENCODING 10081
SWIDTH 960 0
DWIDTH 22 0
BBX 22 22 0 -2
BITMAP
000000
000000
000000
000000
000000
000000
0FFFE0
0FFFE0
038380
038380
038380
038380
038380
038380
038380
038380
038380
038380
0FEFE0
0FEFE0
000000
000000
ENDCHAR

STARTCHAR jisx0208_2762
ENCODING 10082
SWIDTH 960 0
DWIDTH 22 0
BBX 22 22 0 -2
BITMAP
000000
000000
000000
000000
000000
000000
0F7F00
0FFFC0
03E3C0
03C1E0
0380E0
0380E0
0380E0
0380E0
0380E0
03C1E0
03E3C0
03FFC0
037F00
038000
0FE000
0FE000
ENDCHAR

STARTCHAR jisx0208_2763
ENCODING 10083
SWIDTH 960 0
DWIDTH 22 0
BBX 22 22 0 -2
BITMAP
000000
000000
000000
000000
000000
000000
00FF00
03FF80
03C3C0
0781C0
0703C0
0703C0
070180
070000
070000
0700C0
0781C0
03C3C0
03FF80
00FF00
000000
000000
ENDCHAR

STARTCHAR jisx0208_2764
ENCODING 10084
SWIDTH 960 0
DWIDTH 22 0
BBX 22 22 0 -2
BITMAP
000000
000000
000000
000000
000000
000000
07FFC0
07FFC0
0F39E0
0E38E0
0C3860
003800
003800
003800
003800
003800
003800
003800
00FE00
00FE00
000000
000000
ENDCHAR

STARTCHAR jisx0208_2765
ENCODING 10085
SWIDTH 960 0
DWIDTH 22 0
BBX 22 22 0 -2
BITMAP
000000
000000
000000
000000
000000
000000
0FE7E0
0FE7E0
038180
03C380
01C700
01E700
00EE00
00EE00
007C00
007C00
003800
033800
077000
07F000
07E000
03C000
ENDCHAR

STARTCHAR jisx0208_2766
ENCODING 10086
SWIDTH 960 0
DWIDTH 22 0
BBX 22 22 0 -2
BITMAP
000000
00F800
00F800
003800
003800
003800
07BFC0
0FF7E0
1EFEF0
1C7C70
1C3870
1C3870
1C3870
1C3870
1C3870
1C7C70
1EFEF0
0FFFE0
07B7C0
003800
00FE00
00FE00
ENDCHAR

STARTCHAR jisx0208_2767
ENCODING 10087
SWIDTH 960 0
DWIDTH 22 0
BBX 22 22 0 -2
BITMAP
000000
000000
000000
000000
000000
000000
1FDFC0
1FDFC0
078700
03CE00
01DC00
00FC00
00F800
007C00
00FC00
01DE00
03CF00
078F80
1F57E0
1FDFE0
000000
000000
ENDCHAR

STARTCHAR jisx0208_2768
ENCODING 10088
SWIDTH 960 0
DWIDTH 22 0
BBX 22 22 0 -2
BITMAP
000000
000000
000000
000000
000000
000000
0FEFE0
0FEFE0
038380
038380
038380
038380
038380
038380
038380
038380
038380
038380
0FFFE0
0FFFF0
000070
000030
ENDCHAR

STARTCHAR jisx0208_2769
ENCODING 10089
SWIDTH 960 0
DWIDTH 22 0
BBX 22 22 0 -2
BITMAP
000000
000000
000000
000000
000000
000000
0FEFE0
0FEFE0
038380
038380
038380
038380
038380
038780
03CF80
01FF80
00FB80
000380
000FE0
000FE0
000000
000000
ENDCHAR

STARTCHAR jisx0208_276A
ENCODING 10090
SWIDTH 960 0
DWIDTH 22 0
BBX 22 22 0 -2
BITMAP
000000
000000
000000
000000
000000
000000
3F7BF8
3F7BF8
0E38E0
0E38E0
0E38E0
0E38E0
0E38E0
0E38E0
0E38E0
0E38E0
0E38E0
0E38E0
3FFFF8
3FFFF8
000000
000000
ENDCHAR

STARTCHAR jisx0208_276B
ENCODING 10091
SWIDTH 960 0
DWIDTH 22 0
BBX 22 22 0 -2
BITMAP
000000
000000
000000
000000
000000
000000
3F7BF8
3F7BF8
0E38E0
0E38E0
0E38E0
0E38E0
0E38E0
0E38E0
0E38E0
0E38E0
0E38E0
0E38E0
3FFFF8
3FFFFC
00001C
00000C
ENDCHAR

STARTCHAR jisx0208_276C
ENCODING 10092
SWIDTH 960 0
DWIDTH 22 0
BBX 22 22 0 -2
BITMAP
000000
000000
000000
000000
000000
000000
07F800
07F800
0EE000
0EE000
0CE000
00FF80
00FFC0
00E1E0
00E0E0
00E0E0
00E0E0
00E1E0
03FFC0
03FF80
000000
000000
ENDCHAR

STARTCHAR jisx0208_276D
ENCODING 10093
SWIDTH 960 0
DWIDTH 22 0
BBX 22 22 0 -2
BITMAP
000000
000000
000000
000000
000000
000000
3F87F0
3F87F0
0E01C0
0E01C0
0E01C0
0FF1C0
0FF9C0
0E3DC0
0E1DC0
0E1DC0
0E1DC0
0E3DC0
3FFBF0
3FF7F0
000000
000000
ENDCHAR

STARTCHAR jisx0208_276E
ENCODING 10094
SWIDTH 960 0
DWIDTH 22 0
BBX 22 22 0 -2
BITMAP
000000
000000
000000
000000
000000
000000
07F000
07F000
01C000
01C000
01C000
01FF00
01FF80
01C3C0
01C1C0
01C1C0
01C1C0
01C3C0
07FF80
07FF00
000000
000000
ENDCHAR

STARTCHAR jisx0208_276F
ENCODING 10095
SWIDTH 960 0
DWIDTH 22 0
BBX 22 22 0 -2
BITMAP
000000
000000
000000
000000
000000
000000
01FE00
03FF80
078780
0703C0
0781C0
0781C0
037FC0
00FFC0
0001C0
0601C0
0703C0
078780
03FF80
01FE00
000000
000000
ENDCHAR

STARTCHAR jisx0208_2770
ENCODING 10096
SWIDTH 960 0
DWIDTH 22 0
BBX 22 22 0 -2
BITMAP
000000
000000
000000
000000
000000
000000
3F8F80
3FBFE0
0E3DE0
0E78F0
0E7070
0E7070
0FF070
0FF070
0E7070
0E7070
0E78F0
0E3DE0
3FBFE0
3F8F80
000000
000000
ENDCHAR

STARTCHAR jisx0208_2771
ENCODING 10097
SWIDTH 960 0
DWIDTH 22 0
BBX 22 22 0 -2
BITMAP
000000
000000
000000
000000
000000
000000
00FFE0
01FFE0
03C380
038380
038380
03C380
01FF80
00FF80
01C380
01C380
0DC380
0FC380
0F8FE0
070FE0
000000
000000
ENDCHAR

STARTCHAR jisx0208_2821
ENCODING 10273
SWIDTH 960 0
DWIDTH 22 0
BBX 22 22 0 -2
BITMAP
000000
000000
000000
000000
000000
000000
000000
000000
000000
FFFFFC
FFFFFC
000000
000000
000000
000000
000000
000000
000000
000000
000000
000000
000000
ENDCHAR

STARTCHAR jisx0208_2822
ENCODING 10274
SWIDTH 960 0
DWIDTH 22 0
BBX 22 22 0 -2
BITMAP
003000
003000
003000
003000
003000
003000
003000
003000
003000
003000
003000
003000
003000
003000
003000
003000
003000
003000
003000
003000
003000
003000
ENDCHAR

STARTCHAR jisx0208_2823
ENCODING 10275
SWIDTH 960 0
DWIDTH 22 0
BBX 22 22 0 -2
BITMAP
000000
000000
000000
000000
000000
000000
000000
000000
000000
003FFC
003FFC
003000
003000
003000
003000
003000
003000
003000
003000
003000
003000
003000
ENDCHAR

STARTCHAR jisx0208_2824
ENCODING 10276
SWIDTH 960 0
DWIDTH 22 0
BBX 22 22 0 -2
BITMAP
000000
000000
000000
000000
000000
000000
000000
000000
000000
FFF000
FFF000
003000
003000
003000
003000
003000
003000
003000
003000
003000
003000
003000
ENDCHAR

STARTCHAR jisx0208_2825
ENCODING 10277
SWIDTH 960 0
DWIDTH 22 0
BBX 22 22 0 -2
BITMAP
003000
003000
003000
003000
003000
003000
003000
003000
003000
FFF000
FFF000
000000
000000
000000
000000
000000
000000
000000
000000
000000
000000
000000
ENDCHAR

STARTCHAR jisx0208_2826
ENCODING 10278
SWIDTH 960 0
DWIDTH 22 0
BBX 22 22 0 -2
BITMAP
003000
003000
003000
003000
003000
003000
003000
003000
003000
003FFC
003FFC
000000
000000
000000
000000
000000
000000
000000
000000
000000
000000
000000
ENDCHAR

STARTCHAR jisx0208_2827
ENCODING 10279
SWIDTH 960 0
DWIDTH 22 0
BBX 22 22 0 -2
BITMAP
003000
003000
003000
003000
003000
003000
003000
003000
003000
003FFC
003FFC
003000
003000
003000
003000
003000
003000
003000
003000
003000
003000
003000
ENDCHAR

STARTCHAR jisx0208_2828
ENCODING 10280
SWIDTH 960 0
DWIDTH 22 0
BBX 22 22 0 -2
BITMAP
000000
000000
000000
000000
000000
000000
000000
000000
000000
FFFFFC
FFFFFC
003000
003000
003000
003000
003000
003000
003000
003000
003000
003000
003000
ENDCHAR

STARTCHAR jisx0208_2829
ENCODING 10281
SWIDTH 960 0
DWIDTH 22 0
BBX 22 22 0 -2
BITMAP
003000
003000
003000
003000
003000
003000
003000
003000
003000
FFF000
FFF000
003000
003000
003000
003000
003000
003000
003000
003000
003000
003000
003000
ENDCHAR

STARTCHAR jisx0208_282A
ENCODING 10282
SWIDTH 960 0
DWIDTH 22 0
BBX 22 22 0 -2
BITMAP
003000
003000
003000
003000
003000
003000
003000
003000
003000
FFFFFC
FFFFFC
000000
000000
000000
000000
000000
000000
000000
000000
000000
000000
000000
ENDCHAR

STARTCHAR jisx0208_282B
ENCODING 10283
SWIDTH 960 0
DWIDTH 22 0
BBX 22 22 0 -2
BITMAP
003000
003000
003000
003000
003000
003000
003000
003000
003000
FFFFFC
FFFFFC
003000
003000
003000
003000
003000
003000
003000
003000
003000
003000
003000
ENDCHAR

STARTCHAR jisx0208_282C
ENCODING 10284
SWIDTH 960 0
DWIDTH 22 0
BBX 22 22 0 -2
BITMAP
000000
000000
000000
000000
000000
000000
000000
000000
000000
FFFFFC
FFFFFC
FFFFFC
000000
000000
000000
000000
000000
000000
000000
000000
000000
000000
ENDCHAR

STARTCHAR jisx0208_282D
ENCODING 10285
SWIDTH 960 0
DWIDTH 22 0
BBX 22 22 0 -2
BITMAP
003800
003800
003800
003800
003800
003800
003800
003800
003800
003800
003800
003800
003800
003800
003800
003800
003800
003800
003800
003800
003800
003800
ENDCHAR

STARTCHAR jisx0208_282E
ENCODING 10286
SWIDTH 960 0
DWIDTH 22 0
BBX 22 22 0 -2
BITMAP
000000
000000
000000
000000
000000
000000
000000
000000
000000
003FFC
003FFC
003FFC
003800
003800
003800
003800
003800
003800
003800
003800
003800
003800
ENDCHAR

STARTCHAR jisx0208_282F
ENCODING 10287
SWIDTH 960 0
DWIDTH 22 0
BBX 22 22 0 -2
BITMAP
000000
000000
000000
000000
000000
000000
000000
000000
000000
FFF800
FFF800
FFF800
003800
003800
003800
003800
003800
003800
003800
003800
003800
003800
ENDCHAR

STARTCHAR jisx0208_2830
ENCODING 10288
SWIDTH 960 0
DWIDTH 22 0
BBX 22 22 0 -2
BITMAP
003800
003800
003800
003800
003800
003800
003800
003800
003800
FFF800
FFF800
FFF800
000000
000000
000000
000000
000000
000000
000000
000000
000000
000000
ENDCHAR

STARTCHAR jisx0208_2831
ENCODING 10289
SWIDTH 960 0
DWIDTH 22 0
BBX 22 22 0 -2
BITMAP
003800
003800
003800
003800
003800
003800
003800
003800
003800
003FFC
003FFC
003FFC
000000
000000
000000
000000
000000
000000
000000
000000
000000
000000
ENDCHAR

STARTCHAR jisx0208_2832
ENCODING 10290
SWIDTH 960 0
DWIDTH 22 0
BBX 22 22 0 -2
BITMAP
003800
003800
003800
003800
003800
003800
003800
003800
003800
003FFC
003FFC
003FFC
003800
003800
003800
003800
003800
003800
003800
003800
003800
003800
ENDCHAR

STARTCHAR jisx0208_2833
ENCODING 10291
SWIDTH 960 0
DWIDTH 22 0
BBX 22 22 0 -2
BITMAP
000000
000000
000000
000000
000000
000000
000000
000000
000000
FFFFFC
FFFFFC
FFFFFC
003800
003800
003800
003800
003800
003800
003800
003800
003800
003800
ENDCHAR

STARTCHAR jisx0208_2834
ENCODING 10292
SWIDTH 960 0
DWIDTH 22 0
BBX 22 22 0 -2
BITMAP
003800
003800
003800
003800
003800
003800
003800
003800
003800
FFF800
FFF800
FFF800
003800
003800
003800
003800
003800
003800
003800
003800
003800
003800
ENDCHAR

STARTCHAR jisx0208_2835
ENCODING 10293
SWIDTH 960 0
DWIDTH 22 0
BBX 22 22 0 -2
BITMAP
003800
003800
003800
003800
003800
003800
003800
003800
003800
FFFFFC
FFFFFC
FFFFFC
000000
000000
000000
000000
000000
000000
000000
000000
000000
000000
ENDCHAR

STARTCHAR jisx0208_2836
ENCODING 10294
SWIDTH 960 0
DWIDTH 22 0
BBX 22 22 0 -2
BITMAP
003800
003800
003800
003800
003800
003800
003800
003800
003800
FFFFFC
FFFFFC
FFFFFC
003800
003800
003800
003800
003800
003800
003800
003800
003800
003800
ENDCHAR

STARTCHAR jisx0208_2837
ENCODING 10295
SWIDTH 960 0
DWIDTH 22 0
BBX 22 22 0 -2
BITMAP
003800
003800
003800
003800
003800
003800
003800
003800
003800
003FFC
003FFC
003800
003800
003800
003800
003800
003800
003800
003800
003800
003800
003800
ENDCHAR

STARTCHAR jisx0208_2838
ENCODING 10296
SWIDTH 960 0
DWIDTH 22 0
BBX 22 22 0 -2
BITMAP
000000
000000
000000
000000
000000
000000
000000
000000
000000
FFFFFC
FFFFFC
FFFFFC
003000
003000
003000
003000
003000
003000
003000
003000
003000
003000
ENDCHAR

STARTCHAR jisx0208_2839
ENCODING 10297
SWIDTH 960 0
DWIDTH 22 0
BBX 22 22 0 -2
BITMAP
003800
003800
003800
003800
003800
003800
003800
003800
003800
FFF800
FFF800
003800
003800
003800
003800
003800
003800
003800
003800
003800
003800
003800
ENDCHAR

STARTCHAR jisx0208_283A
ENCODING 10298
SWIDTH 960 0
DWIDTH 22 0
BBX 22 22 0 -2
BITMAP
003000
003000
003000
003000
003000
003000
003000
003000
003000
FFFFFC
FFFFFC
FFFFFC
000000
000000
000000
000000
000000
000000
000000
000000
000000
000000
ENDCHAR

STARTCHAR jisx0208_283B
ENCODING 10299
SWIDTH 960 0
DWIDTH 22 0
BBX 22 22 0 -2
BITMAP
003000
003000
003000
003000
003000
003000
003000
003000
003000
FFFFFC
FFFFFC
FFFFFC
003000
003000
003000
003000
003000
003000
003000
003000
003000
003000
ENDCHAR

STARTCHAR jisx0208_283C
ENCODING 10300
SWIDTH 960 0
DWIDTH 22 0
BBX 22 22 0 -2
BITMAP
003000
003000
003000
003000
003000
003000
003000
003000
003000
003FFC
003FFC
003FFC
003000
003000
003000
003000
003000
003000
003000
003000
003000
003000
ENDCHAR

STARTCHAR jisx0208_283D
ENCODING 10301
SWIDTH 960 0
DWIDTH 22 0
BBX 22 22 0 -2
BITMAP
000000
000000
000000
000000
000000
000000
000000
000000
000000
FFFFFC
FFFFFC
003800
003800
003800
003800
003800
003800
003800
003800
003800
003800
003800
ENDCHAR

STARTCHAR jisx0208_283E
ENCODING 10302
SWIDTH 960 0
DWIDTH 22 0
BBX 22 22 0 -2
BITMAP
003000
003000
003000
003000
003000
003000
003000
003000
003000
FFF000
FFF000
FFF000
003000
003000
003000
003000
003000
003000
003000
003000
003000
003000
ENDCHAR

STARTCHAR jisx0208_283F
ENCODING 10303
SWIDTH 960 0
DWIDTH 22 0
BBX 22 22 0 -2
BITMAP
003800
003800
003800
003800
003800
003800
003800
003800
003800
FFFFFC
FFFFFC
000000
000000
000000
000000
000000
000000
000000
000000
000000
000000
000000
ENDCHAR

STARTCHAR jisx0208_2840
ENCODING 10304
SWIDTH 960 0
DWIDTH 22 0
BBX 22 22 0 -2
BITMAP
003800
003800
003800
003800
003800
003800
003800
003800
003800
FFFFFC
FFFFFC
003800
003800
003800
003800
003800
003800
003800
003800
003800
003800
003800
ENDCHAR

STARTCHAR jisx0208_2D21
ENCODING 11553
SWIDTH 960 0
DWIDTH 22 0
BBX 22 22 0 -2
BITMAP
01FF00
0783C0
0E00E0
1C0070
383838
70F81C
60380C
E0380C
C03804
C03804
C03804
C03804
C03804
C03804
E0380C
60380C
70381C
38FE38
1C0070
0E00E0
0783C0
01FF00
ENDCHAR

STARTCHAR jisx0208_2D22
ENCODING 11554
SWIDTH 960 0
DWIDTH 22 0
BBX 22 22 0 -2
BITMAP
01FF00
0783C0
0E00E0
1C0070
38FE38
71C71C
63838C
E3C38C
C3C384
C18384
C00704
C01E04
C07804
C0E004
E1C18C
63818C
73FF9C
3BFFB8
1C0070
0E00E0
0783C0
01FF00
ENDCHAR

STARTCHAR jisx0208_2D23
ENCODING 11555
SWIDTH 960 0
DWIDTH 22 0
BBX 22 22 0 -2
BITMAP
01FF00
0783C0
0E00E0
1C0070
38FE38
71C71C
63C38C
E3C38C
C18384
C00704
C07E04
C00704
C18384
C3C384
E3C38C
63838C
71C71C
38FE38
1C0070
0E00E0
0783C0
01FF00
ENDCHAR

STARTCHAR jisx0208_2D24
ENCODING 11556
SWIDTH 960 0
DWIDTH 22 0
BBX 22 22 0 -2
BITMAP
01FF00
0783C0
0E00E0
1C0070
380E38
701E1C
603E0C
E02E0C
C06E04
C0EE04
C1CE04
C18E04
C38D84
C70D84
E7FF8C
600E0C
700E1C
381F38
1C0070
0E00E0
0783C0
01FF00
ENDCHAR

STARTCHAR jisx0208_2D25
ENCODING 11557
SWIDTH 960 0
DWIDTH 22 0
BBX 22 22 0 -2
BITMAP
01FF00
0783C0
0E00E0
1C0370
39FF38
71FF1C
61800C
E1800C
C38004
C2FE04
C3C704
C38384
C00384
C38384
E3C38C
63838C
71871C
38FE38
1C0070
0E00E0
0783C0
01FF00
ENDCHAR

STARTCHAR jisx0208_2D26
ENCODING 11558
SWIDTH 960 0
DWIDTH 22 0
BBX 22 22 0 -2
BITMAP
01FF00
0783C0
0E00E0
1C0070
38FE38
71C71C
63878C
E3830C
C38004
C3FE04
C3C704
C38384
C38384
C38384
E3838C
63838C
71C71C
38FE38
1C0070
0E00E0
0783C0
01FF00
ENDCHAR

STARTCHAR jisx0208_2D27
ENCODING 11559
SWIDTH 960 0
DWIDTH 22 0
BBX 22 22 0 -2
BITMAP
01FF00
0783C0
0E00E0
1C0070
39FFB8
71FF9C
63870C
E3060C
C00E04
C00C04
C01C04
C01C04
C01804
C03804
E0380C
60380C
70381C
383838
1C0070
0E00E0
0783C0
01FF00
ENDCHAR

STARTCHAR jisx0208_2D28
ENCODING 11560
SWIDTH 960 0
DWIDTH 22 0
BBX 22 22 0 -2
BITMAP
01FF00
0783C0
0E00E0
1C0070
38FE38
71C71C
63838C
E3818C
C3C384
C1F704
C0FE04
C1DF04
C38784
C30384
E3038C
63838C
71C71C
38FE38
1C0070
0E00E0
0783C0
01FF00
ENDCHAR

STARTCHAR jisx0208_2D29
ENCODING 11561
SWIDTH 960 0
DWIDTH 22 0
BBX 22 22 0 -2
BITMAP
01FF00
0783C0
0E00E0
1C0070
38FE38
71C71C
63838C
E3838C
C38384
C38384
C38384
C1C784
C0FF84
C00384
E1838C
63C38C
71C71C
38FE38
1C0070
0E00E0
0783C0
01FF00
ENDCHAR

STARTCHAR jisx0208_2D2A
ENCODING 11562
SWIDTH 960 0
DWIDTH 22 0
BBX 22 22 0 -2
BITMAP
01FF00
0783C0
0E00E0
1C0070
370FB8
6F1CDC
67386C
E7386C
C73874
C73874
C73874
C73874
C73874
C73874
E7386C
67386C
771CDC
3F8FB8
1C0070
0E00E0
0783C0
01FF00
ENDCHAR

STARTCHAR jisx0208_2D2B
ENCODING 11563
SWIDTH 960 0
DWIDTH 22 0
BBX 22 22 0 -2
BITMAP
01FF00
0783C0
0E00E0
1C0070
3B83B8
77879C
63838C
E3838C
C38384
C38384
C38384
C38384
C38384
C38384
E3838C
63838C
73839C
37C7B8
1C0070
0E00E0
0783C0
01FF00
ENDCHAR

STARTCHAR jisx0208_2D2C
ENCODING 11564
SWIDTH 960 0
DWIDTH 22 0
BBX 22 22 0 -2
BITMAP
01FF00
0783C0
0E00E0
1C0070
370FB8
6F1DDC
6738EC
E738EC
C73CE4
C71CE4
C701C4
C70384
C70704
C70E04
E71C6C
67186C
773FDC
3FBFF8
1C0070
0E00E0
0783C0
01FF00
ENDCHAR

STARTCHAR jisx0208_2D2D
ENCODING 11565
SWIDTH 960 0
DWIDTH 22 0
BBX 22 22 0 -2
BITMAP
01FF00
0783C0
0E00E0
1C0070
371FB8
6F39DC
6770EC
E778EC
C730E4
C701C4
C70F84
C701C4
C700E4
C730E4
E778EC
6770EC
7739DC
3F9FB8
1C0070
0E00E0
0783C0
01FF00
ENDCHAR

STARTCHAR jisx0208_2D2E
ENCODING 11566
SWIDTH 960 0
DWIDTH 22 0
BBX 22 22 0 -2
BITMAP
01FF00
0783C0
0E00E0
1C0070
3701B8
6F03DC
6703CC
E707CC
C70DC4
C70DC4
C71DC4
C719C4
C739B4
C731B4
E77FEC
6701CC
7701DC
3F83F8
1C0070
0E00E0
0783C0
01FF00
ENDCHAR

STARTCHAR jisx0208_2D2F
ENCODING 11567
SWIDTH 960 0
DWIDTH 22 0
BBX 22 22 0 -2
BITMAP
01FF00
0783C0
0E00E0
1C0070
373FF8
6F3FDC
67300C
E7300C
C73004
C72FC4
C73CE4
C73874
C70074
C71874
E73C6C
67386C
771CDC
3F8FB8
1C0070
0E00E0
0783C0
01FF00
ENDCHAR

STARTCHAR jisx0208_2D30
ENCODING 11568
SWIDTH 960 0
DWIDTH 22 0
BBX 22 22 0 -2
BITMAP
01FF00
0783C0
0E00E0
1C0070
370FB8
6F1CDC
6738EC
E7386C
C73804
C73FC4
C73CE4
C73874
C73874
C73874
E7386C
67386C
771CDC
3F8FB8
1C0070
0E00E0
0783C0
01FF00
ENDCHAR

STARTCHAR jisx0208_2D31
ENCODING 11569
SWIDTH 960 0
DWIDTH 22 0
BBX 22 22 0 -2
BITMAP
01FF00
0783C0
0E00E0
1C0070
373FF8
6F3FDC
6730CC
E731CC
C70384
C70384
C70704
C70704
C70704
C70E04
E70E0C
670E0C
770E1C
3F8E38
1C0070
0E00E0
0783C0
01FF00
ENDCHAR

STARTCHAR jisx0208_2D32
ENCODING 11570
SWIDTH 960 0
DWIDTH 22 0
BBX 22 22 0 -2
BITMAP
01FF00
0783C0
0E00E0
1C0070
371FB8
6F39DC
6770EC
E7706C
C778E4
C73DC4
C71F84
C73BC4
C771E4
C760E4
E760EC
6770EC
7739DC
3F9FB8
1C0070
0E00E0
0783C0
01FF00
ENDCHAR

STARTCHAR jisx0208_2D33
ENCODING 11571
SWIDTH 960 0
DWIDTH 22 0
BBX 22 22 0 -2
BITMAP
01FF00
0783C0
0E00E0
1C0070
371FB8
6F39DC
6770EC
E770EC
C770E4
C770E4
C770E4
C739E4
C71FE4
C700E4
E730EC
6778EC
7771DC
3FBFB8
1C0070
0E00E0
0783C0
01FF00
ENDCHAR

STARTCHAR jisx0208_2D34
ENCODING 11572
SWIDTH 960 0
DWIDTH 22 0
BBX 22 22 0 -2
BITMAP
01FF00
0783C0
0E00E0
1C0070
3BC3B8
76E6DC
6E6E6C
EE6E6C
CF6E74
C76E74
C06E74
C0EE74
C1CE74
C38E74
E70E6C
662E6C
6FF6DC
3FF3B8
1C0070
0E00E0
0783C0
01FF00
ENDCHAR

STARTCHAR jisx0208_2D35
ENCODING 11573
SWIDTH 960 0
DWIDTH 22 0
BBX 22 22 0 -2
BITMAP
000000
000000
00FE00
003800
003800
003800
003800
003800
003800
003800
003800
003800
003800
003800
003800
003800
003800
003800
003800
00FE00
000000
000000
ENDCHAR

STARTCHAR jisx0208_2D36
ENCODING 11574
SWIDTH 960 0
DWIDTH 22 0
BBX 22 22 0 -2
BITMAP
000000
000000
0FFFE0
038380
038380
038380
038380
038380
038380
038380
038380
038380
038380
038380
038380
038380
038380
038380
038380
0FFFE0
000000
000000
ENDCHAR

STARTCHAR jisx0208_2D37
ENCODING 11575
SWIDTH 960 0
DWIDTH 22 0
BBX 22 22 0 -2
BITMAP
000000
000000
3FFFF8
0E38E0
0E38E0
0E38E0
0E38E0
0E38E0
0E38E0
0E38E0
0E38E0
0E38E0
0E38E0
0E38E0
0E38E0
0E38E0
0E38E0
0E38E0
0E38E0
3FFFF8
000000
000000
ENDCHAR

STARTCHAR jisx0208_2D38
ENCODING 11576
SWIDTH 960 0
DWIDTH 22 0
BBX 22 22 0 -2
BITMAP
000000
000000
7FF87C
1CE018
1CE018
1C7038
1C7030
1C7030
1C3870
1C3860
1C3860
1C1CE0
1C1CC0
1C1CC0
1C0DC0
1C0D80
1C0D80
1C0780
1C0700
7F0700
000000
000000
ENDCHAR

STARTCHAR jisx0208_2D39
ENCODING 11577
SWIDTH 960 0
DWIDTH 22 0
BBX 22 22 0 -2
BITMAP
000000
000000
3F81F8
0E0060
0E00E0
0700C0
0700C0
0701C0
038180
038380
01C300
01C300
01C700
00E600
00EE00
006C00
006C00
007C00
003800
003800
000000
000000
ENDCHAR

STARTCHAR jisx0208_2D3A
ENCODING 11578
SWIDTH 960 0
DWIDTH 22 0
BBX 22 22 0 -2
BITMAP
000000
000000
FE1FFC
380670
380670
1C0E70
1C0C70
1C0C70
0E1C70
0E1870
0E1870
073870
073070
073070
037070
036070
036070
01E070
01C070
01C1FC
000000
000000
ENDCHAR

STARTCHAR jisx0208_2D3B
ENCODING 11579
SWIDTH 960 0
DWIDTH 22 0
BBX 22 22 0 -2
BITMAP
000000
000000
FE7FFC
381BB8
381BB8
381BB8
1C3BB8
1C33B8
1C33B8
0E73B8
0E63B8
0E63B8
0E63B8
06E3B8
06C3B8
06C3B8
07C3B8
0383B8
0383B8
038FFC
000000
000000
ENDCHAR

STARTCHAR jisx0208_2D3C
ENCODING 11580
SWIDTH 960 0
DWIDTH 22 0
BBX 22 22 0 -2
BITMAP
000000
000000
F9FFFC
70DDDC
70DDDC
70DDDC
71DDDC
399DDC
399DDC
399DDC
399DDC
3B9DDC
1B1DDC
1B1DDC
1B1DDC
1F1DDC
0E1DDC
0E1DDC
0E1DDC
0E3FFC
000000
000000
ENDCHAR

STARTCHAR jisx0208_2D3D
ENCODING 11581
SWIDTH 960 0
DWIDTH 22 0
BBX 22 22 0 -2
BITMAP
000000
000000
7FFDFC
1C7070
1C3860
1C38E0
1C1CC0
1C1DC0
1C0D80
1C0F80
1C0700
1C0F80
1C0B80
1C1DC0
1C19C0
1C38E0
1C30E0
1C7070
1C6070
7FF9FC
000000
000000
ENDCHAR

STARTCHAR jisx0208_2D3E
ENCODING 11582
SWIDTH 960 0
DWIDTH 22 0
BBX 22 22 0 -2
BITMAP
000000
000000
3FC7F0
0F01C0
078380
038300
01C700
01EE00
00EC00
007C00
007800
007C00
00DC00
00CE00
01CF00
038700
030380
0703C0
0E01E0
3F87F8
000000
000000
ENDCHAR

STARTCHAR jisx0208_2D40
ENCODING 11584
SWIDTH 960 0
DWIDTH 22 0
BBX 22 22 0 -2
BITMAP
1F0000
03C000
01C000
1E0000
078000
038000
000000
7E0000
0F8000
03C000
01C000
000078
000F3C
000738
000738
000738
000F38
000738
000038
000070
0000E0
0003C0
ENDCHAR

STARTCHAR jisx0208_2D41
ENCODING 11585
SWIDTH 960 0
DWIDTH 22 0
BBX 22 22 0 -2
BITMAP
1E0000
0E0000
0E0000
6FC000
3EE000
070000
E7E000
7F7000
070000
070000
0F0000
070000
001E1C
000FFC
000E1C
000E1C
000E1C
000E1C
000E1C
000FFC
000E00
000000
ENDCHAR

STARTCHAR jisx0208_2D42
ENCODING 11586
SWIDTH 960 0
DWIDTH 22 0
BBX 22 22 0 -2
BITMAP
780E00
3C0780
38E380
BFF00C
F8E01C
B9C038
3B8070
380DE0
38EFC0
1FE700
000000
038000
0FC000
7E0000
0E0000
CFE000
FE6000
0E0000
0E0000
0E0000
1C0000
380000
ENDCHAR

STARTCHAR jisx0208_2D43
ENCODING 11587
SWIDTH 960 0
DWIDTH 22 0
BBX 22 22 0 -2
BITMAP
038000
01C000
01C000
3B8000
0F0C38
078FFC
0DC70C
1DC000
780000
E00000
000000
3C01E0
1E0EF0
1C06E0
1C06E0
1F86E4
1BC6EC
1DC6DC
1C06F8
1C0EF0
3C1C60
1C0000
ENDCHAR

STARTCHAR jisx0208_2D44
ENCODING 11588
SWIDTH 960 0
DWIDTH 22 0
BBX 22 22 0 -2
BITMAP
3CB018
1CB7FC
1FC000
39CC1C
71CFFC
E38E1C
03801C
070038
0E0070
3C01E0
700380
000000
1E0000
0F0000
0E0000
1C0000
1D8000
19C000
38E000
B7F000
FE7000
707000
ENDCHAR

STARTCHAR jisx0208_2D45
ENCODING 11589
SWIDTH 960 0
DWIDTH 22 0
BBX 22 22 0 -2
BITMAP
3C0000
1E0000
1C0000
1C0000
1F8000
1BC000
1DC000
1C0000
1C0000
3C0000
1C0000
001C00
000F00
000700
00000C
00001C
000038
000070
0019E0
001FC0
000F00
000600
ENDCHAR

STARTCHAR jisx0208_2D46
ENCODING 11590
SWIDTH 960 0
DWIDTH 22 0
BBX 22 22 0 -2
BITMAP
000000
C0E000
FFF000
60E000
1DCC38
0F0FFC
0E070C
0E0000
0E0000
1C0000
380000
000000
0F0000
778000
370000
370000
373000
377000
36E000
37C000
778000
E30000
ENDCHAR

STARTCHAR jisx0208_2D47
ENCODING 11591
SWIDTH 960 0
DWIDTH 22 0
BBX 22 22 0 -2
BITMAP
0003C0
0001DC
1C01FC
BE039C
F7071C
E38E38
61E038
00F070
0070E0
0003C0
000700
780000
3B80F0
3FC778
738370
E38370
DB7B74
0F0374
0F836C
1B837C
780778
E00E30
ENDCHAR

STARTCHAR jisx0208_2D48
ENCODING 11592
SWIDTH 960 0
DWIDTH 22 0
BBX 22 22 0 -2
BITMAP
03C000
79E000
39C000
39C300
39CB70
79CDB8
39C670
0380E0
0701C0
1E0780
000000
3C01E0
1E0EF0
1C06E0
1C06E0
1F86E4
1BC6EC
1DC6DC
1C06F8
1C0EF0
3C1C60
1C0000
ENDCHAR

STARTCHAR jisx0208_2D49
ENCODING 11593
SWIDTH 960 0
DWIDTH 22 0
BBX 22 22 0 -2
BITMAP
000000
F0E000
7FF000
70E300
70EB70
71EDB8
71C670
03C0E0
0781C0
1E0780
000000
3C0000
1E0000
1C0000
1C0000
1F8000
1BC000
1DC000
1C0000
1C0000
3C0000
1C0000
ENDCHAR

STARTCHAR jisx0208_2D4A
ENCODING 11594
SWIDTH 960 0
DWIDTH 22 0
BBX 22 22 0 -2
BITMAP
1E0000
0E0000
CEEF1C
FFF7FC
6EE71C
1CE71C
1CE71C
39C71C
6FC7FC
E38700
000000
000000
03C000
79E000
39C000
39CC38
39CFFC
79C70C
39C000
038000
070000
1E0000
ENDCHAR

STARTCHAR jisx0208_2D4B
ENCODING 11595
SWIDTH 960 0
DWIDTH 22 0
BBX 22 22 0 -2
BITMAP
3D6000
1D6000
1C0000
1C0000
1F8000
1BC000
1DC000
1C0000
1C0000
3C0000
1C0000
0001E0
0000F0
000EE0
0006E0
0006E0
0006E4
0006EC
0006DC
0006F8
000EF0
001C60
ENDCHAR

STARTCHAR jisx0208_2D4C
ENCODING 11596
SWIDTH 960 0
DWIDTH 22 0
BBX 22 22 0 -2
BITMAP
780E00
3C0780
38E380
BFF00C
F8E01C
B9C038
3B8070
380DE0
38EFC0
1FE700
000000
3C0000
1E0000
1C0000
1C0000
1F8000
1BC000
1DC000
1C0000
1C0000
3C0000
1C0000
ENDCHAR

STARTCHAR jisx0208_2D4D
ENCODING 11597
SWIDTH 960 0
DWIDTH 22 0
BBX 22 22 0 -2
BITMAP
00E000
3BB000
1BB000
1DE000
39CC38
38EFFC
70E70C
70E000
E0C000
000000
000000
7870F0
3C3878
3BB970
BFB970
FB837C
B7076C
360F6C
385E70
3B7C70
1FB8F0
000070
ENDCHAR

STARTCHAR jisx0208_2D4E
ENCODING 11598
SWIDTH 960 0
DWIDTH 22 0
BBX 22 22 0 -2
BITMAP
3E0078
078F3C
038738
3C0738
0F0738
070F38
000738
7E0070
0F80E0
0383C0
000000
0160F0
016778
760370
370370
3B0374
3B7B74
73836C
73837C
E38778
C00E30
000000
ENDCHAR

STARTCHAR jisx0208_2D4F
ENCODING 11599
SWIDTH 960 0
DWIDTH 22 0
BBX 22 22 0 -2
BITMAP
01C000
036000
1B6000
BDC000
F70C38
E38FFC
61E70C
00F000
007000
000000
000000
016000
396000
1C0000
000000
706000
38E000
01C000
038000
6F0000
7E0000
380000
ENDCHAR

STARTCHAR jisx0208_2D50
ENCODING 11600
SWIDTH 960 0
DWIDTH 22 0
BBX 22 22 0 -2
BITMAP
000000
000000
000000
000000
000000
000000
000000
2DC5B8
F6DEDC
76EEDC
76EEDC
76EEDC
76EEDC
76EEDC
76EEDC
76EEDC
76EEDC
76EEDC
76EEDC
F5DEBC
000000
000000
ENDCHAR

STARTCHAR jisx0208_2D51
ENCODING 11601
SWIDTH 960 0
DWIDTH 22 0
BBX 22 22 0 -2
BITMAP
000000
000000
000000
000000
000000
000000
000000
1F0BB8
39BDDC
73DDDC
73DDDC
719DDC
701DDC
701DDC
701DDC
701DDC
70DDDC
71DDDC
3B9DDC
1F3DBC
000000
000000
ENDCHAR

STARTCHAR jisx0208_2D52
ENCODING 11602
SWIDTH 960 0
DWIDTH 22 0
BBX 22 22 0 -2
BITMAP
000000
000000
300000
F00000
700000
700000
700000
73EBB8
71BDDC
739DDC
771DDC
761DDC
6F1DDC
7F1DDC
7B9DDC
739DDC
739DDC
71DDDC
71DDDC
FBFDBC
000000
000000
ENDCHAR

STARTCHAR jisx0208_2D53
ENCODING 11603
SWIDTH 960 0
DWIDTH 22 0
BBX 22 22 0 -2
BITMAP
000000
000000
000000
000000
000000
000000
000000
2EE1DC
F7732C
777738
777738
777738
777330
7773E0
777700
7777E0
7773F8
77773C
776E1C
F6FE1C
000738
0003F0
ENDCHAR

STARTCHAR jisx0208_2D54
ENCODING 11604
SWIDTH 960 0
DWIDTH 22 0
BBX 22 22 0 -2
BITMAP
000000
000000
180000
780000
380000
380000
380000
39F1DC
38E32C
39C738
3B8738
3B0738
378330
3F83E0
3DC700
39C7E0
39C3F8
38E73C
38EE1C
7DEE1C
000738
0003F0
ENDCHAR

STARTCHAR jisx0208_2D55
ENCODING 11605
SWIDTH 960 0
DWIDTH 22 0
BBX 22 22 0 -2
BITMAP
000000
000000
000000
000000
000000
000000
000000
0F83E0
1CC730
39EE78
39EE78
38CE30
380E00
380E00
380E00
380E00
386E18
38EE38
1DC770
0F83E0
000000
000000
ENDCHAR

STARTCHAR jisx0208_2D56
ENCODING 11606
SWIDTH 960 0
DWIDTH 22 0
BBX 22 22 0 -2
BITMAP
000038
00006C
00006C
000018
000030
00006C
00007C
1BE7C0
7F6EE0
1E3C70
1C3870
1C3870
1C3870
1C3870
1C3870
1C3870
1C3870
1C3870
1C3870
7EFDFC
000000
000000
ENDCHAR

STARTCHAR jisx0208_2D5F
ENCODING 11615
SWIDTH 960 0
DWIDTH 22 0
BBX 22 22 0 -2
BITMAP
0000EC
00E0EC
FFF0E4
0E18DC
CD9FFC
EDDCE0
6DDCE0
6DDCD8
6D9CDC
6D9ADC
6D9FDC
0E1AD8
0EDAF8
FFFAF8
0E1B70
0E1B70
0E1AF4
0E3EB4
0E35BC
0E339C
0E731C
0E660C
ENDCHAR

STARTCHAR jisx0208_2D60
ENCODING 11616
SWIDTH 960 0
DWIDTH 22 0
BBX 22 22 0 -2
BITMAP
0001DC
0001DC
0003B8
0003B8
000770
000660
000000
000000
000000
000000
000000
000000
000000
000000
000000
000000
000000
000000
000000
000000
000000
000000
ENDCHAR

STARTCHAR jisx0208_2D61
ENCODING 11617
SWIDTH 960 0
DWIDTH 22 0
BBX 22 22 0 -2
BITMAP
000000
000000
000000
000000
000000
000000
000000
000000
000000
000000
000000
000000
000000
000000
000000
000000
1DC000
1DC000
3B8000
3B8000
770000
660000
ENDCHAR

STARTCHAR jisx0208_2D62
ENCODING 11618
SWIDTH 960 0
DWIDTH 22 0
BBX 22 22 0 -2
BITMAP
000000
000000
F1E000
70C000
78C000
78C000
78C000
5CC7C0
5CCEE0
5CDC70
6EDC70
6EDC70
66DC70
66DC70
66DC70
63DC70
63DC70
63DC70
61CEEC
F1C7CC
000000
000000
ENDCHAR

STARTCHAR jisx0208_2D63
ENCODING 11619
SWIDTH 960 0
DWIDTH 22 0
BBX 22 22 0 -2
BITMAP
000000
000000
F79EF0
760EC0
760EC0
6E0DC0
6C0D80
6C0D80
7C0F80
780F00
7C0F80
7C0F80
7C0F80
6E0DC0
6E0DC0
6E0DC0
770EE0
770EE0
776EEC
F76EEC
000000
000000
ENDCHAR

STARTCHAR jisx0208_2D64
ENCODING 11620
SWIDTH 960 0
DWIDTH 22 0
BBX 22 22 0 -2
BITMAP
000000
000000
FFFEF8
DD7370
DD7370
DD7370
DD7370
1C7070
1C7670
1C7670
1C7E70
1C7670
1C7670
1C7070
1C7070
1C7374
1C7374
1C7374
1C7374
3EFEFC
000000
000000
ENDCHAR

STARTCHAR jisx0208_2D65
ENCODING 11621
SWIDTH 960 0
DWIDTH 22 0
BBX 22 22 0 -2
BITMAP
01FF00
0783C0
0E00E0
1C7870
387038
70701C
60700C
E0738C
C07FC4
C07004
C07004
C07004
C07004
C07004
E0700C
6070EC
7FFFFC
380038
1C0070
0E00E0
0783C0
01FF00
ENDCHAR

STARTCHAR jisx0208_2D66
ENCODING 11622
SWIDTH 960 0
DWIDTH 22 0
BBX 22 22 0 -2
BITMAP
01FF00
0783C0
0E00E0
1C3C70
383838
70381C
6C38EC
EFFFEC
CE38E4
CE38E4
CE38E4
CE38E4
CFFFE4
CE38E4
E0380C
60380C
70381C
383838
1C3870
0E00E0
0783C0
01FF00
ENDCHAR

STARTCHAR jisx0208_2D67
ENCODING 11623
SWIDTH 960 0
DWIDTH 22 0
BBX 22 22 0 -2
BITMAP
01FF00
0783C0
0E00E0
1C0070
3801B8
7FFFDC
60700C
E0700C
C07004
C07C04
C06F04
C07784
C07384
C07004
E0700C
60700C
70701C
387038
1C7070
0E00E0
0783C0
01FF00
ENDCHAR

STARTCHAR jisx0208_2D68
ENCODING 11624
SWIDTH 960 0
DWIDTH 22 0
BBX 22 22 0 -2
BITMAP
01FF00
0783C0
0E00E0
1CF070
38E038
70E0DC
5FFFEC
E1C00C
C1C004
C1C004
C38384
C3FFC4
C71C04
C71C04
EE1C0C
5C1C0C
701CDC
37FFF8
1C0070
0E00E0
0783C0
01FF00
ENDCHAR

STARTCHAR jisx0208_2D69
ENCODING 11625
SWIDTH 960 0
DWIDTH 22 0
BBX 22 22 0 -2
BITMAP
01FF00
0783C0
0E00E0
1C7870
387038
7070DC
5FFFEC
E0E00C
C0E004
C1C004
C1C1C4
C3FFE4
C7C1C4
CDC1C4
DDC1CC
61C1CC
71FFDC
39C1B8
1C0070
0E00E0
0783C0
01FF00
ENDCHAR

STARTCHAR jisx0208_2D6A
ENCODING 11626
SWIDTH 960 0
DWIDTH 22 0
BBX 22 22 0 -2
BITMAP
180030
3787B8
373F18
77371C
7736DC
66BFEC
DFB70C
E7770C
E7670C
EF876C
EFFFFC
EEEF8C
DEDFCC
D71ECC
F736EC
F736EC
67777C
76E75C
77071C
370718
370738
180030
ENDCHAR

STARTCHAR jisx0208_2D6B
ENCODING 11627
SWIDTH 960 0
DWIDTH 22 0
BBX 22 22 0 -2
BITMAP
180030
38C038
30F018
70E01C
70E0DC
5FFFEC
E1C00C
E1C38C
E3FFCC
E3C38C
E7C38C
EDFF8C
DDC38C
D9C38C
E1FF8C
E1C38C
61C38C
71C39C
71DF9C
31C718
380038
180030
ENDCHAR

STARTCHAR jisx0208_2D6C
ENCODING 11628
SWIDTH 960 0
DWIDTH 22 0
BBX 22 22 0 -2
BITMAP
180030
3B1838
33DD98
739DDC
739DDC
671C0C
E71DCC
EF1FEC
EFFC0C
DF1C0C
D71C0C
F71C0C
F70E0C
E70E0C
E70F6C
E7076C
6707EC
7703DC
7701DC
3700D8
380038
180030
ENDCHAR

STARTCHAR jisx0208_2D6D
ENCODING 11629
SWIDTH 960 0
DWIDTH 22 0
BBX 22 22 0 -2
BITMAP
06E0C0
D7ECF0
FEEEE0
D6E6E0
D6E0E0
D6E0D8
D7DADC
F6DACC
D6EBFC
D6E7EC
D6E58C
D7E600
D6ED9C
F6EDFC
D6DDDC
E6EDDC
0EEDDC
0EEDDC
0CEDDC
1BDDFC
19DDDC
318DDC
ENDCHAR

STARTCHAR jisx0208_2D6E
ENCODING 11630
SWIDTH 960 0
DWIDTH 22 0
BBX 22 22 0 -2
BITMAP
0F0000
0E0038
0E1FFC
0E01C0
0E01C0
0EE1C0
FFF1C0
0E01C0
0E01C0
0E1DB8
0F1DFC
1B1DC0
1B1DC0
1B1DC0
1B9DC0
399DC0
399DC0
39DDC0
71DDC0
60DDDC
E0FFFC
C06000
ENDCHAR

STARTCHAR jisx0208_2D6F
ENCODING 11631
SWIDTH 960 0
DWIDTH 22 0
BBX 22 22 0 -2
BITMAP
00E700
DFEF80
FB5EDC
DB6EFC
DB6EDC
DB6EDC
D76EDC
D67FDC
D7EEDC
FDCEDC
DD8EDC
D6DFDC
D7DDDC
D6DDDC
D6EEDC
D6EEDC
F6EEDC
D6EEDC
E6EEFC
07EEDC
06EEDC
06EE00
ENDCHAR

STARTCHAR jisx0208_2D70
ENCODING 11632
SWIDTH 960 0
DWIDTH 22 0
BBX 22 22 0 -2
BITMAP
000000
000000
000000
038000
07C000
038000
000000
000000
1FFFF0
1FFFF0
000000
000000
1FFFF0
1FFFF0
000000
000000
000380
0007C0
000380
000000
000000
000000
ENDCHAR

STARTCHAR jisx0208_2D71
ENCODING 11633
SWIDTH 960 0
DWIDTH 22 0
BBX 22 22 0 -2
BITMAP
000000
000000
000000
000000
000000
000000
1FFFF0
1FFFF0
000000
000000
1FFFF0
1FFFF0
000000
000000
1FFFF0
1FFFF0
000000
000000
000000
000000
000000
000000
ENDCHAR

STARTCHAR jisx0208_2D72
ENCODING 11634
SWIDTH 960 0
DWIDTH 22 0
BBX 22 22 0 -2
BITMAP
001E00
003300
006F00
006F00
007600
007000
007000
007000
003800
003800
003800
003800
003800
003800
001C00
001C00
001C00
00DC00
01DC00
01DC00
019800
00F000
ENDCHAR

STARTCHAR jisx0208_2D73
ENCODING 11635
SWIDTH 960 0
DWIDTH 22 0
BBX 22 22 0 -2
BITMAP
001E00
003300
006F00
006F00
007600
007000
007C00
00FE00
01B700
01BB00
01BB00
01BB00
01B700
00FE00
007C00
001C00
001C00
00DC00
01DC00
01DC00
019800
00F000
ENDCHAR

STARTCHAR jisx0208_2D74
ENCODING 11636
SWIDTH 960 0
DWIDTH 22 0
BBX 22 22 0 -2
BITMAP
000000
000000
1FFF80
1E0380
0F01C0
0780C0
03C0C0
01E000
00F000
007800
003C00
003800
007000
00E000
01C060
038060
0700E0
0E01C0
1FFFC0
1FFFC0
000000
000000
ENDCHAR

STARTCHAR jisx0208_2D75
ENCODING 11637
SWIDTH 960 0
DWIDTH 22 0
BBX 22 22 0 -2
BITMAP
000FFC
000C00
000C00
001C00
001800
001800
003800
003000
003000
007000
006000
006000
18E000
3CC000
7CC000
EDC000
CD8000
078000
078000
030000
030000
000000
ENDCHAR

STARTCHAR jisx0208_2D76
ENCODING 11638
SWIDTH 960 0
DWIDTH 22 0
BBX 22 22 0 -2
BITMAP
000000
000000
000000
003800
003800
003800
003800
003800
003800
003800
003800
003800
003800
003800
003800
003800
003800
1FFFF0
1FFFF0
000000
000000
000000
ENDCHAR

STARTCHAR jisx0208_2D77
ENCODING 11639
SWIDTH 960 0
DWIDTH 22 0
BBX 22 22 0 -2
BITMAP
000000
000000
000000
000060
0000E0
0001E0
0003C0
000780
000F00
001E00
003C00
007800
00F000
01E000
03C000
078000
0F0000
1FFFE0
1FFFE0
000000
000000
000000
ENDCHAR

STARTCHAR jisx0208_2D78
ENCODING 11640
SWIDTH 960 0
DWIDTH 22 0
BBX 22 22 0 -2
BITMAP
000000
000000
000000
1C0000
1C0000
1C0000
1C0000
1C0000
1C0000
1C0000
1C0000
1C0000
1C0000
1C0000
1C0000
1C0000
1C0000
1FFFF0
1FFFF0
000000
000000
000000
ENDCHAR

STARTCHAR jisx0208_2D79
ENCODING 11641
SWIDTH 960 0
DWIDTH 22 0
BBX 22 22 0 -2
BITMAP
000000
000000
000000
000030
000070
0000F0
0001F0
0003F0
000770
000F70
001E70
003C70
007870
00F070
01E070
03C070
078070
0FFFF0
1FFFF0
000000
000000
000000
ENDCHAR

STARTCHAR jisx0208_2D7A
ENCODING 11642
SWIDTH 960 0
DWIDTH 22 0
BBX 22 22 0 -2
BITMAP
000000
000000
000000
000000
0E00E0
1F01F0
0E00E0
000000
000000
000000
000000
000000
000000
000000
000000
003800
007C00
003800
000000
000000
000000
000000
ENDCHAR

STARTCHAR jisx0208_2D7B
ENCODING 11643
SWIDTH 960 0
DWIDTH 22 0
BBX 22 22 0 -2
BITMAP
000000
000000
000000
00FE00
03FF80
0783C0
0701C0
0E00E0
0E00E0
0E00E0
0E00E0
0E00E0
0E00E0
0E00E0
0E00E0
0E00E0
0E00E0
0E00E0
0E00E0
000000
000000
000000
ENDCHAR

STARTCHAR jisx0208_2D7C
ENCODING 11644
SWIDTH 960 0
DWIDTH 22 0
BBX 22 22 0 -2
BITMAP
000000
000000
000000
0E00E0
0E00E0
0E00E0
0E00E0
0E00E0
0E00E0
0E00E0
0E00E0
0E00E0
0E00E0
0E00E0
0E00E0
0701C0
0783C0
03FF80
00FE00
000000
000000
000000
ENDCHAR

STARTCHAR jisx0208_3021
ENCODING 12321
SWIDTH 960 0
DWIDTH 22 0
BBX 22 22 0 -2
BITMAP
FFFFFC
FFFFFC
01CE00
01CE00
01CE00
31CE70
3FFFF8
3FFFF8
39CE70
39CE70
39CE70
39CE70
3FFFF0
3FFFF0
39CE70
01CE00
01CE00
01CE00
01CE1C
FFFFFC
FFFFFC
000000
ENDCHAR

STARTCHAR jisx0208_3022
ENCODING 12322
SWIDTH 960 0
DWIDTH 22 0
BBX 22 22 0 -2
BITMAP
01FFFC
CFFFFC
FE0D80
FF0D80
EE0D80
EECDB8
EEFFFC
EEFFFC
EEEDB8
EEEDB8
EEEDB8
EEEDB8
EEFFF8
FEFFF8
FEEDB8
EE0D80
E00D80
000D80
000D9C
03FFFC
03FFFC
000000
ENDCHAR

STARTCHAR jisx0208_3023
ENCODING 12323
SWIDTH 960 0
DWIDTH 22 0
BBX 22 22 0 -2
BITMAP
3C03C0
3C0380
380398
3BBFFC
FFFFFC
FFC380
3B8380
7B839C
73FFFC
737FFC
738000
F703C0
E70380
F70398
FE7FFC
EF7FFC
1F8380
1B8380
3B8380
70039C
E1FFFC
C1FFFC
ENDCHAR

STARTCHAR jisx0208_3024
ENCODING 12324
SWIDTH 960 0
DWIDTH 22 0
BBX 22 22 0 -2
BITMAP
FF7FFC
FF7FFC
E70038
E70038
EE6738
EE7FB8
FC7FB8
D87738
EE7738
EE7738
E77738
E77738
E77F38
E77F38
FF7738
DF7038
EE0038
E00038
E00038
E001F8
E001F8
E00070
ENDCHAR

STARTCHAR jisx0208_3025
ENCODING 12325
SWIDTH 960 0
DWIDTH 22 0
BBX 22 22 0 -2
BITMAP
003C00
00381C
FFFFFC
FFFFFC
000000
0FFFF0
0FFFF0
0E00E0
0E00E0
0E00E0
0FFFE0
0FFFE0
0E78E0
01DC70
07CDF0
1F87C0
FF8700
F39BC0
03FDF0
3FF0FC
3F807C
1C001C
ENDCHAR

STARTCHAR jisx0208_3026
ENCODING 12326
SWIDTH 960 0
DWIDTH 22 0
BBX 22 22 0 -2
BITMAP
003FF0
3FFFF0
3FF980
0661C0
33BB9C
3FFF7C
7FFFFC
F0301C
FBDB78
6B9BE0
1FE7B8
3DFF38
38C080
01FFC0
03FFC0
078380
1EEF00
7C7E00
70BD80
07F7FC
3F81FC
3C0038
ENDCHAR

STARTCHAR jisx0208_3027
ENCODING 12327
SWIDTH 960 0
DWIDTH 22 0
BBX 22 22 0 -2
BITMAP
1E0F00
1C0F60
1C1E70
1F1CB8
FBFBFC
FEFF9C
1C781C
1C3400
1C3C38
1F7BFC
FFFFFC
FCE700
7D871C
5C7FFC
1DFFFC
1C0D80
1C0FC0
1C1EE0
1C3CF8
FC787C
FDF03C
39C00C
ENDCHAR

STARTCHAR jisx0208_3028
ENCODING 12328
SWIDTH 960 0
DWIDTH 22 0
BBX 22 22 0 -2
BITMAP
1E03C0
1E03C0
1C0780
1F86E0
FBCF70
FFDE78
3BBC3C
3BF85C
3B67EC
7B9FF0
738000
770000
773038
E73FFC
FE3FFC
DF3838
EFB838
1BB838
3BB838
703FF8
E03FF8
C03838
ENDCHAR

STARTCHAR jisx0208_3029
ENCODING 12329
SWIDTH 960 0
DWIDTH 22 0
BBX 22 22 0 -2
BITMAP
601E00
781EE0
3C3DF0
1C7FF0
1CF8E0
01EFC0
0187A0
003DFC
1DFA7C
FFE71C
FE1FE0
1C7FF0
1C0700
1C7FF0
1C0708
1DFFFC
1DFFFC
3E0700
F78700
F3F8FC
61FFFC
607FFC
ENDCHAR

STARTCHAR jisx0208_302A
ENCODING 12330
SWIDTH 960 0
DWIDTH 22 0
BBX 22 22 0 -2
BITMAP
01E79C
FFDF7C
FFFFFC
01C700
01C7C0
0028E0
7FFDF8
7FF79C
00E37C
1FC7E0
0FBDD0
06FEFC
3E387C
F8389C
E7FFE0
1FFFF0
006C00
01E780
03C3E0
0F81FC
7E00FC
780038
ENDCHAR

STARTCHAR jisx0208_302B
ENCODING 12331
SWIDTH 960 0
DWIDTH 22 0
BBX 22 22 0 -2
BITMAP
01E79C
FFDF7C
FFFFFC
01C700
01C71C
FE38FC
FFFFFC
01CE00
31CE38
3FFFFC
3FFFFC
39CE38
39CEB8
3B8FF8
3B8FF8
3F07B8
360038
380038
3FFFF8
3FFFF8
380038
380038
ENDCHAR

STARTCHAR jisx0208_302C
ENCODING 12332
SWIDTH 960 0
DWIDTH 22 0
BBX 22 22 0 -2
BITMAP
1F9FC0
FFBDE0
FC3FE0
1C7398
1EEF7C
FBFFFC
FF7738
1C7FF8
3E7738
3F7FF8
3B8700
7BFFFC
7EFFFC
5CE738
DCFFF8
DCE738
1CFFF8
1CFFFC
1CE70C
1CE7FC
1C07FC
1C03FC
ENDCHAR

STARTCHAR jisx0208_302D
ENCODING 12333
SWIDTH 960 0
DWIDTH 22 0
BBX 22 22 0 -2
BITMAP
7FFFFC
7FFFFC
00EE00
1FFFF8
1FFFF8
1CEE70
1CEE70
1FFFF0
1FFFF0
1CEE70
00EE0C
FFFFFC
FFFFFC
000000
03FC00
33DE18
338EDC
738ECC
F380EC
E3FFEC
E3FFE4
01FFC0
ENDCHAR

STARTCHAR jisx0208_302E
ENCODING 12334
SWIDTH 960 0
DWIDTH 22 0
BBX 22 22 0 -2
BITMAP
1E7FFC
1C7FFC
1C701C
1F7FFC
FB7FFC
FF701C
1C7000
1C7FFC
1F7FFC
1B7380
FE7778
FC7EFC
7C7FDC
5C6E3C
1CE1E0
1CE1D8
1CDFFC
1DDFFC
1D81C0
FF81CC
FB7FFC
387FFC
ENDCHAR

STARTCHAR jisx0208_302F
ENCODING 12335
SWIDTH 960 0
DWIDTH 22 0
BBX 22 22 0 -2
BITMAP
78FFFC
3CFFFC
1CE01C
1CFFFC
C0FFFC
F2E01C
7AE000
3EFFFC
36FFFC
0EE700
0CEE78
1CFDFC
18FFDC
38DC1C
F9C3C0
F1C3B8
71BFFC
3BBFFC
3B0380
3F039C
36FFFC
38FFFC
ENDCHAR

STARTCHAR jisx0208_3030
ENCODING 12336
SWIDTH 960 0
DWIDTH 22 0
BBX 22 22 0 -2
BITMAP
1E0C38
1C0FFC
1C0FFC
1DCE38
FFEE38
FFEE38
1DCE38
1DCFF8
1DCFF8
1DCE38
1DCE38
1DCE38
1DCE38
1DCFF8
3DCFF8
39CE38
39CE04
39C00C
71C00C
71FFFC
E1FFFC
C0FFFC
ENDCHAR

STARTCHAR jisx0208_3031
ENCODING 12337
SWIDTH 960 0
DWIDTH 22 0
BBX 22 22 0 -2
BITMAP
03C3DC
FFBFBC
FFFFFC
036380
04FC40
07FFC0
00E1DC
FFFFFC
FFFFFC
000000
07FFE0
0700E0
07FFE0
0F1C00
0CFFF0
0FFFF0
0E1C0C
FFFFFC
FFFFFC
001C00
001C00
001C00
ENDCHAR

STARTCHAR jisx0208_3032
ENCODING 12338
SWIDTH 960 0
DWIDTH 22 0
BBX 22 22 0 -2
BITMAP
01E780
01C71C
FFFFFC
FFFFFC
01C700
01C738
7E38FC
7FFFFC
000000
1FFFF8
1FFFF8
1C0070
1C0070
1FFFF0
1FFFF0
1C0070
1C0000
380000
380000
700000
E00000
C00000
ENDCHAR

STARTCHAR jisx0208_3033
ENCODING 12339
SWIDTH 960 0
DWIDTH 22 0
BBX 22 22 0 -2
BITMAP
1F03C0
1B83F0
3F8738
3B06DC
76BFFC
EDFF9C
BFDB80
2DA77C
2D7FFC
3F8E60
3F9DB8
2DBBFC
2DF7DC
3F6F2C
3F9CF0
3183FC
464F8C
56EE3C
DFE0F8
DB67E0
DB1F80
D83C00
ENDCHAR

STARTCHAR jisx0208_3034
ENCODING 12340
SWIDTH 960 0
DWIDTH 22 0
BBX 22 22 0 -2
BITMAP
1E03C0
1C0380
1C0398
1F7FFC
FBFFFC
FF8060
1C1C78
3E0E70
3F0EE0
3B86CC
7BF9FC
7F7FFC
5C0380
DC0380
DC0398
1C7FFC
1C7FFC
1C0380
1C0380
1C0380
1C0380
1C0380
ENDCHAR

STARTCHAR jisx0208_3035
ENCODING 12341
SWIDTH 960 0
DWIDTH 22 0
BBX 22 22 0 -2
BITMAP
3FFFFC
3FFFFC
380000
380F00
380F00
380E00
380E00
380E00
380E38
3BFFFC
3BFFFC
380E00
380E00
380E00
380E00
780E00
700E00
700E00
600E1C
EFFFFC
CFFFFC
000000
ENDCHAR

STARTCHAR jisx0208_3036
ENCODING 12342
SWIDTH 960 0
DWIDTH 22 0
BBX 22 22 0 -2
BITMAP
0F01E0
0EC3E0
FFE3C0
FFE770
0E0F78
7DEE3C
7FFCDC
71D8EC
7FB6E0
7FCEE0
71C6E0
7FD8E0
7FDEEC
6DCEEC
0E20FC
FFF3F8
FFFFE0
0E1EE0
0E00E0
0E00E0
0E00E0
0E00E0
ENDCHAR

STARTCHAR jisx0208_3037
ENCODING 12343
SWIDTH 960 0
DWIDTH 22 0
BBX 22 22 0 -2
BITMAP
1E00E0
1DFFF0
1DFFF0
1E38E0
FBB8E0
FFB9E0
1C39D8
1C39BC
1FBDFC
1BBDB8
FE7C38
FC6E38
7C7678
5C7770
1C7370
1CE3F0
1CE1E0
1CC3F0
1DC77C
FD9F3C
FFFC1C
3B700C
ENDCHAR

STARTCHAR jisx0208_3038
ENCODING 12344
SWIDTH 960 0
DWIDTH 22 0
BBX 22 22 0 -2
BITMAP
003C00
30381C
3FFFFC
7FFFFC
F0001C
EF0018
6F0C20
0EEFFC
1FEFFC
1FEE38
38EE38
38EE38
71EE38
DDCFF8
CFCDF8
078E70
038E0C
0F0E0C
1E0E0C
3C0FFC
F80FFC
E007FC
ENDCHAR

STARTCHAR jisx0208_3039
ENCODING 12345
SWIDTH 960 0
DWIDTH 22 0
BBX 22 22 0 -2
BITMAP
1E1870
1E1FF8
1C1FF8
1DDC70
FFDC70
FFDC70
39DC70
39DFF0
39DFF0
79DC70
73DC70
739C70
739C70
739FF0
FF9FF0
DF1C70
E79C70
1FDC70
3DDC70
78DC7C
F13FEC
C1FFFC
ENDCHAR

STARTCHAR jisx0208_303A
ENCODING 12346
SWIDTH 960 0
DWIDTH 22 0
BBX 22 22 0 -2
BITMAP
0F01E0
0E01C0
0E01C0
6EEDCC
7FEFFC
7FEFFC
76EE00
76EE00
76EE00
76EE00
76EE00
7FEE00
7FEE00
6EEE00
6E0E00
0ECE00
0EEE00
0E6E00
0FEE00
FF6FFC
FC6FFC
7007FC
ENDCHAR

STARTCHAR jisx0208_303B
ENCODING 12347
SWIDTH 960 0
DWIDTH 22 0
BBX 22 22 0 -2
BITMAP
0781E0
0F81E0
0F41C0
1DE3B0
3EE3B8
77E71C
FF1EFC
BFFFEC
38EF0C
3FEC00
3FE01C
38EFFC
3FEFFC
3FEE1C
38EE1C
3B0E1C
39CE1C
3FEE1C
F6EE1C
FCEFFC
700FFC
600E1C
ENDCHAR

STARTCHAR jisx0208_303C
ENCODING 12348
SWIDTH 960 0
DWIDTH 22 0
BBX 22 22 0 -2
BITMAP
0E0F00
1E0F00
DD9E1C
F9DDFC
73FFFC
3FB81C
3771DC
0E5FDC
1B9FDC
FDDDDC
FFDFDC
6DDFDC
6E1DDC
0F1DDC
6F9FDC
6DDFDC
6DDDDC
6FDC1C
EEC03C
CE01F8
0E01F8
0E0070
ENDCHAR

STARTCHAR jisx0208_303D
ENCODING 12349
SWIDTH 960 0
DWIDTH 22 0
BBX 22 22 0 -2
BITMAP
0E03C0
1E0398
DDBFFC
F9FFFC
73C380
3FBFFC
377FFC
0E0EE0
1B9CEC
FDDEFC
FFF77C
6DB780
6E077C
0F8FFC
6DCE38
6FDF70
6EFBF0
6E31E0
EE67D0
CE1F7C
0EFC3C
0EF00C
ENDCHAR

STARTCHAR jisx0208_303E
ENCODING 12350
SWIDTH 960 0
DWIDTH 22 0
BBX 22 22 0 -2
BITMAP
1F01E0
1B81C0
3F81C0
3301DC
76C1FC
6FE1FC
FFE1C0
B6C1C0
36C1C0
3FD9DC
3FDFFC
36DFFC
36DC1C
3FDC1C
3FDC1C
30DC1C
461C1C
56DC1C
5FDFFC
FB5FFC
EB1C1C
E01C1C
ENDCHAR

STARTCHAR jisx0208_303F
ENCODING 12351
SWIDTH 960 0
DWIDTH 22 0
BBX 22 22 0 -2
BITMAP
000EF0
000E70
000E0C
FFFFFC
FFFFFC
000E00
30EE30
3FFF3C
3FF73C
38E738
38E738
38E770
3FE370
3FE3E0
38E1E4
3819C4
03FBEC
FFE76C
FF0F7C
783E3C
60F81C
00E00C
ENDCHAR

STARTCHAR jisx0208_3040
ENCODING 12352
SWIDTH 960 0
DWIDTH 22 0
BBX 22 22 0 -2
BITMAP
7FFFFC
7FFFFC
00EE00
1FFFF8
1FFFF8
1CEE70
1CEE70
1FFFF0
1FFFF0
1C0070
07BD80
03B9E0
03BB9C
FC7F7C
FFFFFC
00F600
07BBC0
0FB9F0
3E38FC
F8383C
E0381C
003800
ENDCHAR

STARTCHAR jisx0208_3041
ENCODING 12353
SWIDTH 960 0
DWIDTH 22 0
BBX 22 22 0 -2
BITMAP
1E03C0
1C07C0
1F8780
FBCEE0
FFDE70
039C7C
07383C
0F70DC
0EEFEC
1D9FF0
3FC000
7B3038
DEBFFC
DBBFFC
1DB838
1DB838
1C3838
1C3838
1C3838
1C3FF8
1C3FF8
1C3838
ENDCHAR

STARTCHAR jisx0208_3042
ENCODING 12354
SWIDTH 960 0
DWIDTH 22 0
BBX 22 22 0 -2
BITMAP
003C00
30381C
3FFFFC
7FFFFC
F0001C
F07838
E07830
00F000
00E01C
FFFFFC
FFFFFC
01C1C0
0383C0
078380
0F4780
0FF700
0E7E00
001FC0
00FBF0
07E0F8
3F8078
3C0038
ENDCHAR

STARTCHAR jisx0208_3043
ENCODING 12355
SWIDTH 960 0
DWIDTH 22 0
BBX 22 22 0 -2
BITMAP
001E00
301C1C
3FFFFC
3FFFFC
383000
383C38
3FFBFC
3FFFFC
387180
39DEF8
3BFD7C
3FFFDC
379CEC
3BFFE0
3BFFE0
7B9CE0
73FFEC
73FFEC
639CEC
E39F1C
C01FFC
000FFC
ENDCHAR

STARTCHAR jisx0208_3044
ENCODING 12356
SWIDTH 960 0
DWIDTH 22 0
BBX 22 22 0 -2
BITMAP
1E03C0
1C0380
1C339C
1F3FFC
FB7FFC
FFF01C
1CF798
1C6780
1D870C
1FFFFC
FEFFFC
FC1C38
7C1C38
5C3C78
1C3870
1C7EF0
1C6FE0
1C71C0
1C07F8
FC1F7C
FCFC3C
38F01C
ENDCHAR

STARTCHAR jisx0208_3045
ENCODING 12357
SWIDTH 960 0
DWIDTH 22 0
BBX 22 22 0 -2
BITMAP
0003C0
C70398
FF7FFC
FF7FFC
E730C0
E71CF0
E71CE0
E71DCC
FFE3BC
FEFFFC
E70000
E73FF8
E73FF8
E73870
E73870
FF3FF0
FF3FF0
E73870
E03870
003FF0
003FF0
003870
ENDCHAR

STARTCHAR jisx0208_3046
ENCODING 12358
SWIDTH 960 0
DWIDTH 22 0
BBX 22 22 0 -2
BITMAP
183C38
1FFBFC
3FFFFC
78C038
71F034
8FCFDC
FFFFFC
0381C0
0F7F80
0FFF00
006FE0
1FD1E0
1E3C7C
E1FB9C
FFFFFC
00F600
03BBC0
0FB9F0
3E38FC
F8387C
E0381C
003800
ENDCHAR

STARTCHAR jisx0208_3047
ENCODING 12359
SWIDTH 960 0
DWIDTH 22 0
BBX 22 22 0 -2
BITMAP
7FE7FC
7FE7FC
71C71C
7FC7FC
7FC7FC
71C71C
7FC7FC
7FFFFC
70381C
77FFDC
77FFDC
70CE1C
7FFDDC
6FFFDC
70001C
71FF1C
71C71C
71FF1C
71C71C
71FFFC
71C6FC
700038
ENDCHAR

STARTCHAR jisx0208_3048
ENCODING 12360
SWIDTH 960 0
DWIDTH 22 0
BBX 22 22 0 -2
BITMAP
3BC1E0
3BADDC
FF6FFC
FFFFFC
3B9C1C
3FBBD8
3F9BC0
4E4380
7FE79C
7FFF7C
76BFFC
76C738
7FCF38
7FCE38
6ECE70
0E1F70
FFDBE0
FFDCF0
0E03F8
0E0FBC
0E7E1C
0E781C
ENDCHAR

STARTCHAR jisx0208_3049
ENCODING 12361
SWIDTH 960 0
DWIDTH 22 0
BBX 22 22 0 -2
BITMAP
003C00
003800
00381C
FFFFFC
FFFFFC
00FC00
03B700
07BBC0
0F39F0
3E38FC
F8387C
E4389C
0FC7E0
0FFFF0
0E00E0
0E00E0
0E00E0
0E00E0
0E00E0
0FFFE0
0FFFE0
0E00E0
ENDCHAR

STARTCHAR jisx0208_304A
ENCODING 12362
SWIDTH 960 0
DWIDTH 22 0
BBX 22 22 0 -2
BITMAP
1E0078
1C6070
1C7070
1C3870
1C3C70
1C1C70
1C1C70
1C0C70
1C0070
1C0070
1C0070
1C00F0
1C30E0
1CF0E0
1FE1E0
1B81C0
FF03F8
FC07BC
701F1C
607E0C
03F80C
03C004
ENDCHAR

STARTCHAR jisx0208_304B
ENCODING 12363
SWIDTH 960 0
DWIDTH 22 0
BBX 22 22 0 -2
BITMAP
0F0070
0FFFF8
0EFFF8
1E0E70
1C0E70
1E0E7C
3FFFEC
3DFFFC
7C0E70
DC0E70
DC0E70
1CFFF0
1CFFF0
1C0E70
1C0E70
1C1E00
1C1C00
1C3C00
1C7800
1CF000
1FE000
1B8000
ENDCHAR

STARTCHAR jisx0208_304C
ENCODING 12364
SWIDTH 960 0
DWIDTH 22 0
BBX 22 22 0 -2
BITMAP
0F0780
0F0700
0E0700
1E0738
1DFFFC
1FFFFC
3E0000
3CC078
7CE078
DC6070
DC7070
1C7070
1C38E0
1C38E0
1C38E0
1C38C0
1C38C0
1C31C0
1C019C
1FFFFC
1BFFFC
1C0000
ENDCHAR

STARTCHAR jisx0208_304D
ENCODING 12365
SWIDTH 960 0
DWIDTH 22 0
BBX 22 22 0 -2
BITMAP
0F0780
0F0700
0E071C
1FFFFC
1DFFFC
1E0F00
3E1B00
3C3B00
7C3B98
DC79BC
DCF1FC
1DF170
1F71C0
1B70E0
1C70E0
1C70F0
1C7070
1C77F8
1DFFBC
1DFC3C
1CE01C
1C000C
ENDCHAR

STARTCHAR jisx0208_304E
ENCODING 12366
SWIDTH 960 0
DWIDTH 22 0
BBX 22 22 0 -2
BITMAP
0F0F00
0F0F70
0EFEF8
1EFFF8
1C1C74
1DFFEC
3DFFFC
3C0000
7CFFF8
DCFFF8
DCE070
1CFFF0
1CFFF0
1CE388
1CDFFC
1CFFFC
1CE380
1FFFFC
1BFFFC
1C0380
1C0380
1C0380
ENDCHAR

STARTCHAR jisx0208_304F
ENCODING 12367
SWIDTH 960 0
DWIDTH 22 0
BBX 22 22 0 -2
BITMAP
7FFFFC
7FFFFC
70001C
71E79C
71C71C
71C7DC
7FFEDC
6FFFDC
71C71C
71C71C
71C75C
7FFFFC
6FFFFC
71C71C
73C71C
73871C
77871C
7F071C
6E071C
71F8FC
7FFFFC
70001C
ENDCHAR

STARTCHAR jisx0208_3050
ENCODING 12368
SWIDTH 960 0
DWIDTH 22 0
BBX 22 22 0 -2
BITMAP
003C00
00381C
FFFFFC
FFFFFC
003800
1FFFF8
1FFFF8
003870
1FFFF0
1FFFF0
1C3870
1C380C
3FFFFC
3FFFFC
386C1C
38E6FC
01E7FC
03C3B8
0781C0
1F00FC
FC007C
F0001C
ENDCHAR

STARTCHAR jisx0208_3051
ENCODING 12369
SWIDTH 960 0
DWIDTH 22 0
BBX 22 22 0 -2
BITMAP
001FF0
1FFFF0
1FF800
00381C
FFFFFC
FFFFFC
00F600
07BBF0
1FB9FC
FE787C
F0C01C
01F000
FFCFFC
FFFFFC
0381C0
0703C0
0FF380
0FFF80
0E1F60
00FBF8
3FF0F8
3F8038
ENDCHAR

STARTCHAR jisx0208_3052
ENCODING 12370
SWIDTH 960 0
DWIDTH 22 0
BBX 22 22 0 -2
BITMAP
000778
000738
300734
3FFFCC
3FFFFC
380700
3FF730
3FF73C
3B873C
3BBBB8
3FFBB8
3FFBF0
3BBB70
3739F0
3771E4
3F71E4
2FE0EC
7EF9EC
71BB7C
67BF3C
FF061C
DC0C0C
ENDCHAR

STARTCHAR jisx0208_3053
ENCODING 12371
SWIDTH 960 0
DWIDTH 22 0
BBX 22 22 0 -2
BITMAP
3FFE3C
3FFE38
381C38
381C38
3FFC38
3FFC3C
381FF4
3827FC
3FF838
37F838
380338
3FFFB8
3FFDB8
38E1B8
3EF9B8
76DC38
76EE38
7EEE38
6EEE38
FDE1F8
DBE1F8
01C070
ENDCHAR

STARTCHAR jisx0208_3054
ENCODING 12372
SWIDTH 960 0
DWIDTH 22 0
BBX 22 22 0 -2
BITMAP
1E1E78
1C1E78
1E1CF0
1F3CEC
5BBBDC
5BFFFC
5F79C0
DCF9C0
DCB9D8
DDBFFC
1DBFFC
1C39C0
1C39C0
1C39D8
1C3FFC
1C3FFC
1C39C0
1C39C0
1C39DC
1C3FFC
1C3FFC
1C3800
ENDCHAR

STARTCHAR jisx0208_3055
ENCODING 12373
SWIDTH 960 0
DWIDTH 22 0
BBX 22 22 0 -2
BITMAP
003C70
3FFBF8
3FFFF8
030300
01C79C
FFFE7C
FFFFFC
000000
0FFFF0
0FFFF0
0E00E0
0FFFE0
0FFFE0
0E00E0
0FFFE0
0FFFE0
3E18E0
33CE18
738EDC
F3F1EC
E3FFEC
E1FFCC
ENDCHAR

STARTCHAR jisx0208_3056
ENCODING 12374
SWIDTH 960 0
DWIDTH 22 0
BBX 22 22 0 -2
BITMAP
3FFE3C
3FFE38
381C3C
3FFFF4
3FFBFC
381C38
3BF3B8
3C0DB8
6FFDB8
70C1B8
66B838
EEDDF8
DDDDF8
1BE070
01BC00
025E18
33CEDC
338ECC
7380EC
F3FFEC
E3FFE4
E1FFC0
ENDCHAR

STARTCHAR jisx0208_3057
ENCODING 12375
SWIDTH 960 0
DWIDTH 22 0
BBX 22 22 0 -2
BITMAP
0FFFF0
0FFFF0
0E00E0
0FFFE0
0FFFE0
0E00E0
0FFFE0
0FFFE0
0EE0E0
01C01C
07BFFC
0FFFFC
3E3B9C
F8F79C
E1E71C
03CF1C
0F9E1C
3E3C3C
F87838
E1F3F8
07C3F0
0700E0
ENDCHAR

STARTCHAR jisx0208_3058
ENCODING 12376
SWIDTH 960 0
DWIDTH 22 0
BBX 22 22 0 -2
BITMAP
1E0780
1C07B8
1C7F7C
1F7FFC
FB8700
FF8DE0
1C1EF0
3E7C70
3F707C
3B0F8C
7BFFFC
7F8038
5C7FB8
DC7FB8
DC73B8
1C73B8
1C7FB8
1C7FB8
1C73B8
1C7078
1C01F8
1C0070
ENDCHAR

STARTCHAR jisx0208_3059
ENCODING 12377
SWIDTH 960 0
DWIDTH 22 0
BBX 22 22 0 -2
BITMAP
1E3C00
0F3C00
077800
0771C0
38FFE0
3FFFE0
00E1C0
01C3F0
01FF78
03FFF8
078070
0F00FC
1EFFDC
7FFFFC
F0001C
CB3B9C
1B9DDC
39DDDC
79DC3C
79C1F8
7001F8
000070
ENDCHAR

STARTCHAR jisx0208_305A
ENCODING 12378
SWIDTH 960 0
DWIDTH 22 0
BBX 22 22 0 -2
BITMAP
1FFFF8
1FFFF8
1C3870
1C3870
1FFFF0
1FFFF0
1C3870
1C3870
1FFFF0
1FFFF0
1C007C
E3FF9C
FFFFFC
0E1800
0E1C78
0E0EF8
0E0FE0
0E0780
0EFBF0
FFF9FC
FF807C
78001C
ENDCHAR

STARTCHAR jisx0208_305B
ENCODING 12379
SWIDTH 960 0
DWIDTH 22 0
BBX 22 22 0 -2
BITMAP
1FFFF8
1FFFF8
1C3870
1FFFF0
1FFFF0
1C3870
1FFFF0
1FFFF0
1C0070
01E780
3FDF78
3FFFF8
01C700
01C71C
FFFFFC
FFFFFC
000000
07C3E0
0FC0F8
1F007C
7C003C
70001C
ENDCHAR

STARTCHAR jisx0208_305C
ENCODING 12380
SWIDTH 960 0
DWIDTH 22 0
BBX 22 22 0 -2
BITMAP
1F87B8
FF8F7C
FC1FFC
1C3C38
1D7AF0
FFEFE0
FFC7C0
1C0380
3E1F60
3F7DE0
3BF3DC
7B87BC
7F8FFC
5C3E1C
DCFD3C
DCE778
1C03F0
1C00E0
1C07C0
1C1F00
1CFC00
1CF000
ENDCHAR

STARTCHAR jisx0208_305D
ENCODING 12381
SWIDTH 960 0
DWIDTH 22 0
BBX 22 22 0 -2
BITMAP
0E0F78
1E0F78
DD9E70
F9DCE8
73FBDC
3FBFFC
3779C0
0EF9C0
1BB9D8
FDBFFC
FFBFFC
6DB9C0
6E39C0
0F39D8
6FBFFC
6DBFFC
6DB9C0
6FB9C0
EEB9DC
CE3FFC
0E3FFC
0E3800
ENDCHAR

STARTCHAR jisx0208_305E
ENCODING 12382
SWIDTH 960 0
DWIDTH 22 0
BBX 22 22 0 -2
BITMAP
0E0780
1E07F0
DDBF78
F9FFF8
73CE74
3FBFEC
377FFC
0E0000
1B9FFC
FDDFFC
FFDC38
6DDFF8
6E1FF8
0F21C0
6FBFFC
6DBFFC
6DB9C0
6FFFFC
EE7FFC
CE01C0
0E01C0
0E01C0
ENDCHAR

STARTCHAR jisx0208_305F
ENCODING 12383
SWIDTH 960 0
DWIDTH 22 0
BBX 22 22 0 -2
BITMAP
3FFFFC
3FFFFC
383838
3FFFF8
3FFFF8
383838
3FFFF8
3FFFF8
380038
0400C0
0FFFF0
0FFFF0
0E00E0
0FFFE0
0FFFE0
0E00E0
0FFFE0
0FFFE0
0E00E0
0E07E0
0E07E0
0E01C0
ENDCHAR

STARTCHAR jisx0208_3060
ENCODING 12384
SWIDTH 960 0
DWIDTH 22 0
BBX 22 22 0 -2
BITMAP
03C3DC
FFBFBC
FFFFFC
038380
03BDE0
3C7FE0
3FF81C
C03FFC
FFFFFC
00F600
1FBBFC
FE78FC
F0601C
00F800
FFE7FC
FFFFFC
0381C0
0F7780
0FFF60
061FFC
79F8FC
7F801C
ENDCHAR

STARTCHAR jisx0208_3061
ENCODING 12385
SWIDTH 960 0
DWIDTH 22 0
BBX 22 22 0 -2
BITMAP
003C00
003800
00381C
FFFFFC
FFFFFC
007800
00D800
01DC60
03CC78
078CF8
0F0DE0
3F07C0
F70700
E70700
070380
0703C0
0701E0
071FF0
07FEF8
7EF07C
7F803C
3C001C
ENDCHAR

STARTCHAR jisx0208_3062
ENCODING 12386
SWIDTH 960 0
DWIDTH 22 0
BBX 22 22 0 -2
BITMAP
7FBFFC
7FBFFC
00399C
FFBFFC
FFBFFC
00399C
7FBFFC
7FBFFC
00381C
7F8020
7F9FFC
001FFC
639C38
7FDFF8
7FDFF8
739C38
739FF8
739FF8
7F9C38
7F9DF8
739DF8
701C70
ENDCHAR

STARTCHAR jisx0208_3063
ENCODING 12387
SWIDTH 960 0
DWIDTH 22 0
BBX 22 22 0 -2
BITMAP
600FE0
78FEF0
3CFFF0
1C1CEC
1DFFFC
01FFFC
000000
007FF8
1C7038
FE7FF8
FE7FF8
1C0380
1C7FFC
1C7FFC
1C7380
1FFFFC
1BFFFC
3C0380
F78380
F3FC7C
61FFFC
607FFC
ENDCHAR

STARTCHAR jisx0208_3064
ENCODING 12388
SWIDTH 960 0
DWIDTH 22 0
BBX 22 22 0 -2
BITMAP
60C770
78FEF8
3CFFF8
1CE670
1CFFF0
00FFFC
03060C
03FFFC
1C0000
FEFFF0
FEE070
1CFFF0
1CE070
1CFFF0
1CE070
1CFFF0
1C18C0
3EFC78
F7E038
F39FC4
61FFFC
607FFC
ENDCHAR

STARTCHAR jisx0208_3065
ENCODING 12389
SWIDTH 960 0
DWIDTH 22 0
BBX 22 22 0 -2
BITMAP
600038
7FFFFC
7FFFFC
70C000
70F000
71E0E0
71DFF0
73FFF0
771C00
761C38
79FFFC
6FFFFC
701C00
7037C0
7079F0
70F0F8
73E078
7F8038
6E0004
71FFFC
7FFFFC
700000
ENDCHAR

STARTCHAR jisx0208_3066
ENCODING 12390
SWIDTH 960 0
DWIDTH 22 0
BBX 22 22 0 -2
BITMAP
03C3C0
038380
038380
0383B8
7FFFFC
7FFFFC
038380
038380
038380
038380
038380
03839C
FFFFFC
FFFFFC
038380
078380
070380
0F0380
1E0380
3C0380
F80380
E00380
ENDCHAR

STARTCHAR jisx0208_3067
ENCODING 12391
SWIDTH 960 0
DWIDTH 22 0
BBX 22 22 0 -2
BITMAP
003C00
003800
00381C
FFFFFC
FFFFFC
007000
0CFBC0
0EE3C0
07C780
038F60
01DE78
01FC78
0038F0
03E1E0
3F83C0
3E0780
001F00
003DE0
00F8F0
07E078
7F8038
7C0038
ENDCHAR

STARTCHAR jisx0208_3068
ENCODING 12392
SWIDTH 960 0
DWIDTH 22 0
BBX 22 22 0 -2
BITMAP
3C03DC
38039C
38038C
39FFF4
3FFFFC
F60380
FFDB80
38FB98
38FB9C
38DB9C
38D9DC
38D9FC
38F9B8
3AF9F8
3ED8F0
FEC6E4
FD3FE4
73F9EC
61E77C
018F3C
003E1C
00380C
ENDCHAR

STARTCHAR jisx0208_3069
ENCODING 12393
SWIDTH 960 0
DWIDTH 22 0
BBX 22 22 0 -2
BITMAP
003C00
00381C
FFFFFC
FFFFFC
00E000
03C1F0
7F3E7C
7FFFBC
3E005C
37FFE0
07FFE0
0701C0
07FFC0
07FFC0
0701C0
07FFC0
07FFC0
0701C0
0701C0
070FC0
070FC0
070380
ENDCHAR

STARTCHAR jisx0208_306A
ENCODING 12394
SWIDTH 960 0
DWIDTH 22 0
BBX 22 22 0 -2
BITMAP
0F061C
0F77FC
FEF7FC
FFF71C
1C071C
1CE738
3FF738
3FF730
38E770
78E760
7FE738
FFE71C
B8E71C
38E70C
3FE70C
3FE70C
38E71C
38E7FC
38E6FC
3BE738
3BE700
39C700
ENDCHAR

STARTCHAR jisx0208_306B
ENCODING 12395
SWIDTH 960 0
DWIDTH 22 0
BBX 22 22 0 -2
BITMAP
0363F0
FF73B8
FF7BBC
18DBEC
19DBEC
38FB7C
3873B8
36DBEC
7FBB5C
7DEBF4
F6CBB0
B737FC
35FFFC
36E380
36E3B8
36FBFC
3EFD74
3FDDEC
35DBEC
33877C
071F3C
061C1C
ENDCHAR

STARTCHAR jisx0208_306C
ENCODING 12396
SWIDTH 960 0
DWIDTH 22 0
BBX 22 22 0 -2
BITMAP
000000
000000
000000
000000
000000
000000
000000
000000
00001C
FFFFFC
FFFFFC
000000
000000
000000
000000
000000
000000
000000
000000
000000
000000
000000
ENDCHAR

STARTCHAR jisx0208_306D
ENCODING 12397
SWIDTH 960 0
DWIDTH 22 0
BBX 22 22 0 -2
BITMAP
003C00
003838
7FFFFC
7FFFFC
003800
1FFFF0
1FFFF0
000000
30001C
3FFFFC
7FFFFC
F0001C
F783B8
E707F0
073FC0
07FE00
07E030
070030
070038
07FFF8
07FFF8
03FFF0
ENDCHAR

STARTCHAR jisx0208_306E
ENCODING 12398
SWIDTH 960 0
DWIDTH 22 0
BBX 22 22 0 -2
BITMAP
3C7078
1E3878
0E38E4
0FDFDC
C1FFFC
F030C0
7B3CE0
3B7870
3F7878
06F03C
0FE03C
1DC01C
1AFFEC
38FFF8
F8EDB8
F0EDB8
70EDB8
38EDB8
38EDB8
38EDBC
3BFFF4
3BFFFC
ENDCHAR

STARTCHAR jisx0208_306F
ENCODING 12399
SWIDTH 960 0
DWIDTH 22 0
BBX 22 22 0 -2
BITMAP
601E00
783FC0
3C39E0
1C7FE0
1CF198
01EF7C
03FFFC
02E738
1CE738
FEFFF8
FEFFF8
1CDBB8
1C3B80
1C3B98
1C7B98
1CF3FC
1DE3FC
3F81F8
F60000
F3FFFC
61FFFC
607FFC
ENDCHAR

STARTCHAR jisx0208_3070
ENCODING 12400
SWIDTH 960 0
DWIDTH 22 0
BBX 22 22 0 -2
BITMAP
1F81FC
FFFFFC
FC7F80
1C061C
1C739C
1F3BBC
FBBBB8
FFB870
1C066C
3E779C
3F77FC
7B771C
7B771C
5F771C
DC77FC
DC77FC
1C771C
1C771C
1C771C
1C77FC
1C77FC
1C771C
ENDCHAR

STARTCHAR jisx0208_3071
ENCODING 12401
SWIDTH 960 0
DWIDTH 22 0
BBX 22 22 0 -2
BITMAP
03C3C0
03839C
FFFFFC
FFFFFC
038380
03BF80
603C00
78781C
3C77FC
1CFFFC
1CE71C
0DC738
038FB0
030D80
001DC0
0F1DC0
3E3CE0
FC78F0
F8F078
73E07C
6F803C
0E001C
ENDCHAR

STARTCHAR jisx0208_3072
ENCODING 12402
SWIDTH 960 0
DWIDTH 22 0
BBX 22 22 0 -2
BITMAP
03C3C0
03839C
FFFFFC
FFFFFC
038380
038380
000060
1FFFF0
1FFFF0
003800
003800
00381C
FFFFFC
FFFFFC
003800
003800
003800
003800
003800
03F800
03F800
007000
ENDCHAR

STARTCHAR jisx0208_3073
ENCODING 12403
SWIDTH 960 0
DWIDTH 22 0
BBX 22 22 0 -2
BITMAP
1F060C
1B7EFC
3F7EFC
33060C
7EB66C
FFBE7C
ADBE7C
2DF6EC
3F70E0
3F6EDC
2D7EFC
2DE6CC
3F962C
3F76FC
31BE5C
000E2C
5577EC
55F5EC
D5B6CC
DD8E3C
D83C78
C01830
ENDCHAR

STARTCHAR jisx0208_3074
ENCODING 12404
SWIDTH 960 0
DWIDTH 22 0
BBX 22 22 0 -2
BITMAP
007800
007800
00F000
00E380
01C3E0
01C0F0
038778
7F7FFC
7FFE1C
3D879C
31E700
01C700
01C700
01C700
01C700
03C70C
03870C
07870C
0F070C
3E07FC
F807FC
E003FC
ENDCHAR

STARTCHAR jisx0208_3075
ENCODING 12405
SWIDTH 960 0
DWIDTH 22 0
BBX 22 22 0 -2
BITMAP
03E000
6FEC1C
7F0FFC
780FFC
700E1C
700E1C
700E1C
71CE1C
7FEE1C
7FEE1C
700E1C
700E1C
700E1C
700E1C
71CE1C
7FEEFC
7FEEFC
700E38
700E00
000E00
000E00
000E00
ENDCHAR

STARTCHAR jisx0208_3076
ENCODING 12406
SWIDTH 960 0
DWIDTH 22 0
BBX 22 22 0 -2
BITMAP
00FFFC
CEFFFC
FEE01C
FEE79C
EEE79C
EEE71C
EEE7DC
EEFEDC
EEFFDC
EEE71C
EEE71C
EEE71C
EEEF9C
FEEDDC
FEEDDC
EEFCDC
EEDCDC
E0F8DC
00F01C
00EFFC
00FFFC
00E01C
ENDCHAR

STARTCHAR jisx0208_3077
ENCODING 12407
SWIDTH 960 0
DWIDTH 22 0
BBX 22 22 0 -2
BITMAP
0FFFF0
0FFFF0
0E00E0
0FFFE0
0FFFE0
1E00F0
19FF38
1FFFF8
1C0070
1FFFF0
1FFFF0
1C0070
1FFFF0
1FFFF0
1C0070
1FFFF0
1FFFF0
1C0070
03E780
0FE1F8
7F0078
780038
ENDCHAR

STARTCHAR jisx0208_3078
ENCODING 12408
SWIDTH 960 0
DWIDTH 22 0
BBX 22 22 0 -2
BITMAP
7FFFFC
7FFFFC
70001C
703C1C
703C1C
70381C
7039DC
7FFFDC
6FFFDC
70381C
706C1C
70EE1C
70E71C
71E79C
73C3DC
7783DC
7F01DC
6C00DC
70001C
7FFFFC
7FFFFC
70001C
ENDCHAR

STARTCHAR jisx0208_3079
ENCODING 12409
SWIDTH 960 0
DWIDTH 22 0
BBX 22 22 0 -2
BITMAP
3C601C
3C7FFC
387FFC
3B701C
FFF3DC
FFF3DC
3B739C
3B7F7C
3B7FFC
73739C
73739C
77739C
7773DC
E776DC
FE76DC
DF767C
EF7E7C
1B6C5C
3B781C
7177FC
E07FFC
C0701C
ENDCHAR

STARTCHAR jisx0208_307A
ENCODING 12410
SWIDTH 960 0
DWIDTH 22 0
BBX 22 22 0 -2
BITMAP
FFF83C
FFF838
007038
007038
307038
3FF038
3FF038
387038
380038
380038
787038
77F838
7FF838
707038
007038
007038
007038
00F038
00E038
1FE038
1FC038
078038
ENDCHAR

STARTCHAR jisx0208_307B
ENCODING 12411
SWIDTH 960 0
DWIDTH 22 0
BBX 22 22 0 -2
BITMAP
078780
0F8780
0F4700
1DEE00
3EEE1C
77EDFC
FF1FFC
BFDB9C
38FBB8
3FF3B0
3FE380
38E380
3FE7C0
3FE6C0
38E6E0
3B0EE0
39CE70
3FDE78
F6FC3C
FCB83C
70701C
60C00C
ENDCHAR

STARTCHAR jisx0208_307C
ENCODING 12412
SWIDTH 960 0
DWIDTH 22 0
BBX 22 22 0 -2
BITMAP
3C00FC
1E07FC
0EFFC0
0EFC1C
C00E3C
F0E738
787770
3E7760
367010
0E07F8
0CFFF8
1CFF00
1C0700
38071C
FBFFFC
F3FFFC
700700
380700
380738
39FFFC
39FFFC
380000
ENDCHAR

STARTCHAR jisx0208_307D
ENCODING 12413
SWIDTH 960 0
DWIDTH 22 0
BBX 22 22 0 -2
BITMAP
3C70F0
3B7CE0
3BEEE0
39DEE0
39DCE0
38FAE0
3F36E0
37FEE0
3BC6E0
3808E0
3BFEE0
3BFEE0
3B8EE0
3BFEE0
3BFEE0
3B8EEC
7BFEEC
73FEEC
738EEC
63BEFC
E3BEFC
C39C7C
ENDCHAR

STARTCHAR jisx0208_307E
ENCODING 12414
SWIDTH 960 0
DWIDTH 22 0
BBX 22 22 0 -2
BITMAP
01E3DC
FFDFBC
FFFFFC
01C380
620600
7FCF80
7FDF40
73BDF0
777AFC
77EFBC
7ED05C
6C3FE0
7700F8
773FDC
73BFFC
73C000
7F7FFC
7F8700
770EF8
70FDFC
70FF1C
70701C
ENDCHAR

STARTCHAR jisx0208_3121
ENCODING 12577
SWIDTH 960 0
DWIDTH 22 0
BBX 22 22 0 -2
BITMAP
FF8780
FFE71C
E77FFC
E7FFFC
EEE01C
EDE018
FCC060
D83FF8
EE3FF8
EE0000
E7001C
E7FFFC
E6FFFC
E71DC0
FF1DC0
DF1DC0
EE3DCC
E039CC
E079CC
E0F1FC
E3E1FC
E380FC
ENDCHAR

STARTCHAR jisx0208_3122
ENCODING 12578
SWIDTH 960 0
DWIDTH 22 0
BBX 22 22 0 -2
BITMAP
FF8780
FF8F80
E70F00
E71DC0
EE3CF0
EE7B78
FCFFBC
D9E05C
EF9FEC
EE3FF0
E700E0
E77FD8
E77FF8
E70000
FFFFFC
DEFFFC
EE0E00
E01CF0
E03978
E1F7FC
E1FF1C
E0F01C
ENDCHAR

STARTCHAR jisx0208_3123
ENCODING 12579
SWIDTH 960 0
DWIDTH 22 0
BBX 22 22 0 -2
BITMAP
FF81FC
FFFFFC
E77F80
E70C38
EE7778
EE3FF0
FC38C8
D8473C
EE7FFC
EE0038
E77FF8
E77FF8
E70038
E77FF8
FF7FF8
DF0338
EEDF80
E0DDFC
E1DC6C
E3DFEC
E39FEC
E38FE0
ENDCHAR

STARTCHAR jisx0208_3124
ENCODING 12580
SWIDTH 960 0
DWIDTH 22 0
BBX 22 22 0 -2
BITMAP
0F0FFC
0ECFFC
FFEE38
FFEFF8
618FF8
39CE38
3B9004
C75FFC
FFDFFC
001C1C
7FDFFC
7FDFFC
71DC1C
71DFFC
7FDFFC
7FDC1C
71DFFC
71DFFC
7FCC30
7FDF1C
71FC0C
70700C
ENDCHAR

STARTCHAR jisx0208_3125
ENCODING 12581
SWIDTH 960 0
DWIDTH 22 0
BBX 22 22 0 -2
BITMAP
0000F0
C700E0
FF80E0
FF80E0
E700FC
E7FFDC
E6FFFC
E700E0
E760E0
E770E0
E738E0
E73CE0
E71CE0
FF1CE0
FF0CE0
E700E0
E700E0
E000E0
0000E0
000FE0
000FE0
0001C0
ENDCHAR

STARTCHAR jisx0208_3126
ENCODING 12582
SWIDTH 960 0
DWIDTH 22 0
BBX 22 22 0 -2
BITMAP
007800
007800
007000
00F01C
FFEFFC
FFFFFC
00E000
01C000
03C000
078000
070070
0FFFF8
1FFFF8
3B8070
7B8070
E38070
C38070
038070
038070
03FFF0
03FFF0
038070
ENDCHAR

STARTCHAR jisx0208_3127
ENCODING 12583
SWIDTH 960 0
DWIDTH 22 0
BBX 22 22 0 -2
BITMAP
003C00
30381C
3FFFFC
7FFFFC
F0001C
F00038
E001F0
1FFFC0
1FFFE0
003800
003800
00381C
FFFFFC
FFFFFC
003800
003800
003800
003800
003800
03F800
03F800
007000
ENDCHAR

STARTCHAR jisx0208_3128
ENCODING 12584
SWIDTH 960 0
DWIDTH 22 0
BBX 22 22 0 -2
BITMAP
007800
18F8E0
1FE7F0
1FFFF0
1C00E0
1C00E0
1FFFE0
1FFFE0
1C00E0
1C001C
1FFFFC
1FFFFC
1C0000
1FFFFC
1FFFFC
1C001C
23739C
33BB9C
73B9BC
F3B878
E381F8
E00070
ENDCHAR

STARTCHAR jisx0208_3129
ENCODING 12585
SWIDTH 960 0
DWIDTH 22 0
BBX 22 22 0 -2
BITMAP
00E01C
FFEFFC
FFEFFC
00E01C
00E01C
30E61C
38E71C
1CE39C
1CE39C
1CE39C
00E01C
02E05C
06E0DC
1EE3DC
FCFF9C
F8DF1C
70EE1C
60EC1C
00E01C
07E0FC
07E0FC
01C038
ENDCHAR

STARTCHAR jisx0208_312A
ENCODING 12586
SWIDTH 960 0
DWIDTH 22 0
BBX 22 22 0 -2
BITMAP
600038
78FFFC
3CFFFC
1C0700
1C0700
000700
000700
00071C
1DFFFC
FFFFFC
FE0700
1C0700
1C0700
1C0700
1C0700
1C0700
1C3F00
3E3F00
F78E00
F3F1FC
61FFFC
607FFC
ENDCHAR

STARTCHAR jisx0208_312B
ENCODING 12587
SWIDTH 960 0
DWIDTH 22 0
BBX 22 22 0 -2
BITMAP
FFFFFC
FFFFFC
003800
003800
60381C
7FFFFC
7FFFFC
70381C
763B1C
773B9C
73B9DC
73B9DC
73B9DC
70381C
763B1C
773B9C
73B9DC
73B9DC
73B9DC
70383C
7038FC
703838
ENDCHAR

STARTCHAR jisx0208_312C
ENCODING 12588
SWIDTH 960 0
DWIDTH 22 0
BBX 22 22 0 -2
BITMAP
33F61C
3FF7FC
3F07FC
38F71C
38F71C
38E71C
38E71C
38E71C
38E71C
38E71C
38E71C
38E71C
39E71C
3FE71C
F6E71C
FDE7FC
71C6FC
63C738
078700
0F0700
3E0700
380700
ENDCHAR

STARTCHAR jisx0208_312D
ENCODING 12589
SWIDTH 960 0
DWIDTH 22 0
BBX 22 22 0 -2
BITMAP
71C1C0
3BCBF8
3B0F3C
07EFFC
FEEE38
FFEFF8
0EEFF8
7FEE38
7FEFF8
6EEFF8
6E0E04
FFEFFC
FFEFFC
CEEE00
1EEFFC
3FEFFC
3DF01C
6ED5DC
EE3DBC
CE3878
0E31F8
0E0070
ENDCHAR

STARTCHAR jisx0208_312E
ENCODING 12590
SWIDTH 960 0
DWIDTH 22 0
BBX 22 22 0 -2
BITMAP
303C1C
3FFBFC
7FFFFC
F30E1C
FFCE78
EF0FF0
1C07E0
721818
0F9FFC
7DDFFC
7FDC38
0E1FF8
0EDC38
FFDFF8
FFDC38
0E1FF8
1F9FF8
1DC6E4
3DCEEC
79DEFC
F03CFC
C0F07C
ENDCHAR

STARTCHAR jisx0208_312F
ENCODING 12591
SWIDTH 960 0
DWIDTH 22 0
BBX 22 22 0 -2
BITMAP
3FFFE0
3FFFE0
01C1C0
01C1C0
01C1C0
01C1C0
03C1C0
0381C0
0381DC
FFFFFC
FFFFFC
038380
038380
038380
078380
070380
070380
070380
0703B8
7FFFFC
7FFFFC
000000
ENDCHAR

STARTCHAR jisx0208_3130
ENCODING 12592
SWIDTH 960 0
DWIDTH 22 0
BBX 22 22 0 -2
BITMAP
00CF78
FFEF78
FFEEF0
1C1EEC
1C1DDC
1C1FFC
3C3CE0
3BBCE0
3FFCEC
3F5FFC
7BDFFC
7B9CE0
FB9CE0
BB9CEC
3B9FFC
3B9FFC
3B9CE0
3F9CE0
3F9CEC
3B9FFC
381FFC
001C00
ENDCHAR

STARTCHAR jisx0208_3131
ENCODING 12593
SWIDTH 960 0
DWIDTH 22 0
BBX 22 22 0 -2
BITMAP
01F000
37F038
3F8FFC
3E0FFC
380038
380038
380038
380038
380038
39C038
3FEFF8
3FEFF8
380038
380038
380038
380038
380038
380038
3FFFF8
3FFFF8
380038
380038
ENDCHAR

STARTCHAR jisx0208_3132
ENCODING 12594
SWIDTH 960 0
DWIDTH 22 0
BBX 22 22 0 -2
BITMAP
3C7FF8
1E7FF8
0E7070
0E7670
C077F0
F077F0
7B7670
3F7670
36767C
0DFFEC
0DFFFC
1DC01C
1DDFDC
39DFDC
F9D99C
F1D99C
71DF9C
39DF9C
39D99C
39D87C
39C0FC
39C038
ENDCHAR

STARTCHAR jisx0208_3133
ENCODING 12595
SWIDTH 960 0
DWIDTH 22 0
BBX 22 22 0 -2
BITMAP
000798
CE077C
FF07FC
FFC700
EEFFFC
EEFFFC
EEE71C
EEE778
EEE7E4
EEFFEC
EEFF0C
EEE7FC
FEE3FC
FFE400
EDD6DC
E1B6DC
E1B6F8
0396B0
0396FC
076FCC
0EFFFC
0C0000
ENDCHAR

STARTCHAR jisx0208_3134
ENCODING 12596
SWIDTH 960 0
DWIDTH 22 0
BBX 22 22 0 -2
BITMAP
007FFC
C77FFC
FF7038
FF7038
E77038
E77FF8
E77FF8
E77038
E77038
E77FF8
E77FF8
E77038
E77038
FF7038
FF7FF8
E77FF8
E07038
E01EC0
007E7C
01F83C
07E01C
07000C
ENDCHAR

STARTCHAR jisx0208_3135
ENCODING 12597
SWIDTH 960 0
DWIDTH 22 0
BBX 22 22 0 -2
BITMAP
1F7C7C
FBBBEC
FFEBFC
1CE470
773DDC
DFFB7C
D8EB6C
271490
3FFFF8
39C738
3FFFF8
3FFFF8
000000
3FF03C
387FF4
3FEFFC
387038
3FF7B8
38C3B8
FFF078
FE71F8
707070
ENDCHAR

STARTCHAR jisx0208_3136
ENCODING 12598
SWIDTH 960 0
DWIDTH 22 0
BBX 22 22 0 -2
BITMAP
01E79C
FFDF7C
FFFFFC
01C700
31FF3C
3E383C
3FFC38
38383C
3FFFF4
3FF7FC
380038
37F638
380738
3FFBB8
3FFBB8
39C3B8
3DB838
6DDC38
6DDC38
FFCDF8
D7C1F8
018070
ENDCHAR

STARTCHAR jisx0208_3137
ENCODING 12599
SWIDTH 960 0
DWIDTH 22 0
BBX 22 22 0 -2
BITMAP
1F1FFC
1B9FFC
3F9C38
331FF8
76DC38
6FFFF8
FFE004
B6BFFC
36BFFC
3FBADC
3FBFFC
36BFFC
36F800
3FC7FC
3FBFFC
30C638
460778
56E3F0
5FE3E0
FB65FC
EB1F7C
E03C1C
ENDCHAR

STARTCHAR jisx0208_3138
ENCODING 12600
SWIDTH 960 0
DWIDTH 22 0
BBX 22 22 0 -2
BITMAP
1E0F1C
1E0E1C
1C0FBC
3F7DB8
FBFFF8
FFCE70
3B8EF0
3B8EEC
7BFFFC
73FFFC
738380
770F18
F71E3C
E73CFC
FFFFF0
DEDF80
0F1C0C
1F9C0C
3B9C0C
739FFC
E39FFC
C00FFC
ENDCHAR

STARTCHAR jisx0208_3139
ENCODING 12601
SWIDTH 960 0
DWIDTH 22 0
BBX 22 22 0 -2
BITMAP
30001C
3FFFFC
3FFFFC
380000
3BF7FC
3BF7FC
3B3360
3BF360
3BF360
3B3360
3B336C
3BFFFC
3BFFFC
3B30C0
3B41F0
3B71E0
733960
737B6C
63FB6C
EFDF6C
CF067C
060C3C
ENDCHAR

STARTCHAR jisx0208_313A
ENCODING 12602
SWIDTH 960 0
DWIDTH 22 0
BBX 22 22 0 -2
BITMAP
3C0770
1E073C
0FFFCC
0DFFFC
C00700
F0C71C
78FFFC
3EFFFC
36E71C
0EE71C
0CFFFC
1CFFFC
1CE71C
38E71C
F8FFFC
F0FFFC
70E71C
38E71C
38E71C
38E7FC
38E6FC
38E038
ENDCHAR

STARTCHAR jisx0208_313B
ENCODING 12603
SWIDTH 960 0
DWIDTH 22 0
BBX 22 22 0 -2
BITMAP
1803FC
1FFFFC
1FFF60
1C3060
1C3C60
1C3860
1C3860
1C3860
1C3870
1C3870
1C3830
1C3830
1C3838
1C3838
3C3B38
383B9C
3839DC
383FDC
77F7FC
77FCEC
E3E0CC
C3000C
ENDCHAR

STARTCHAR jisx0208_313C
ENCODING 12604
SWIDTH 960 0
DWIDTH 22 0
BBX 22 22 0 -2
BITMAP
7FE7FC
7FE7FC
71C71C
7FC7FC
7FC7FC
71C71C
7FC7FC
7FC7FC
71C71C
70001C
73FF9C
73FF9C
70381C
73FF9C
73FF9C
70381C
70399C
77FFDC
77FFDC
70003C
7000FC
700038
ENDCHAR

STARTCHAR jisx0208_313D
ENCODING 12605
SWIDTH 960 0
DWIDTH 22 0
BBX 22 22 0 -2
BITMAP
CE3C70
FF1CFC
FFEFCC
EDFFFC
EE0B00
EEFFFC
EEFFFC
EEEB38
EEFAB8
EEDBB8
EEE478
EEFFF8
FEE038
FEFFF8
EEE0E4
E11FFC
E7FFFC
0000E0
00F0E0
0077E0
0007E0
0001C0
ENDCHAR

STARTCHAR jisx0208_313E
ENCODING 12606
SWIDTH 960 0
DWIDTH 22 0
BBX 22 22 0 -2
BITMAP
3FFFF8
3FFFF8
000000
000000
000000
000000
00001C
FFFFFC
FFFFFC
007000
00F000
00E000
00E000
01C000
01C0C0
0380E0
030070
0707F8
7EFFF8
7FFE3C
3E001C
30001C
ENDCHAR

STARTCHAR jisx0208_313F
ENCODING 12607
SWIDTH 960 0
DWIDTH 22 0
BBX 22 22 0 -2
BITMAP
60FFFC
79FFFC
3BC01C
1F87B8
1C7F7C
01FFFC
000700
007FF8
1C7738
FE7FF8
FE7FF8
1C7738
1C7FF8
1C7FF8
1C7704
1D8FFC
1DFFFC
3E0700
F78700
F3F8FC
61FFFC
607FFC
ENDCHAR

STARTCHAR jisx0208_3140
ENCODING 12608
SWIDTH 960 0
DWIDTH 22 0
BBX 22 22 0 -2
BITMAP
0FFFF0
0FFFF0
30380C
3FFFFC
7FFFFC
F0381C
FFBFF8
5FB7F0
003800
1FBFF0
1FB7F0
003800
1FC7F0
1FFFF0
00000C
FFFFFC
FFFFFC
00E300
01DDF0
3FBFF8
3FF078
1E0038
ENDCHAR

STARTCHAR jisx0208_3141
ENCODING 12609
SWIDTH 960 0
DWIDTH 22 0
BBX 22 22 0 -2
BITMAP
01E79C
FFDF7C
FFFFFC
01C700
01C700
0DC700
0E00F0
0F07F8
1EFFF8
1CFF00
3E0700
3E0700
7C071C
DFFFFC
DBFFFC
1C0700
1C0700
1C0700
1C0738
1DFFFC
1DFFFC
1C0000
ENDCHAR

STARTCHAR jisx0208_3142
ENCODING 12610
SWIDTH 960 0
DWIDTH 22 0
BBX 22 22 0 -2
BITMAP
07801C
0FBFFC
0F7FFC
1DCE38
3EEE38
77EE38
FF0FF8
BFEFF8
38EE38
3FEE38
3FEFF8
38EFF8
3FEE38
3FEE38
38EE3C
3B0FF4
39BDFC
3FFF38
F6E038
FCE038
706038
600038
ENDCHAR

STARTCHAR jisx0208_3143
ENCODING 12611
SWIDTH 960 0
DWIDTH 22 0
BBX 22 22 0 -2
BITMAP
078000
07601C
37F7FC
3F3FFC
7FFB1C
F03B1C
EFF31C
5FE31C
20033C
37F3B8
7FB9B8
EDF9B8
DCE1F8
337970
FFF8F0
B8D8E0
3FE1F0
38E1B8
3FE3BC
38E71C
3FEE1C
38EC0C
ENDCHAR

STARTCHAR jisx0208_3144
ENCODING 12612
SWIDTH 960 0
DWIDTH 22 0
BBX 22 22 0 -2
BITMAP
1EF0F0
0F79F0
0739C0
373B9C
38C77C
7FFFFC
F0001C
F7FFF8
67FFE0
0701C0
0701C0
07FFC0
07FFC0
183830
1FF7F8
1FFFF8
1C0070
1C0070
1C0070
1FFFF0
1FFFF0
1C0070
ENDCHAR

STARTCHAR jisx0208_3145
ENCODING 12613
SWIDTH 960 0
DWIDTH 22 0
BBX 22 22 0 -2
BITMAP
3FE7FC
3FE7FC
39C738
3FC7F8
39C738
3FC7F8
39C738
3FC7F8
198630
3CEF1C
78FE1C
601818
00F004
FFEFFC
FFFFFC
01C380
07B780
07FF00
071EE0
00FBF8
7FE0F8
7F0038
ENDCHAR

STARTCHAR jisx0208_3146
ENCODING 12614
SWIDTH 960 0
DWIDTH 22 0
BBX 22 22 0 -2
BITMAP
7FF838
7FF878
7070F0
7FF1E0
7073C0
7FFF98
770E1C
8FF03C
FFF878
0000F0
7FF9E0
7FFBCC
70778C
7FEE1C
7FF03C
070078
36E0F0
7771E0
7777C0
EF7F00
DF1C00
060000
ENDCHAR

STARTCHAR jisx0208_3147
ENCODING 12615
SWIDTH 960 0
DWIDTH 22 0
BBX 22 22 0 -2
BITMAP
000780
CE0700
FF6770
FF7FF8
EE7FF8
EE7770
EE7770
EE7770
FE7770
FE7770
EE777C
EFFFEC
EFFFFC
EE0700
FE0F80
FE0DC0
EE1EE0
EE3C70
E07878
01F03C
07C01C
07000C
ENDCHAR

STARTCHAR jisx0208_3148
ENCODING 12616
SWIDTH 960 0
DWIDTH 22 0
BBX 22 22 0 -2
BITMAP
00F000
60E0E0
7FFFF0
7FFFF0
70E0E0
70E0E0
7FFFE0
7FFFE0
70E0E0
70E0E0
7FFFE0
7FFFE0
7070E0
707100
0079E0
003BE4
003F84
001E0C
01FFCC
0FF7FC
FF81FC
F8007C
ENDCHAR

STARTCHAR jisx0208_3149
ENCODING 12617
SWIDTH 960 0
DWIDTH 22 0
BBX 22 22 0 -2
BITMAP
3CF078
1E78F8
0E38E0
3E39DC
31C7BC
7FFFFC
F0001C
F03C38
E03830
003808
7FFFFC
7FFFFC
007C00
01F700
03BF80
07BBC0
1F39F0
3E38FC
F8387C
E0381C
003800
003800
ENDCHAR

STARTCHAR jisx0208_314A
ENCODING 12618
SWIDTH 960 0
DWIDTH 22 0
BBX 22 22 0 -2
BITMAP
00F000
007800
003800
003800
000000
0FFC30
0FFC3C
00387C
03BCF0
FFBDE0
FFB7C0
03BF00
07BB80
073BC0
0F39E0
0E39F0
1E38F8
3C387C
78383C
F1F81C
C1F800
007000
ENDCHAR

STARTCHAR jisx0208_314B
ENCODING 12619
SWIDTH 960 0
DWIDTH 22 0
BBX 22 22 0 -2
BITMAP
3C1E00
1E0F00
0E0700
0E0700
C00000
F0FF80
76FF80
36070C
36379C
0FFFBC
0DFFFC
1C37F0
1C76C0
3877E0
F87770
F0E778
70E73C
39C73C
3B871C
3B3F0C
383F00
380E00
ENDCHAR

STARTCHAR jisx0208_314C
ENCODING 12620
SWIDTH 960 0
DWIDTH 22 0
BBX 22 22 0 -2
BITMAP
780780
3CC738
1CFFFC
1CFFFC
C0E738
F0E738
78FFF8
3EFFF8
36E738
0EE738
0CFFF8
1CFFF8
1CE738
38E780
F803F8
F0037C
7003E4
3801CC
380FEC
383EFC
3BFC7C
3BE01C
ENDCHAR

STARTCHAR jisx0208_314D
ENCODING 12621
SWIDTH 960 0
DWIDTH 22 0
BBX 22 22 0 -2
BITMAP
063CF0
FF38E8
FFFFDC
39FFFC
3838E0
3837E0
384710
3E7FF8
F77FF8
FF7770
387770
387770
38777C
3BFFEC
3BFFFC
3C0D80
F71EE0
FC3CF0
707878
61F03C
07C01C
07000C
ENDCHAR

STARTCHAR jisx0208_314E
ENCODING 12622
SWIDTH 960 0
DWIDTH 22 0
BBX 22 22 0 -2
BITMAP
7FFFC0
7FFFC0
0E0380
0E03B8
0E77FC
0FF7FC
1FF738
1C7738
1F7038
3BE078
38FBF0
77BFF0
EF1CE0
D00010
1FFFF8
1FFFF8
1CEE70
1CEE70
1CEE7C
FFFFEC
FFFFFC
000000
ENDCHAR

STARTCHAR jisx0208_314F
ENCODING 12623
SWIDTH 960 0
DWIDTH 22 0
BBX 22 22 0 -2
BITMAP
7BBFFC
77FFFC
7FC1C0
7E1B9C
70DF7C
7FDFFC
3FDC1C
001C1C
0FDFFC
FFDFFC
FE1C1C
0EDFFC
FFDFFC
FFDC1C
1E1C1C
3FDFFC
3DDFFC
6EFC1C
EEE730
CE1F1C
0E7C0C
0E700C
ENDCHAR

STARTCHAR jisx0208_3150
ENCODING 12624
SWIDTH 960 0
DWIDTH 22 0
BBX 22 22 0 -2
BITMAP
7B9FFC
77DFFC
7FC1C0
7E0B9C
70EF7C
7FEFFC
7FEE1C
3FCE1C
000FFC
7FCFFC
7FCE1C
000FFC
FFEFFC
FFEE1C
0E0E1C
6DCFFC
6EEFFC
6EEE1C
EEE3B0
DE0F9C
3E3E0C
0C380C
ENDCHAR

STARTCHAR jisx0208_3151
ENCODING 12625
SWIDTH 960 0
DWIDTH 22 0
BBX 22 22 0 -2
BITMAP
03C3DC
FFBFBC
FFFFFC
038380
03BB80
03BB80
0C3860
0FFFF0
0FFFF0
0E38E0
0E38E0
0E38EC
FFFFFC
FFFFFC
006C00
00F700
01E780
03C3C0
0781F0
1F00FC
FC007C
F0001C
ENDCHAR

STARTCHAR jisx0208_3152
ENCODING 12626
SWIDTH 960 0
DWIDTH 22 0
BBX 22 22 0 -2
BITMAP
1C7E0C
3DEEFC
39FEFC
70EF00
EBFDC0
CFFFC0
1E000C
1DFFFC
3DFFFC
39C738
7DFF38
F9FF38
B9DC38
381F38
39FBB8
39FFB8
39DC38
3FFFB8
37FFB8
381C78
381DF8
381C70
ENDCHAR

STARTCHAR jisx0208_3153
ENCODING 12627
SWIDTH 960 0
DWIDTH 22 0
BBX 22 22 0 -2
BITMAP
7F0F80
7F0780
000380
FF8000
FFBFC0
003FC0
7F038C
7F1BCC
00FFDC
7FFFFC
7F1BB8
001B70
671B60
7FBBF0
7FBBB8
773BB8
7773BC
77739C
7FE39C
7EDF8C
771F80
700700
ENDCHAR

STARTCHAR jisx0208_3154
ENCODING 12628
SWIDTH 960 0
DWIDTH 22 0
BBX 22 22 0 -2
BITMAP
1E38F0
1E1CF0
3C1CE0
371DC0
736DF8
7373BC
EC7FFC
BF7038
1C7038
1F7038
FB7038
FF7FF8
1C7FF8
DBEDB8
DB8DC0
7F1DCC
7E1DCC
5C3DCC
1F79CC
FBF1FC
FEE1FC
7380FC
ENDCHAR

STARTCHAR jisx0208_3155
ENCODING 12629
SWIDTH 960 0
DWIDTH 22 0
BBX 22 22 0 -2
BITMAP
780F00
3C0E1C
1FFFFC
1BFFFC
C00000
F073C0
7873B8
3EF3FC
36E7FC
0FE738
0DCFB8
1FEDF8
1BDEF0
35D770
F9C3E0
F1C2E0
71C1C0
39C3F0
39C778
39CF3C
39DE1C
39D80C
ENDCHAR

STARTCHAR jisx0208_3156
ENCODING 12630
SWIDTH 960 0
DWIDTH 22 0
BBX 22 22 0 -2
BITMAP
001E00
0C1C1C
0FFFFC
0FFFFC
CE0000
EE3FE0
6E3FEC
6E39CC
6E39CC
0E71FC
0E71FC
3FE0FC
FDC000
EE3FF8
6EFFF8
0E3070
1C1DE0
1C0FC0
3807A0
387DFC
73F8FC
63C03C
ENDCHAR

STARTCHAR jisx0208_3157
ENCODING 12631
SWIDTH 960 0
DWIDTH 22 0
BBX 22 22 0 -2
BITMAP
0703C0
0383C0
038780
038738
7C7EFC
7FFFFC
060300
0781C0
0F01E0
1E00F8
3C007C
F800BC
EFFFEC
0FFFF0
0EEEE0
0EEEE0
0EEEE0
0EEEE0
0EEEE0
0EEEEC
FFFFFC
FFFFFC
ENDCHAR

STARTCHAR jisx0208_3158
ENCODING 12632
SWIDTH 960 0
DWIDTH 22 0
BBX 22 22 0 -2
BITMAP
7FDFFC
7FDFFC
771C1C
77DC1C
7EDC1C
7FDC1C
771C1C
7EDFFC
7FDFFC
771CDC
77DCC0
7EDCC0
7FDCE0
60DCE0
15DC60
57FC70
DEB870
F9B838
E1B83C
DFF01C
1F701C
07600C
ENDCHAR

STARTCHAR jisx0208_3159
ENCODING 12633
SWIDTH 960 0
DWIDTH 22 0
BBX 22 22 0 -2
BITMAP
1E3878
1C1CF8
1C1CE0
1E7DD8
5F63BC
5B7FFC
5B7038
DF7038
DC7038
DC7038
1C7FF8
1C7FF8
1C6DB8
1C0DC0
1C1DC0
1C1DC0
1C3DCC
1C39CC
1C79CC
1CF1FC
1FE1FC
1B80FC
ENDCHAR

STARTCHAR jisx0208_315A
ENCODING 12634
SWIDTH 960 0
DWIDTH 22 0
BBX 22 22 0 -2
BITMAP
7FBFFC
7FBFFC
003838
FFBFF8
FFBFF8
003838
7FBFF8
7FBFF8
000E38
7F9E04
7F9DFC
003FFC
63781C
7FF3DC
7FBFDC
73BE1C
73B8DC
73BFDC
7F9FFC
7F8038
7381F8
700070
ENDCHAR

STARTCHAR jisx0208_315B
ENCODING 12635
SWIDTH 960 0
DWIDTH 22 0
BBX 22 22 0 -2
BITMAP
0F01F8
0E01DC
0F81DC
7DD9C0
7FDFFC
0E1FFC
0EDDC0
FFDDD8
FFDDDC
0E1DDC
6EDDF8
6FDCB8
6FDCF4
6E1FF4
6EFF6C
6EFCFC
6E73BC
7E071C
5F060C
EFF9F0
C3FFFC
C07FFC
ENDCHAR

STARTCHAR jisx0208_315C
ENCODING 12636
SWIDTH 960 0
DWIDTH 22 0
BBX 22 22 0 -2
BITMAP
7FE7FC
7FE7FC
71C71C
7FC7FC
7FC7FC
71C71C
7FC7FC
7FC7FC
71861C
71CF1C
72FC9C
73FF9C
73839C
73839C
73FF9C
73FF9C
70EE5C
71EEDC
73CFDC
7F8FFC
6E07BC
700018
ENDCHAR

STARTCHAR jisx0208_315D
ENCODING 12637
SWIDTH 960 0
DWIDTH 22 0
BBX 22 22 0 -2
BITMAP
1EFFFC
1CFFFC
1C0700
1F3EFC
FBBFFC
FFB838
1C3FF8
3E3838
3F3FF8
3BB838
7BBFF8
7FB738
5C0F00
DC1EFC
DC3FFC
1C7838
1DEEF0
1DC7E0
1C03D0
1C3EFC
1DFC3C
1DE00C
ENDCHAR

STARTCHAR jisx0208_315E
ENCODING 12638
SWIDTH 960 0
DWIDTH 22 0
BBX 22 22 0 -2
BITMAP
3FFFFC
3FFFFC
380000
3BFCF0
3BFCE8
3B18DC
3BF8FC
3B18E0
3BFFFC
3807FC
3BF8E0
3BFCE0
3B18F0
3BF8B0
3BF9B0
3B19B8
7BF9B8
73F99C
731B9C
631B9C
E33F0C
C3360C
ENDCHAR

STARTCHAR jisx0208_315F
ENCODING 12639
SWIDTH 960 0
DWIDTH 22 0
BBX 22 22 0 -2
BITMAP
7FFFFC
7FFFFC
70381C
70381C
70381C
70381C
70381C
70381C
70381C
70381C
7FFFFC
7FFFFC
70001C
70001C
70001C
70001C
70001C
70001C
70001C
7001FC
7001FC
700038
ENDCHAR

STARTCHAR jisx0208_3160
ENCODING 12640
SWIDTH 960 0
DWIDTH 22 0
BBX 22 22 0 -2
BITMAP
7FFFFC
7FFFFC
70001C
703D9C
77FBDC
77FFDC
70381C
7FFFDC
6FFFDC
70001C
73FF9C
73839C
73FF9C
73FFDC
70F9DC
73BF9C
7FB75C
6E3BDC
7039DC
7FC63C
7FFFFC
70001C
ENDCHAR

STARTCHAR jisx0208_3161
ENCODING 12641
SWIDTH 960 0
DWIDTH 22 0
BBX 22 22 0 -2
BITMAP
3DFFFC
39FFFC
38E000
38EFFC
3EEFFC
F6EE38
FEEFF8
38EE38
38EFF8
38EE38
38E384
38FFFC
3AFFFC
3EE738
FEEF70
FCEFF0
70E1E0
60FF78
00DE3C
00E1C4
00FFFC
00E000
ENDCHAR

STARTCHAR jisx0208_3162
ENCODING 12642
SWIDTH 960 0
DWIDTH 22 0
BBX 22 22 0 -2
BITMAP
007800
00F81C
FFF7FC
FFFFFC
01C300
07BDC0
0F3DE0
1E38F8
7DFF7C
EFFFFC
CE38EC
0FFFE0
0FFFE0
0E38E0
0E38E0
0FFFEC
0FFFEC
0E38EC
0E380C
003FFC
003FFC
001FFC
ENDCHAR

STARTCHAR jisx0208_3163
ENCODING 12643
SWIDTH 960 0
DWIDTH 22 0
BBX 22 22 0 -2
BITMAP
303C1C
3FFBFC
7FFFFC
F0001C
F7FFF8
E7FFE0
0701C0
07FFC0
07FFC0
0701C0
07FFC0
07FFC0
06E1DC
F9DE3C
FFFFFC
0381C0
0F7780
0FFF00
061FE0
01FDF8
7FE078
7E0038
ENDCHAR

STARTCHAR jisx0208_3164
ENCODING 12644
SWIDTH 960 0
DWIDTH 22 0
BBX 22 22 0 -2
BITMAP
FF01FC
FF7FFC
0E7FC0
1E01C0
1C01C0
1C01C0
3FBDD8
3BBDFC
7FB9FC
73B9C0
73B9C0
03B9C0
3739C0
7739C0
D739D8
FEFFFC
6EFFFC
1F0000
37C000
73FFFC
E1FFFC
C07FFC
ENDCHAR

STARTCHAR jisx0208_3165
ENCODING 12645
SWIDTH 960 0
DWIDTH 22 0
BBX 22 22 0 -2
BITMAP
0F0C38
0FEFFC
1EEFFC
1FEE38
3CEE38
38EE38
6DEEF8
E7CEF8
C7CE34
038E0C
0F0E0C
3E0FFC
F86FFC
E077FC
03B800
33DC18
339CDC
7380CC
F380EC
E3FFEC
E3FFE4
01FFC0
ENDCHAR

STARTCHAR jisx0208_3166
ENCODING 12646
SWIDTH 960 0
DWIDTH 22 0
BBX 22 22 0 -2
BITMAP
1E0F00
1C0F1C
1CFEFC
1FFFFC
FB1CC0
FFBBE0
1C7770
1C7778
1CEFBC
1DFFFC
3F776C
FB7FF0
FC7FF0
DC7770
DC7770
1C7FFC
1C7FEC
1C776C
1C770C
FC07FC
FC07FC
3803FC
ENDCHAR

STARTCHAR jisx0208_3167
ENCODING 12647
SWIDTH 960 0
DWIDTH 22 0
BBX 22 22 0 -2
BITMAP
1E01FC
1C7FFC
1C7F30
1F063C
FBF378
FFBB70
1C38E8
1C47DC
1C7FFC
1F0E00
3BFFFC
FEFFFC
FC1C00
DC1FFC
DC3FFC
1C3638
1C7B78
1CF3F0
1DE1E0
FFCF7C
FB3E3C
38780C
ENDCHAR

STARTCHAR jisx0208_3168
ENCODING 12648
SWIDTH 960 0
DWIDTH 22 0
BBX 22 22 0 -2
BITMAP
3C1FE0
1E7FE0
0E60C0
0E78E0
C07060
F07070
76E038
36E03C
3FC01C
0D801C
0B406C
1CFFF0
18FFF8
38E070
F8E070
F0E070
70E070
38E070
38E070
38FFF0
38FFF0
38E070
ENDCHAR

STARTCHAR jisx0208_3169
ENCODING 12649
SWIDTH 960 0
DWIDTH 22 0
BBX 22 22 0 -2
BITMAP
780780
3CC71C
1CFFFC
1DFFFC
C3C01C
F3FFF8
797FF0
3E8708
36FFFC
0EFFFC
0CE738
1CFFF8
18FFF8
38E738
F8E738
F0FFF8
70FFF8
38E038
381CC0
38FC7C
3BF03C
3B801C
ENDCHAR

STARTCHAR jisx0208_316A
ENCODING 12650
SWIDTH 960 0
DWIDTH 22 0
BBX 22 22 0 -2
BITMAP
003C60
063C78
0638F8
0E39E0
1E7980
1C7E00
1CEF80
01E3E0
03D1F8
0FBC7C
7E3C3C
7838DC
0638E0
0E39F0
1E7BC0
1C6F00
1CEC00
01E780
07C3F0
1F81FC
FE007C
F0001C
ENDCHAR

STARTCHAR jisx0208_316B
ENCODING 12651
SWIDTH 960 0
DWIDTH 22 0
BBX 22 22 0 -2
BITMAP
1E0780
1E07B8
1C0F7C
1D9FFC
1DDC38
5FF870
5BB0E0
5E61C0
DCC180
DC361C
DC77FC
DC77FC
1C771C
1C771C
1E77FC
3F77FC
37771C
3B771C
73771C
7177FC
E077FC
C0771C
ENDCHAR

STARTCHAR jisx0208_316C
ENCODING 12652
SWIDTH 960 0
DWIDTH 22 0
BBX 22 22 0 -2
BITMAP
1E001C
1EFFFC
1CFFFC
1F06C0
1B66DC
5B7FFC
5F7FFC
5E76DC
DC76DC
DC76DC
DC7FFC
DC7FFC
1C731C
1C03C0
1E03B8
3F7FFC
37FFFC
3B8380
738380
71839C
E07FFC
C1FFFC
ENDCHAR

STARTCHAR jisx0208_316D
ENCODING 12653
SWIDTH 960 0
DWIDTH 22 0
BBX 22 22 0 -2
BITMAP
01EF00
01CE38
FFFFFC
FFFFFC
01CE00
0DFFE0
0DFDE0
0FCDCC
FE01DC
FEFDFC
0EFDF8
0ECDC0
3ECDCC
FEFDCC
EEFDFC
6ECDFC
0E00FC
318C00
318E38
71C71C
F1C71C
E1C71C
ENDCHAR

STARTCHAR jisx0208_316E
ENCODING 12654
SWIDTH 960 0
DWIDTH 22 0
BBX 22 22 0 -2
BITMAP
CF0798
EFFF7C
7EFFFC
3C0700
19FFFC
7DFFFC
DE0000
CE7FF8
0E7FF8
1E7070
1E7070
3E7FF0
6E7FF8
EE0D9C
CE3DBC
0E7CF8
0FDCE0
1DDF70
1C1B78
FCFE3C
F8FC1C
30700C
ENDCHAR

STARTCHAR jisx0208_316F
ENCODING 12655
SWIDTH 960 0
DWIDTH 22 0
BBX 22 22 0 -2
BITMAP
0E7FF8
1E7FF8
DD0070
FBBFF0
77BFF0
3F007C
2EFFEC
1CFFFC
370380
FB8F0C
FFBE1C
6DFBBC
6CE7F8
0F1DE0
6BFBC0
6AE7F0
6F8FFC
6DBDBC
EDF9DC
CCE7CC
0C0F80
0C0700
ENDCHAR

STARTCHAR jisx0208_3170
ENCODING 12656
SWIDTH 960 0
DWIDTH 22 0
BBX 22 22 0 -2
BITMAP
6B63C0
7FF3D8
7FF7BC
6B67FC
7FE738
6B6E70
7FEEEC
7FFDDC
801FFC
FFEEDC
000EDC
7FEEDC
7FEFFC
70EFFC
7FEE1C
7FEE00
318E0C
1DCE0C
1DAFFC
E3EFFC
FF07FC
700000
ENDCHAR

STARTCHAR jisx0208_3171
ENCODING 12657
SWIDTH 960 0
DWIDTH 22 0
BBX 22 22 0 -2
BITMAP
01E79C
FFDF7C
FFFFFC
01C700
19C700
1E0838
1EEFFC
1DEFFC
3FEE38
38EE38
38EE38
71EE38
5DCE38
EFCFF8
C7CDF8
078E74
038E0C
0F0E0C
1E0FFC
3C0FFC
F807FC
E00000
ENDCHAR

STARTCHAR jisx0208_3172
ENCODING 12658
SWIDTH 960 0
DWIDTH 22 0
BBX 22 22 0 -2
BITMAP
01E79C
FFDF7C
FFFFFC
01C700
3E38FC
3FFFFC
383838
3BFFB8
3C3838
37FFB8
380038
39FF38
39C738
39FF38
39B7B8
3879B8
3FBF38
373BB8
3839B8
3FC678
3FFFF8
380038
ENDCHAR

STARTCHAR jisx0208_3173
ENCODING 12659
SWIDTH 960 0
DWIDTH 22 0
BBX 22 22 0 -2
BITMAP
600780
7807B0
3CFF78
1CFFF8
1C0704
03FFFC
03FFFC
000000
1C7FF8
FE7FF8
FE7070
1C7FF0
1C7FF8
1C0F1C
1C3FFC
1CF7E0
1CE77C
3F071C
F7870C
F3F8F0
61FFFC
607FFC
ENDCHAR

STARTCHAR jisx0208_3174
ENCODING 12660
SWIDTH 960 0
DWIDTH 22 0
BBX 22 22 0 -2
BITMAP
0F0FF0
1F0FF0
1E8060
3BCF70
39CF30
71CE38
EE1C3C
BF9C1C
0E381C
0EF00C
FFC830
FFDFFC
0E1FFC
CEDC38
EEDC38
6FDC38
6D9C38
6E1C38
0FDC38
FFDFF8
FE1FF8
701C38
ENDCHAR

STARTCHAR jisx0208_3175
ENCODING 12661
SWIDTH 960 0
DWIDTH 22 0
BBX 22 22 0 -2
BITMAP
1FDFF0
1DDFF0
3FDCEC
79DBEC
F39CCC
DF7F3C
0E6FFC
7CF000
EFEFE0
CFFFE0
0E01C0
0FFFC0
0E01C0
0FFFF8
0E003C
0FFFFC
0E0000
3FFFFC
36331C
73BFFC
F39CF8
E39870
ENDCHAR

STARTCHAR jisx0208_3176
ENCODING 12662
SWIDTH 960 0
DWIDTH 22 0
BBX 22 22 0 -2
BITMAP
3C3C00
3C3C38
3873FC
387FFC
38E000
3ED070
F73FF8
FF3FF8
383870
383870
383FF0
383FF0
383870
3AC008
3EFFFC
FEFFFC
F8EDB8
70EDB8
60EDB8
00EDBC
07FFF4
07FFFC
ENDCHAR

STARTCHAR jisx0208_3177
ENCODING 12663
SWIDTH 960 0
DWIDTH 22 0
BBX 22 22 0 -2
BITMAP
1E03C0
1C03C0
1DC380
FFE6C0
FFE6E0
300670
3C0E78
39CC3C
3FDC3C
3FFB1C
39B3CC
39C1E0
39C0E0
39C0E0
39C000
71C600
71C780
71C3C0
63C1E0
FF80E0
DF80E0
C70060
ENDCHAR

STARTCHAR jisx0208_3178
ENCODING 12664
SWIDTH 960 0
DWIDTH 22 0
BBX 22 22 0 -2
BITMAP
3C7FFC
1E7FFC
0E0E00
0E0E00
C01E00
F31C1C
7BFFFC
3EFFFC
361C00
0E3800
0C3838
1C3FFC
187FFC
387038
F87038
F00038
700078
380070
380070
3807F0
3807E0
3801C0
ENDCHAR

STARTCHAR jisx0208_3179
ENCODING 12665
SWIDTH 960 0
DWIDTH 22 0
BBX 22 22 0 -2
BITMAP
0F3FFC
6E3FFC
7E3B9C
7E3B9C
6FBFFC
7DBFFC
7FBB9C
EE3B9C
CE3FFC
CFBFFC
3DF61C
7FC780
0E3F7C
0E3FFC
0E071C
0FCF1C
FDCE1C
FF1E1C
783C3C
6079F8
01F1F8
01C070
ENDCHAR

STARTCHAR jisx0208_317A
ENCODING 12666
SWIDTH 960 0
DWIDTH 22 0
BBX 22 22 0 -2
BITMAP
61C61C
7FE7FC
7FE7FC
71C71C
71C71C
71C71C
71C71C
71C71C
71C71C
71FF1C
71FF1C
71C71C
71C01C
70001C
70001C
70001C
70001C
70001C
7FFFFC
7FFFFC
70001C
70001C
ENDCHAR

STARTCHAR jisx0208_317B
ENCODING 12667
SWIDTH 960 0
DWIDTH 22 0
BBX 22 22 0 -2
BITMAP
003C00
003800
183870
1FFFF8
1FFFF8
1C3870
1C3870
1C3870
1C3870
1C3870
1C387C
FFFFEC
FFFFFC
006C00
00EE00
00E700
01E780
03C3E0
0781F8
1F00FC
FC003C
F0001C
ENDCHAR

STARTCHAR jisx0208_317C
ENCODING 12668
SWIDTH 960 0
DWIDTH 22 0
BBX 22 22 0 -2
BITMAP
18F870
1FE7F8
1FFFF8
1C0070
1BBB70
1DBF70
1E7670
1BFF70
1C7C70
1DF770
1FBB70
1F3970
1C4070
1C787C
FFF7EC
FFFFFC
00D800
03CF00
0787E0
1F03FC
FC00FC
F0003C
ENDCHAR

STARTCHAR jisx0208_317D
ENCODING 12669
SWIDTH 960 0
DWIDTH 22 0
BBX 22 22 0 -2
BITMAP
0F1E00
1F0F00
1E0700
3C0738
79F8FC
EFFFFC
CF0700
1E0700
1C0700
3C0700
380730
7CFFF8
F8FFF8
B80700
380700
380700
380700
380700
38071C
3BFFFC
3BFFFC
380000
ENDCHAR

STARTCHAR jisx0208_317E
ENCODING 12670
SWIDTH 960 0
DWIDTH 22 0
BBX 22 22 0 -2
BITMAP
001E00
301C1C
3FFFFC
3FFFFC
380000
380780
3803C0
383DC0
383DC0
3838C0
383830
39B838
39B81C
39B81C
39B80C
3BB80C
7BB834
77B830
773838
673FF8
E03FF8
C01FF0
ENDCHAR

STARTCHAR jisx0208_3221
ENCODING 12833
SWIDTH 960 0
DWIDTH 22 0
BBX 22 22 0 -2
BITMAP
1E7FFC
1C7FFC
1C739C
1F739C
FB739C
FF739C
1C7FFC
1C7FFC
1C739C
1C739C
1F739C
FF739C
FC7FFC
7C7FFC
5C739C
1C0380
1C0380
1C0380
1C0380
FC0380
FC0380
380380
ENDCHAR

STARTCHAR jisx0208_3222
ENCODING 12834
SWIDTH 960 0
DWIDTH 22 0
BBX 22 22 0 -2
BITMAP
C77FFC
FFFFFC
FF8380
E70380
E70380
E70380
E70380
E70380
FF03B8
FF7FFC
E77FFC
E70380
E70380
E70380
E70380
FF0380
FF0380
E70380
E0039C
00FFFC
00FFFC
000000
ENDCHAR

STARTCHAR jisx0208_3223
ENCODING 12835
SWIDTH 960 0
DWIDTH 22 0
BBX 22 22 0 -2
BITMAP
1E1EF0
1C1CE8
1CFFDC
1FFFFC
FB1CE0
FF9CEC
1C7FFC
3FFFFC
3E0300
3B7FFC
7B7FFC
7F7338
5C7FF8
DC7FF8
DC7338
1C7FF8
1C7FF8
1C7038
1C1C60
1C7C3C
1DF01C
1DC00C
ENDCHAR

STARTCHAR jisx0208_3224
ENCODING 12836
SWIDTH 960 0
DWIDTH 22 0
BBX 22 22 0 -2
BITMAP
C1C780
FFE780
FFE700
E00700
E1EF1C
E1EEFC
F9CFFC
DDDDDC
EF99D8
E7B9C0
E3F1C0
E7C1C0
E6E1C0
EEE3E0
EEE360
FC6370
D80730
E1C738
FFEE3C
FFFC1C
E0181C
E0300C
ENDCHAR

STARTCHAR jisx0208_3225
ENCODING 12837
SWIDTH 960 0
DWIDTH 22 0
BBX 22 22 0 -2
BITMAP
C1CCE0
FFEFF0
FFEFF0
E00EE0
E1EEEC
E1EEEC
F9DCFC
DDDCFC
EDB87C
E7B000
E38FFC
E7FFFC
E6CC38
EEEE78
EEE670
FC66F0
D803E0
E1C1C0
FFE6F8
FFFF7C
E01C3C
E0700C
ENDCHAR

STARTCHAR jisx0208_3226
ENCODING 12838
SWIDTH 960 0
DWIDTH 22 0
BBX 22 22 0 -2
BITMAP
7FFFFC
7FFFFC
003800
003800
003800
003800
003800
003800
003870
3FFFF8
3FFFF8
003800
003800
003800
003800
003800
003800
003800
00381C
FFFFFC
FFFFFC
000000
ENDCHAR

ENDFONT
